<?xml version="1.0" standalone="no"?>
<!DOCTYPE svg PUBLIC "-//W3C//DTD SVG 20010904//EN"
 "http://www.w3.org/TR/2001/REC-SVG-20010904/DTD/svg10.dtd">
<svg version="1.0" xmlns="http://www.w3.org/2000/svg"
 width="1040.000000pt" height="650.000000pt" viewBox="0 0 1040.000000 650.000000"
 preserveAspectRatio="xMidYMid meet">

<g transform="translate(0.000000,650.000000) scale(0.100000,-0.100000)"
fill="#000000" stroke="none">
<path d="M3900 6390 c0 -16 7 -20 30 -20 l30 0 0 -90 c0 -83 1 -90 20 -90 19
0 20 7 20 90 l0 90 30 0 c23 0 30 4 30 20 0 18 -7 20 -80 20 -73 0 -80 -2 -80
-20z"/>
<path d="M4520 6300 c0 -103 1 -110 20 -110 15 0 20 7 20 29 0 44 18 47 37 7
10 -22 24 -36 35 -36 23 0 23 6 -7 59 l-26 44 28 29 27 28 -24 0 c-14 0 -34
-11 -47 -27 l-22 -28 -1 58 c0 50 -2 57 -20 57 -19 0 -20 -7 -20 -110z"/>
<path d="M4963 6370 c-3 -11 -9 -20 -14 -20 -5 0 -9 -7 -9 -15 0 -8 5 -15 10
-15 6 0 10 -27 10 -60 0 -55 2 -60 24 -66 25 -6 46 1 46 15 0 5 -9 11 -20 14
-16 4 -20 14 -20 51 0 34 4 46 15 46 8 0 15 7 15 15 0 8 -7 15 -15 15 -8 0
-15 9 -15 20 0 11 -5 20 -11 20 -6 0 -13 -9 -16 -20z"/>
<path d="M4070 6270 c0 -73 2 -80 20 -80 16 0 19 8 22 63 3 56 5 62 26 65 12
2 22 10 22 18 0 17 -31 19 -48 2 -9 -9 -12 -9 -12 0 0 7 -7 12 -15 12 -12 0
-15 -16 -15 -80z"/>
<path d="M4194 6335 c-16 -12 -17 -16 -5 -24 9 -6 21 -5 31 1 19 12 50 5 50
-11 0 -6 -17 -15 -39 -21 -46 -12 -65 -32 -56 -59 8 -26 46 -37 73 -22 14 7
23 8 27 1 3 -5 13 -10 21 -10 24 0 19 115 -6 140 -24 24 -68 26 -96 5z m76
-84 c0 -15 -29 -33 -45 -27 -20 7 -19 23 3 29 29 8 42 7 42 -2z"/>
<path d="M4369 6331 c-18 -14 -24 -29 -24 -61 0 -32 6 -47 24 -61 28 -23 70
-25 97 -4 16 13 17 16 4 25 -19 13 -30 13 -30 0 0 -14 -33 -13 -48 2 -17 17
-15 63 4 79 12 10 20 10 35 1 12 -8 26 -9 36 -4 13 8 12 11 -8 26 -31 21 -61
20 -90 -3z"/>
<path d="M4798 6339 c-21 -12 -24 -54 -5 -66 6 -4 27 -12 46 -18 18 -5 34 -14
35 -20 1 -14 -42 -19 -57 -7 -7 5 -21 6 -31 3 -18 -7 -18 -8 5 -24 48 -35 124
-13 117 33 -3 24 -12 31 -68 54 -30 12 -32 15 -16 21 11 5 27 3 38 -4 12 -7
25 -8 35 -3 13 8 12 11 -8 26 -26 18 -65 20 -91 5z"/>
<path d="M5050 6269 c0 -72 2 -79 20 -79 17 0 20 7 20 49 0 62 7 81 31 81 10
0 19 6 19 14 0 10 -13 14 -45 14 l-45 0 0 -79z"/>
<path d="M5180 6330 c-13 -13 -20 -33 -20 -60 0 -68 64 -104 116 -65 21 16 18
17 -41 19 -20 1 -31 7 -33 19 -3 14 4 17 47 17 47 0 51 2 51 24 0 29 -43 66
-76 66 -13 0 -33 -9 -44 -20z m78 -27 c2 -9 -7 -13 -27 -13 -30 0 -39 9 -24
24 11 10 46 3 51 -11z"/>
<path d="M5346 6331 c-16 -17 -16 -19 0 -25 10 -4 21 -2 24 5 10 15 45 7 45
-11 0 -8 -14 -17 -33 -21 -42 -9 -55 -21 -50 -49 5 -34 31 -47 68 -33 16 6 30
7 30 2 0 -5 8 -9 18 -9 15 0 17 8 12 70 -4 47 -10 74 -20 80 -25 16 -76 11
-94 -9z m74 -86 c0 -19 -24 -29 -47 -20 -17 6 -17 7 1 21 26 18 46 18 46 -1z"/>
<path d="M5500 6270 c0 -73 2 -80 20 -80 16 0 19 8 22 63 3 54 5 62 23 62 18
0 20 -8 23 -62 3 -54 6 -63 22 -63 16 0 19 9 22 56 2 42 8 60 21 68 25 16 37
-7 37 -71 0 -40 4 -53 15 -53 12 0 15 14 15 68 0 40 -5 73 -12 80 -15 15 -50
16 -64 2 -8 -8 -19 -7 -37 1 -21 9 -33 9 -52 1 -15 -7 -25 -8 -25 -2 0 6 -7
10 -15 10 -12 0 -15 -16 -15 -80z"/>
<path d="M4680 6270 c0 -17 7 -20 40 -20 33 0 40 3 40 20 0 17 -7 20 -40 20
-33 0 -40 -3 -40 -20z"/>
<path d="M3920 5939 c0 -100 2 -110 18 -107 14 3 18 17 22 83 l5 80 19 -82
c15 -66 23 -83 37 -83 19 0 21 5 40 93 15 71 29 57 29 -30 0 -56 2 -63 20 -63
19 0 20 7 20 110 l0 110 -34 0 c-34 0 -34 0 -51 -70 -18 -72 -28 -80 -39 -33
-25 103 -25 103 -56 103 l-30 0 0 -111z"/>
<path d="M4170 6035 c0 -8 9 -15 20 -15 11 0 20 7 20 15 0 8 -9 15 -20 15 -11
0 -20 -7 -20 -15z"/>
<path d="M5340 6035 c0 -8 7 -15 15 -15 8 0 15 7 15 15 0 8 -7 15 -15 15 -8 0
-15 -7 -15 -15z"/>
<path d="M4170 5910 c0 -73 2 -80 20 -80 18 0 20 7 20 80 0 73 -2 80 -20 80
-18 0 -20 -7 -20 -80z"/>
<path d="M4269 5971 c-18 -14 -24 -29 -24 -61 0 -32 6 -47 24 -61 28 -23 70
-25 97 -4 16 13 17 16 4 25 -19 13 -30 13 -30 0 0 -14 -33 -13 -48 2 -17 17
-15 63 4 79 12 10 20 10 35 1 12 -8 26 -9 36 -4 13 8 12 11 -8 26 -31 21 -61
20 -90 -3z"/>
<path d="M4420 5910 c0 -73 2 -80 20 -80 16 0 19 8 22 63 3 56 5 62 26 65 12
2 22 10 22 18 0 17 -31 19 -48 2 -9 -9 -12 -9 -12 0 0 7 -7 12 -15 12 -12 0
-15 -16 -15 -80z"/>
<path d="M4549 5971 c-18 -14 -24 -29 -24 -60 0 -49 18 -70 67 -78 30 -4 41
-1 62 20 72 72 -26 182 -105 118z m79 -23 c7 -7 12 -24 12 -38 0 -51 -52 -69
-72 -25 -22 49 25 98 60 63z"/>
<path d="M4726 5977 c-32 -23 -17 -59 32 -77 24 -9 44 -21 45 -26 3 -13 -41
-18 -56 -6 -7 5 -21 6 -31 3 -18 -7 -18 -8 5 -24 39 -28 101 -21 119 13 16 30
1 48 -51 65 -27 9 -47 21 -43 26 8 13 52 11 56 -3 3 -8 9 -8 22 -1 17 9 17 11
1 26 -20 20 -74 22 -99 4z"/>
<path d="M4895 5965 c-66 -65 14 -168 97 -124 16 9 18 13 7 20 -8 4 -24 6 -37
2 -22 -5 -52 11 -52 28 0 5 25 9 55 9 55 0 55 0 49 28 -14 61 -76 80 -119 37z
m75 -20 c11 -13 7 -15 -24 -15 -34 0 -44 8 -29 23 11 12 40 8 53 -8z"/>
<path d="M5050 5909 c0 -72 2 -79 20 -79 17 0 20 7 20 49 0 62 7 81 31 81 10
0 19 6 19 14 0 10 -13 14 -45 14 l-45 0 0 -79z"/>
<path d="M5153 5978 c71 -181 79 -185 120 -75 32 86 32 87 11 87 -13 0 -23
-17 -49 -85 -6 -17 -10 -11 -27 33 -15 38 -26 52 -40 52 -12 0 -18 -5 -15 -12z"/>
<path d="M5340 5910 c0 -64 3 -80 15 -80 12 0 15 16 15 80 0 64 -3 80 -15 80
-12 0 -15 -16 -15 -80z"/>
<path d="M5435 5965 c-16 -15 -25 -36 -25 -55 0 -37 39 -80 72 -80 13 0 34 7
47 16 21 15 22 18 6 26 -11 7 -21 6 -28 -1 -16 -16 -44 -13 -51 5 -20 53 6
100 43 77 9 -5 25 -7 35 -3 18 6 18 7 -5 23 -33 24 -66 21 -94 -8z"/>
<path d="M5600 5970 c-29 -29 -28 -103 2 -124 26 -19 61 -20 90 -5 27 15 5 30
-33 22 -21 -4 -30 0 -38 16 -11 20 -10 21 44 21 49 0 55 2 55 20 0 29 -44 70
-75 70 -14 0 -34 -9 -45 -20z m78 -27 c2 -9 -8 -13 -33 -13 -33 0 -36 2 -25
15 15 18 51 16 58 -2z"/>
<path d="M8441 5524 c-165 -28 -289 -86 -310 -146 -7 -19 -11 -138 -11 -310
l0 -278 -50 25 c-52 27 -57 26 -40 -6 11 -19 -7 -19 -1255 -19 l-1265 0 0 190
0 190 -820 0 -820 0 0 -190 0 -190 -50 25 c-52 27 -57 26 -40 -6 11 -19 -4
-19 -1127 -17 l-1138 3 -3 188 -2 187 -755 0 -755 0 0 -380 0 -380 755 0 755
0 0 185 0 185 1140 0 c1125 0 1141 0 1130 -19 -17 -32 -12 -33 40 -6 l50 25 0
-185 0 -185 820 0 820 0 0 185 0 185 1265 0 c1263 0 1266 0 1255 -20 -6 -11
-8 -20 -5 -20 3 0 23 9 45 20 22 11 42 20 45 20 3 0 5 -96 5 -214 0 -125 4
-226 11 -244 32 -93 270 -162 559 -162 269 0 500 60 550 143 19 31 20 53 20
547 0 494 -1 516 -20 547 -33 55 -145 100 -315 128 -113 19 -370 18 -484 -1z
m468 -9 c186 -28 318 -85 334 -144 15 -58 -54 -117 -175 -151 -264 -76 -624
-63 -830 28 -124 54 -132 139 -19 196 149 76 452 107 690 71z m329 -1193 c-82
-169 -778 -207 -1034 -57 -76 44 -74 31 -74 565 0 258 3 470 8 470 4 -1 23
-14 42 -31 42 -35 155 -73 283 -94 106 -17 346 -20 433 -5 170 30 277 66 324
111 l25 24 3 -478 c2 -369 -1 -485 -10 -505z m-7738 468 l0 -370 -745 0 -745
0 0 370 0 370 745 0 745 0 0 -370z m4000 0 l0 -370 -805 0 -805 0 0 370 0 370
805 0 805 0 0 -370z"/>
<path d="M8220 4830 c0 -5 9 -10 19 -10 16 0 21 -8 24 -47 l3 -48 2 48 c2 40
5 47 22 47 11 0 20 5 20 10 0 6 -20 10 -45 10 -25 0 -45 -4 -45 -10z"/>
<path d="M8530 4785 c0 -30 5 -55 10 -55 6 0 10 7 10 15 0 8 4 15 9 15 5 0 11
-7 15 -15 3 -8 11 -15 17 -15 7 0 6 8 -4 23 -10 16 -12 28 -5 40 10 20 -2 23
-20 5 -9 -9 -12 -6 -12 15 0 15 -4 27 -10 27 -5 0 -10 -25 -10 -55z"/>
<path d="M8687 4834 c-15 -15 -6 -43 21 -64 l27 -21 -34 5 c-29 5 -32 4 -21
-9 18 -21 54 -15 59 10 2 12 -7 28 -25 43 l-29 24 28 -6 c21 -5 28 -3 25 6 -5
15 -40 23 -51 12z"/>
<path d="M8773 4818 c-13 -17 -4 -88 11 -88 8 0 12 15 11 45 -2 51 -8 61 -22
43z"/>
<path d="M8311 4765 c2 -31 3 -34 6 -12 3 16 11 31 19 34 21 8 17 22 -6 20
-17 -1 -20 -8 -19 -42z"/>
<path d="M8370 4800 c0 -5 10 -10 23 -10 18 0 19 -2 7 -10 -10 -6 -11 -10 -2
-10 6 0 12 -4 12 -10 0 -5 -7 -10 -15 -10 -8 0 -15 5 -15 12 0 9 -3 9 -11 1
-17 -17 -2 -32 31 -31 24 1 30 5 30 24 0 38 -11 54 -36 54 -13 0 -24 -4 -24
-10z"/>
<path d="M8450 4791 c-15 -29 4 -63 32 -59 30 4 36 29 6 26 -15 -2 -23 2 -23
12 0 10 8 14 23 12 30 -3 24 22 -6 26 -13 2 -25 -4 -32 -17z"/>
<path d="M8821 4765 c2 -31 3 -34 6 -12 3 16 11 31 19 34 21 8 17 22 -6 20
-17 -1 -20 -8 -19 -42z"/>
<path d="M8877 4803 c-4 -3 -7 -19 -7 -35 0 -31 20 -45 48 -33 15 7 14 9 -8
15 l-25 8 28 1 c30 1 32 4 17 32 -10 19 -40 26 -53 12z m40 -19 c-3 -3 -12 -4
-19 -1 -8 3 -5 6 6 6 11 1 17 -2 13 -5z"/>
<path d="M8960 4800 c0 -5 10 -10 23 -10 18 0 19 -2 7 -10 -10 -6 -11 -10 -2
-10 6 0 12 -4 12 -10 0 -5 -7 -10 -15 -10 -8 0 -15 5 -15 12 0 9 -3 9 -11 1
-17 -17 -2 -32 31 -31 24 1 30 5 30 24 0 38 -11 54 -36 54 -13 0 -24 -4 -24
-10z"/>
<path d="M9040 4769 c0 -22 5 -39 10 -39 6 0 10 14 10 31 0 39 23 34 31 -7 l6
-29 4 29 c6 41 29 46 29 7 0 -17 5 -31 11 -31 6 0 9 16 7 38 l-3 37 -52 1 -53
1 0 -38z"/>
<path d="M8610 4770 c0 -5 9 -10 20 -10 11 0 20 5 20 10 0 6 -9 10 -20 10 -11
0 -20 -4 -20 -10z"/>
<path d="M8610 4605 c0 -54 0 -55 29 -55 51 0 76 44 51 91 -8 13 -21 19 -45
19 l-35 0 0 -55z m65 0 c0 -23 -5 -31 -22 -33 -20 -3 -23 1 -23 33 0 32 3 36
23 33 17 -2 22 -10 22 -33z"/>
<path d="M8720 4606 l0 -56 35 0 c33 0 64 28 48 44 -3 3 -6 18 -7 33 -1 25 -5
28 -38 31 l-38 3 0 -55z m60 24 c0 -5 -11 -10 -25 -10 -14 0 -25 5 -25 10 0 6
11 10 25 10 14 0 25 -4 25 -10z m1 -45 c0 -5 -12 -11 -26 -13 -18 -2 -25 1
-25 13 0 12 7 15 25 13 14 -2 26 -7 26 -13z"/>
<path d="M543 4798 c-20 -52 -21 -80 -2 -45 12 21 59 23 59 2 0 -8 5 -15 11
-15 11 0 7 19 -17 77 -8 18 -18 33 -23 33 -4 0 -17 -24 -28 -52z m41 7 c3 -9
0 -15 -9 -15 -8 0 -15 7 -15 15 0 8 4 15 9 15 5 0 11 -7 15 -15z"/>
<path d="M690 4831 c0 -14 -5 -18 -19 -14 -26 7 -46 -29 -31 -56 7 -13 20 -19
40 -19 29 1 30 2 30 55 0 29 -4 53 -10 53 -5 0 -10 -9 -10 -19z m-4 -42 c10
-17 -13 -36 -27 -22 -12 12 -4 33 11 33 5 0 12 -5 16 -11z"/>
<path d="M860 4840 c0 -5 5 -10 10 -10 6 0 10 5 10 10 0 6 -4 10 -10 10 -5 0
-10 -4 -10 -10z"/>
<path d="M730 4779 c0 -22 5 -39 10 -39 6 0 10 14 10 31 0 39 23 34 31 -7 l6
-29 4 29 c6 41 29 46 29 7 0 -17 5 -31 11 -31 6 0 9 16 7 38 l-3 37 -52 1 -53
1 0 -38z"/>
<path d="M860 4780 c0 -22 5 -40 10 -40 6 0 10 18 10 40 0 22 -4 40 -10 40 -5
0 -10 -18 -10 -40z"/>
<path d="M911 4775 c1 -37 2 -38 8 -10 3 17 13 30 21 30 8 0 18 -13 21 -30 6
-27 7 -26 8 13 1 41 0 42 -29 40 -28 -2 -30 -5 -29 -43z"/>
<path d="M4230 4930 c0 -5 9 -10 19 -10 16 0 21 -8 24 -47 l3 -48 2 48 c2 40
5 47 22 47 11 0 20 5 20 10 0 6 -20 10 -45 10 -25 0 -45 -4 -45 -10z"/>
<path d="M4540 4885 c0 -30 5 -55 10 -55 6 0 10 7 10 15 0 8 4 15 9 15 5 0 11
-7 15 -15 3 -8 11 -15 17 -15 7 0 6 8 -4 23 -10 16 -12 28 -5 40 10 20 -2 23
-20 5 -9 -9 -12 -6 -12 15 0 15 -4 27 -10 27 -5 0 -10 -25 -10 -55z"/>
<path d="M4763 4918 c-13 -17 -4 -88 11 -88 8 0 12 15 11 45 -2 51 -8 61 -22
43z"/>
<path d="M4321 4865 c2 -31 3 -34 6 -12 3 16 11 31 19 34 21 8 17 22 -6 20
-17 -1 -20 -8 -19 -42z"/>
<path d="M4375 4901 c-3 -7 3 -11 17 -12 l23 0 -23 -11 c-32 -16 -24 -43 14
-45 30 -1 30 0 25 35 -5 28 -12 38 -28 40 -11 2 -24 -2 -28 -7z m35 -41 c0 -5
-4 -10 -10 -10 -5 0 -10 5 -10 10 0 6 5 10 10 10 6 0 10 -4 10 -10z"/>
<path d="M4460 4891 c-15 -29 4 -63 32 -59 30 4 36 29 6 26 -15 -2 -23 2 -23
12 0 10 8 14 23 12 30 -3 24 22 -6 26 -13 2 -25 -4 -32 -17z"/>
<path d="M4677 4903 c-15 -14 -5 -33 21 -40 l27 -7 -30 -6 c-26 -6 -27 -8 -11
-15 20 -9 47 3 48 20 0 6 -10 16 -23 22 l-24 13 23 0 c13 0 20 4 17 10 -7 11
-38 13 -48 3z"/>
<path d="M4811 4865 l1 -40 9 33 c5 17 14 32 19 32 6 0 10 4 10 9 0 6 -9 9
-20 8 -17 -1 -20 -8 -19 -42z"/>
<path d="M4870 4895 c-25 -30 9 -76 46 -60 17 7 15 9 -11 15 l-30 8 28 1 c28
1 35 19 15 39 -16 16 -33 15 -48 -3z m37 -11 c-3 -3 -12 -4 -19 -1 -8 3 -5 6
6 6 11 1 17 -2 13 -5z"/>
<path d="M4955 4901 c-3 -7 3 -11 17 -12 l23 0 -22 -11 c-13 -6 -23 -19 -23
-29 0 -14 7 -18 30 -16 29 2 31 4 28 37 -2 27 -8 36 -25 38 -11 2 -24 -2 -28
-7z m35 -41 c0 -5 -7 -10 -16 -10 -8 0 -12 5 -9 10 3 6 10 10 16 10 5 0 9 -4
9 -10z"/>
<path d="M5030 4869 c0 -21 5 -39 10 -39 6 0 10 14 10 30 0 43 30 41 31 -2 l1
-33 9 33 c12 40 29 42 29 2 0 -16 5 -30 11 -30 6 0 9 16 7 37 l-3 38 -52 1
-53 2 0 -39z"/>
<path d="M4620 4870 c0 -5 9 -10 20 -10 11 0 20 5 20 10 0 6 -9 10 -20 10 -11
0 -20 -4 -20 -10z"/>
<path d="M4240 4706 c0 -62 19 -79 21 -18 l1 37 10 -38 c12 -45 28 -44 42 4
l10 34 7 -40 c6 -38 6 -37 8 18 1 68 -21 80 -36 20 l-10 -38 -10 35 c-5 20
-17 36 -26 38 -14 3 -17 -5 -17 -52z"/>
<path d="M4950 4750 c0 -5 5 -10 10 -10 6 0 10 5 10 10 0 6 -4 10 -10 10 -5 0
-10 -4 -10 -10z"/>
<path d="M4373 4690 c0 -25 2 -35 4 -22 2 12 2 32 0 45 -2 12 -4 2 -4 -23z"/>
<path d="M4410 4711 c-15 -29 4 -63 32 -59 30 4 36 29 6 26 -15 -2 -23 2 -23
12 0 10 8 14 23 12 30 -3 24 22 -6 26 -13 2 -25 -4 -32 -17z"/>
<path d="M4490 4689 c0 -22 5 -39 10 -39 6 0 10 14 10 30 0 20 5 30 15 30 8 0
15 4 15 9 0 5 -11 9 -25 9 -22 0 -25 -5 -25 -39z"/>
<path d="M4550 4711 c-25 -47 36 -83 64 -38 8 12 8 22 0 35 -16 25 -51 27 -64
3z m50 -21 c0 -21 -24 -28 -35 -10 -8 14 3 30 21 30 8 0 14 -9 14 -20z"/>
<path d="M4647 4723 c-15 -14 -5 -33 21 -40 l27 -7 -30 -6 c-24 -6 -27 -8 -12
-14 9 -5 24 -6 32 -2 22 8 18 35 -7 46 l-23 9 23 0 c13 1 20 5 17 11 -7 11
-38 13 -48 3z"/>
<path d="M4727 4723 c-4 -3 -7 -19 -7 -35 0 -31 20 -45 48 -33 15 7 14 9 -8
15 l-25 8 28 1 c30 1 32 4 17 32 -10 19 -40 26 -53 12z m40 -19 c-3 -3 -12 -4
-19 -1 -8 3 -5 6 6 6 11 1 17 -2 13 -5z"/>
<path d="M4811 4685 l1 -40 9 31 c13 47 36 50 53 9 8 -19 18 -35 21 -35 6 0
35 63 35 75 0 16 -18 1 -27 -22 l-10 -28 -8 28 c-6 24 -12 27 -41 25 -33 -2
-34 -3 -33 -43z"/>
<path d="M4950 4690 c0 -22 5 -40 10 -40 6 0 10 18 10 40 0 22 -4 40 -10 40
-5 0 -10 -18 -10 -40z"/>
<path d="M4994 4716 c-3 -8 -4 -25 -2 -38 4 -27 39 -36 57 -14 11 13 8 15 -16
13 -19 -1 -28 3 -28 13 0 9 9 15 23 14 28 -1 23 20 -6 24 -13 2 -25 -3 -28
-12z"/>
<path d="M5080 4715 c-25 -30 9 -76 46 -60 17 7 15 9 -11 15 l-30 8 28 1 c28
1 35 19 15 39 -16 16 -33 15 -48 -3z m37 -11 c-3 -3 -12 -4 -19 -1 -8 3 -5 6
6 6 11 1 17 -2 13 -5z"/>
<path d="M2547 5492 c-10 -10 -17 -33 -17 -50 0 -66 101 -84 108 -19 3 24 0
27 -25 26 -27 0 -27 -1 -5 -9 27 -12 28 -26 2 -40 -28 -15 -59 -3 -66 25 -14
56 26 90 71 61 28 -19 32 -15 9 8 -21 21 -57 20 -77 -2z"/>
<path d="M2670 5445 l0 -65 48 1 47 2 -40 6 c-34 5 -40 10 -40 31 0 21 6 26
35 31 l35 6 -38 2 c-31 1 -38 4 -35 19 2 11 16 19 43 23 l40 6 -47 2 -48 1 0
-65z"/>
<path d="M2788 5503 c20 -4 22 -10 22 -64 0 -33 4 -59 10 -59 6 0 10 26 10 59
0 54 2 60 23 64 12 2 -3 4 -33 4 -30 0 -45 -2 -32 -4z"/>
<path d="M4436 5483 c-37 -37 -47 -173 -18 -232 18 -37 51 -59 38 -25 -28 72
-28 142 0 242 6 21 -5 30 -20 15z"/>
<path d="M4517 5472 c-20 -22 -22 -57 -4 -73 11 -11 10 -16 -5 -31 -10 -10
-18 -25 -18 -33 0 -25 46 -65 75 -65 51 0 86 70 50 100 -11 9 -13 16 -5 24 16
16 12 61 -8 79 -24 22 -65 21 -85 -1z m68 -42 c0 -18 -6 -26 -21 -28 -23 -3
-37 18 -27 44 10 25 48 13 48 -16z m0 -95 c0 -23 -5 -31 -21 -33 -24 -3 -38
20 -28 50 4 13 13 18 27 16 17 -2 22 -10 22 -33z"/>
<path d="M4689 5471 c-21 -17 -24 -28 -24 -91 0 -63 3 -74 24 -91 30 -24 56
-24 80 0 55 55 27 201 -38 201 -10 0 -29 -9 -42 -19z m65 -37 c3 -9 6 -33 6
-54 0 -51 -8 -70 -30 -70 -10 0 -21 7 -24 16 -8 21 -8 109 1 117 12 13 41 7
47 -9z"/>
<path d="M4850 5470 c-24 -24 -25 -38 -5 -67 13 -18 13 -22 0 -33 -23 -19 -19
-66 7 -84 32 -23 65 -20 94 9 27 27 26 59 -2 81 -12 10 -12 13 1 24 34 28 -1
90 -50 90 -14 0 -34 -9 -45 -20z m65 -40 c0 -16 -6 -26 -18 -28 -19 -4 -32 20
-23 44 9 25 41 13 41 -16z m9 -82 c13 -22 -14 -54 -38 -45 -16 6 -22 48 -9 61
11 11 35 3 47 -16z"/>
<path d="M5032 5421 c-23 -37 -42 -78 -42 -90 0 -18 6 -21 40 -21 33 0 40 -3
40 -20 0 -13 7 -20 20 -20 13 0 20 7 20 20 0 11 7 20 15 20 8 0 15 9 15 20 0
11 -7 20 -15 20 -12 0 -15 14 -15 70 0 95 -20 95 -78 1z m38 -36 c0 -31 -3
-35 -25 -35 l-25 0 22 35 c13 19 24 35 26 35 1 0 2 -16 2 -35z"/>
<path d="M5176 5443 c8 -25 14 -67 14 -93 0 -26 -6 -68 -14 -93 -18 -59 2 -66
29 -11 29 61 31 132 5 192 -29 68 -54 72 -34 5z"/>
<path d="M2237 5293 c-3 -5 -10 -27 -17 -51 -6 -24 -14 -51 -17 -60 -3 -9 -3
-14 1 -11 8 7 46 129 41 129 -2 0 -6 -3 -8 -7z"/>
<path d="M2459 5286 c-2 -10 -2 -41 -1 -67 4 -44 6 -49 27 -49 15 0 26 8 30
20 4 14 15 20 35 20 20 0 31 -6 35 -20 3 -11 10 -20 16 -20 7 0 1 21 -38 118
-10 24 -22 11 -44 -48 -26 -70 -49 -80 -49 -20 0 25 5 40 13 40 8 0 9 3 1 8
-6 4 -13 14 -16 22 -4 12 -6 11 -9 -4z m106 -43 c5 -19 2 -23 -14 -23 -23 0
-24 3 -15 38 7 26 18 20 29 -15z"/>
<path d="M2810 5235 c0 -37 4 -65 10 -65 6 0 10 28 10 65 0 37 -4 65 -10 65
-6 0 -10 -28 -10 -65z"/>
<path d="M2950 5282 c0 -7 -9 -12 -20 -12 -11 0 -20 -4 -20 -9 0 -5 -5 -22
-11 -38 l-11 -28 -18 40 c-23 50 -26 30 -4 -25 15 -38 15 -42 -1 -60 -10 -11
-13 -20 -8 -20 16 0 28 20 49 78 21 61 38 63 42 4 2 -32 7 -42 20 -42 13 0 14
2 4 9 -8 5 -12 25 -11 54 2 26 0 50 -4 53 -4 4 -7 2 -7 -4z"/>
<path d="M2266 5254 c-32 -31 -7 -92 33 -81 13 3 21 1 21 -8 0 -19 -30 -27
-48 -13 -13 11 -14 10 -10 -2 6 -20 35 -25 53 -10 10 8 15 32 15 69 0 53 -2
57 -24 59 -14 1 -32 -5 -40 -14z m48 -17 c8 -12 8 -22 0 -34 -16 -25 -38 -22
-42 5 -7 50 18 67 42 29z"/>
<path d="M2366 5254 c-9 -8 -16 -24 -16 -34 0 -19 25 -50 40 -50 17 0 40 13
40 22 0 6 -6 5 -15 -2 -18 -15 -45 -6 -45 15 0 10 10 15 35 15 29 0 33 3 28
18 -13 34 -42 41 -67 16z m52 -11 c2 -8 -6 -13 -22 -13 -25 0 -33 10 -19 24
10 10 36 3 41 -11z"/>
<path d="M2622 5216 c1 -42 2 -45 5 -14 4 39 28 67 43 52 5 -5 11 -27 13 -49
3 -33 4 -31 3 10 -1 49 -1 50 -33 51 l-33 1 2 -51z"/>
<path d="M2727 5264 c-13 -13 -7 -27 7 -15 14 12 46 5 46 -10 0 -5 -15 -12
-32 -17 -23 -6 -33 -14 -33 -28 0 -15 7 -19 38 -19 l38 -1 -3 46 c-3 40 -6 45
-28 48 -14 2 -29 0 -33 -4z m43 -69 c-7 -8 -19 -15 -26 -15 -8 0 -14 7 -14 15
0 10 10 15 26 15 22 0 25 -2 14 -15z"/>
<path d="M2993 5220 c0 -30 2 -43 4 -27 2 15 2 39 0 55 -2 15 -4 2 -4 -28z"/>
<path d="M3043 5262 c-12 -8 -18 -31 -15 -64 4 -34 72 -30 72 4 0 5 -7 2 -16
-7 -23 -22 -38 -14 -42 22 -3 34 21 51 44 32 9 -7 14 -8 14 -1 0 18 -37 27
-57 14z"/>
<path d="M3122 5258 c-14 -17 -4 -33 26 -42 12 -4 22 -11 22 -16 0 -15 -21
-23 -33 -11 -17 17 -31 13 -17 -4 16 -20 44 -19 61 1 11 14 10 18 -6 30 -10 8
-25 14 -32 14 -7 0 -13 7 -13 15 0 18 21 20 39 3 11 -11 13 -10 9 2 -6 20 -42
25 -56 8z"/>
<path d="M2000 5070 c-54 -54 12 -136 81 -100 11 6 19 21 19 35 0 21 -5 25
-27 24 -17 -1 -21 -3 -10 -6 23 -6 22 -40 -3 -48 -24 -8 -56 9 -62 33 -13 49
37 89 73 56 20 -18 27 -6 7 14 -18 18 -56 14 -78 -8z"/>
<path d="M2350 5087 c0 -2 -11 -31 -24 -65 -14 -34 -21 -62 -16 -62 5 0 12 9
15 20 4 14 15 20 35 20 20 0 31 -6 35 -20 3 -11 10 -20 16 -20 7 0 1 21 -38
118 -4 10 -23 18 -23 9z m25 -54 c5 -19 2 -23 -14 -23 -23 0 -24 3 -15 38 7
26 18 20 29 -15z"/>
<path d="M2620 5025 c0 -37 4 -65 10 -65 6 0 10 28 10 65 0 37 -4 65 -10 65
-6 0 -10 -28 -10 -65z"/>
<path d="M3060 5025 l0 -65 35 0 c63 0 95 57 59 108 -11 16 -25 22 -55 22
l-39 0 0 -65z m71 45 c13 -7 19 -21 19 -45 0 -35 -20 -55 -54 -55 -13 0 -16
12 -16 55 0 59 9 67 51 45z"/>
<path d="M2218 5069 c-8 -25 8 -103 22 -107 12 -4 13 -2 3 9 -15 15 -17 76 -4
81 5 2 3 8 -4 15 -9 8 -15 9 -17 2z"/>
<path d="M2760 5072 c0 -7 -9 -12 -20 -12 -11 0 -20 -4 -20 -9 0 -5 -5 -22
-11 -38 l-11 -28 -18 40 c-23 50 -26 30 -4 -25 15 -38 15 -42 -1 -60 -10 -11
-13 -20 -8 -20 16 0 28 20 49 78 21 61 38 63 42 4 2 -32 7 -42 20 -42 13 0 14
2 4 9 -8 5 -12 25 -11 54 2 26 0 50 -4 53 -4 4 -7 2 -7 -4z"/>
<path d="M3288 5069 c-8 -25 8 -103 22 -107 12 -4 13 -2 3 9 -15 15 -17 76 -4
81 5 2 3 8 -4 15 -9 8 -15 9 -17 2z"/>
<path d="M2133 5052 c-21 -13 -26 -58 -7 -76 19 -20 55 -18 62 4 4 12 3 13
-10 2 -18 -15 -48 -6 -48 14 0 9 12 14 35 14 38 0 44 10 19 34 -17 17 -32 20
-51 8z m45 -19 c2 -8 -6 -13 -22 -13 -25 0 -33 10 -19 24 10 10 36 3 41 -11z"/>
<path d="M2432 5006 c1 -42 2 -45 5 -14 4 39 28 67 43 52 5 -5 11 -27 13 -49
3 -33 4 -31 3 10 -1 49 -1 50 -33 51 l-33 1 2 -51z"/>
<path d="M2537 5054 c-13 -13 -7 -27 7 -15 14 12 46 5 46 -10 0 -5 -15 -12
-32 -17 -23 -6 -33 -14 -33 -28 0 -15 7 -19 38 -19 l38 -1 -3 46 c-3 40 -6 45
-28 48 -14 2 -29 0 -33 -4z m43 -69 c-7 -8 -19 -15 -26 -15 -8 0 -14 7 -14 15
0 10 10 15 26 15 22 0 25 -2 14 -15z"/>
<path d="M2803 5010 c0 -30 2 -43 4 -27 2 15 2 39 0 55 -2 15 -4 2 -4 -28z"/>
<path d="M2853 5052 c-12 -8 -18 -31 -15 -64 4 -34 72 -30 72 4 0 5 -7 2 -16
-7 -23 -22 -38 -14 -42 22 -3 34 21 51 44 32 9 -7 14 -8 14 -1 0 18 -37 27
-57 14z"/>
<path d="M2932 5048 c-14 -17 -4 -33 26 -42 12 -4 22 -11 22 -16 0 -15 -21
-23 -33 -11 -17 17 -31 13 -17 -4 16 -20 44 -19 61 1 11 14 10 18 -6 30 -10 8
-25 14 -32 14 -7 0 -13 7 -13 15 0 18 21 20 39 3 11 -11 13 -10 9 2 -6 20 -42
25 -56 8z"/>
<path d="M3197 5054 c-14 -14 -7 -26 8 -14 16 13 45 7 45 -10 0 -6 -13 -13
-29 -16 -55 -11 -44 -54 12 -51 27 2 28 4 25 47 -3 40 -6 45 -28 48 -14 2 -29
0 -33 -4z m41 -70 c-16 -16 -38 -12 -38 6 0 8 41 19 49 13 3 -2 -2 -11 -11
-19z"/>
<path d="M3340 5045 c-15 -18 1 -20 18 -3 9 9 15 9 24 0 14 -14 3 -28 -27 -34
-12 -2 -20 -11 -20 -23 0 -16 7 -20 38 -20 36 -1 37 0 37 35 0 55 -40 81 -70
45z m50 -50 c0 -20 -28 -31 -42 -17 -10 10 8 23 40 31 1 1 2 -6 2 -14z"/>
<path d="M5172 4335 c-27 -55 -27 -58 -3 -46 18 10 19 5 26 -102 4 -61 5 -178
3 -260 l-3 -147 777 0 778 0 3 -1312 2 -1313 0 1315 0 1315 -772 3 -773 2 0
255 c0 253 0 256 20 245 11 -6 20 -8 20 -6 0 11 -44 96 -50 96 -3 0 -16 -20
-28 -45z"/>
<path d="M3310 1910 l0 -1380 1380 0 1380 0 2 313 3 312 335 5 335 5 -337 3
-338 2 0 1060 0 1060 -1380 0 -1380 0 0 -1380z m2750 315 l0 -1055 -272 -2
-273 -3 273 -2 272 -3 0 -310 0 -310 -1370 0 -1370 0 0 1370 0 1370 1370 0
1370 0 0 -1055z"/>
<path d="M4490 2800 c0 -33 4 -60 10 -60 6 0 10 11 10 24 0 37 17 40 35 6 8
-16 20 -30 25 -30 15 0 12 12 -10 45 -19 29 -19 29 2 52 18 19 19 23 5 23 -8
0 -25 -12 -36 -26 l-21 -27 0 27 c0 14 -4 26 -10 26 -6 0 -10 -27 -10 -60z"/>
<path d="M4700 2846 c0 -8 -6 -17 -12 -20 -10 -5 -10 -7 0 -12 6 -3 12 -21 12
-40 0 -19 5 -34 10 -34 8 0 14 41 13 88 -1 6 3 12 8 12 5 0 9 5 9 10 0 6 -9
10 -20 10 -11 0 -20 -6 -20 -14z"/>
<path d="M4750 2800 c0 -33 4 -60 10 -60 6 0 10 10 11 23 l0 22 16 -22 c22
-33 36 -28 19 6 -11 21 -12 31 -4 39 17 17 1 27 -17 12 -13 -11 -15 -9 -15 14
0 14 -4 26 -10 26 -6 0 -10 -27 -10 -60z"/>
<path d="M4607 2823 c-15 -14 -5 -23 21 -18 l27 5 -28 -12 c-40 -17 -34 -52
11 -55 29 -1 32 1 32 27 0 16 -3 35 -6 44 -6 16 -45 22 -57 9z m38 -53 c-3 -5
-10 -10 -16 -10 -5 0 -9 5 -9 10 0 6 7 10 16 10 8 0 12 -4 9 -10z"/>
<path d="M4847 2824 c-14 -14 -7 -22 16 -17 19 3 18 2 -6 -12 -39 -22 -32 -50
11 -50 32 -1 33 0 30 40 -2 31 -7 41 -23 43 -12 2 -24 0 -28 -4z m33 -54 c0
-5 -7 -10 -16 -10 -8 0 -12 5 -9 10 3 6 10 10 16 10 5 0 9 -4 9 -10z"/>
<path d="M4000 1910 l0 -320 755 0 755 0 0 320 0 320 -755 0 -755 0 0 -320z
m1500 5 l0 -305 -745 0 -745 0 0 305 0 305 745 0 745 0 0 -305z"/>
<path d="M4441 1913 c1 -32 4 -48 6 -35 3 15 11 22 28 22 13 0 28 8 34 17 15
27 -5 53 -39 53 -30 0 -30 0 -29 -57z m54 22 c0 -5 -10 -11 -22 -13 -16 -2
-23 2 -23 13 0 11 7 15 23 13 12 -2 22 -7 22 -13z"/>
<path d="M4740 1952 c0 -13 -7 -18 -21 -18 -12 1 -26 -7 -33 -16 -15 -25 4
-53 38 -54 25 -1 26 1 26 52 0 30 -2 54 -5 54 -3 0 -5 -8 -5 -18z m-5 -52 c0
-8 -8 -16 -17 -18 -13 -2 -18 3 -18 18 0 15 5 20 18 18 9 -2 17 -10 17 -18z"/>
<path d="M4946 1942 c-9 -15 17 -82 31 -82 7 0 13 5 13 10 0 6 -4 10 -10 10
-14 0 -12 37 3 43 9 4 8 8 -3 16 -18 13 -27 14 -34 3z"/>
<path d="M4541 1895 c2 -31 3 -34 6 -12 3 16 11 31 19 34 21 8 17 22 -6 20
-17 -1 -20 -8 -19 -42z"/>
<path d="M4600 1925 c-26 -32 13 -81 48 -59 34 22 22 74 -18 74 -10 0 -23 -7
-30 -15z m50 -25 c0 -11 -6 -20 -14 -20 -18 0 -29 16 -21 30 11 18 35 11 35
-10z"/>
<path d="M4783 1905 c2 -38 4 -40 35 -42 31 -1 32 0 32 38 0 44 -17 54 -22 12
-4 -39 -26 -40 -37 -1 l-10 33 2 -40z"/>
<path d="M4874 1926 c-3 -8 -4 -25 -2 -38 4 -27 39 -36 57 -14 11 13 8 15 -16
13 -19 -1 -28 3 -28 13 0 9 9 15 23 14 28 -1 23 20 -6 24 -13 2 -25 -3 -28
-12z"/>
<path d="M5007 1933 c-15 -14 -5 -33 21 -40 l27 -7 -30 -6 c-26 -6 -27 -8 -11
-15 20 -9 47 3 48 20 0 6 -10 16 -23 22 l-24 13 23 0 c13 0 20 4 17 10 -7 11
-38 13 -48 3z"/>
<path d="M4000 1100 l0 -320 755 0 755 0 0 320 0 320 -755 0 -755 0 0 -320z
m1500 0 l0 -310 -745 0 -745 0 0 310 0 310 745 0 745 0 0 -310z"/>
<path d="M4523 1134 c-15 -24 -15 -29 -2 -53 29 -51 89 -35 89 23 0 59 -55 78
-87 30z m66 -13 c13 -24 -8 -55 -35 -49 -20 3 -30 29 -20 54 8 20 43 17 55 -5z"/>
<path d="M4740 1142 c0 -13 -7 -18 -22 -18 -20 1 -23 -4 -23 -34 0 -32 2 -35
33 -37 l32 -1 0 54 c0 30 -4 54 -10 54 -5 0 -10 -8 -10 -18z m0 -52 c0 -21
-24 -28 -35 -10 -8 14 3 30 21 30 8 0 14 -9 14 -20z"/>
<path d="M4630 1089 c0 -22 5 -39 10 -39 6 0 10 14 10 30 0 20 5 30 15 30 8 0
15 4 15 9 0 5 -11 9 -25 9 -22 0 -25 -5 -25 -39z"/>
<path d="M4787 1123 c-4 -3 -7 -19 -7 -35 0 -31 20 -45 48 -33 15 7 14 9 -8
15 l-25 8 28 1 c30 1 32 4 17 32 -10 19 -40 26 -53 12z m40 -19 c-3 -3 -12 -4
-19 -1 -8 3 -5 6 6 6 11 1 17 -2 13 -5z"/>
<path d="M4871 1085 c2 -31 3 -34 6 -12 3 16 11 31 19 34 21 8 17 22 -6 20
-17 -1 -20 -8 -19 -42z"/>
<path d="M4927 1123 c-15 -14 -5 -33 21 -40 l27 -7 -30 -6 c-26 -6 -27 -8 -11
-15 20 -9 47 3 48 20 0 6 -10 16 -23 22 l-24 13 23 0 c13 0 20 4 17 10 -7 11
-38 13 -48 3z"/>
<path d="M7157 2832 c-21 -23 -22 -76 -1 -96 29 -29 84 -14 84 22 0 9 -6 6
-18 -8 -34 -43 -85 2 -67 59 9 29 42 37 66 15 20 -18 27 -6 7 14 -18 18 -53
15 -71 -6z"/>
<path d="M8240 2830 c0 -17 -5 -19 -24 -14 -18 4 -27 1 -35 -14 -23 -43 -7
-75 38 -78 l31 -2 0 64 c0 35 -2 64 -5 64 -3 0 -5 -9 -5 -20z m-6 -43 c8 -12
8 -22 0 -34 -16 -25 -38 -22 -42 5 -7 50 18 67 42 29z"/>
<path d="M8630 2830 c0 -17 -5 -19 -24 -14 -18 4 -27 1 -35 -14 -23 -43 -7
-75 38 -78 l31 -2 0 64 c0 35 -2 64 -5 64 -3 0 -5 -9 -5 -20z m-6 -43 c8 -12
8 -22 0 -34 -16 -25 -38 -22 -42 5 -7 50 18 67 42 29z"/>
<path d="M8769 2836 c-2 -10 -2 -41 -1 -67 3 -38 8 -49 20 -48 11 0 12 2 5 6
-8 2 -13 22 -13 44 0 24 5 39 13 39 8 0 9 3 1 8 -6 4 -13 14 -16 22 -4 12 -6
11 -9 -4z"/>
<path d="M8953 2785 c0 -38 2 -53 4 -32 2 20 2 52 0 70 -2 17 -4 1 -4 -38z"/>
<path d="M9127 2830 c-9 -11 -12 -20 -7 -20 6 0 11 -21 12 -47 l1 -48 4 45 c3
24 10 48 16 52 9 6 8 8 -2 8 -11 0 -11 3 -1 15 7 8 8 15 3 15 -5 0 -16 -9 -26
-20z"/>
<path d="M7276 2804 c-9 -8 -16 -24 -16 -34 0 -21 25 -50 43 -50 25 0 40 19
40 50 0 47 -36 65 -67 34z m38 0 c32 -12 15 -74 -19 -74 -14 0 -25 42 -15 60
12 22 12 22 34 14z"/>
<path d="M7360 2769 c0 -60 18 -65 22 -6 2 29 8 42 18 42 10 0 16 -13 18 -42
4 -54 22 -57 22 -4 0 44 -13 59 -52 59 -27 0 -28 -3 -28 -49z"/>
<path d="M7463 2804 c-7 -18 20 -44 44 -44 7 0 13 -5 13 -10 0 -17 -29 -23
-45 -10 -10 8 -15 9 -15 2 0 -17 19 -24 46 -18 36 9 31 41 -8 55 -24 9 -29 14
-20 23 9 9 15 9 24 0 17 -17 33 -15 18 3 -17 20 -49 19 -57 -1z"/>
<path d="M7554 2775 c1 -49 1 -50 34 -50 l32 -1 -2 51 c-1 42 -2 44 -5 13 -4
-39 -28 -67 -43 -52 -5 5 -11 27 -13 49 -3 33 -4 31 -3 -10z"/>
<path d="M7640 2769 c0 -60 18 -65 22 -6 4 60 31 58 39 -3 6 -43 6 -43 7 -9 3
72 46 71 55 -1 4 -34 4 -34 5 7 2 50 -7 58 -75 59 l-53 1 0 -48z"/>
<path d="M7802 2808 c-7 -7 -12 -24 -12 -38 0 -46 43 -67 70 -35 15 18 -1 20
-18 3 -8 -8 -15 -8 -27 2 -24 20 -18 30 20 30 22 0 35 5 35 13 0 18 -21 37
-40 37 -9 0 -21 -5 -28 -12z m46 -16 c2 -7 -7 -12 -22 -12 -27 0 -35 15 -13
23 17 7 30 3 35 -11z"/>
<path d="M7897 2814 c-16 -16 -6 -42 18 -48 14 -4 25 -11 25 -16 0 -15 -21
-23 -33 -11 -17 17 -31 13 -17 -4 16 -20 44 -19 61 1 11 14 10 18 -6 30 -10 8
-25 14 -32 14 -7 0 -13 4 -13 9 0 18 21 23 37 9 14 -11 16 -11 11 2 -5 16 -39
25 -51 14z"/>
<path d="M8031 2806 c-31 -37 9 -103 47 -80 36 23 23 94 -18 94 -10 0 -23 -6
-29 -14z m47 -8 c28 -28 -3 -83 -33 -58 -8 7 -15 20 -15 29 0 17 18 41 30 41
3 0 11 -5 18 -12z"/>
<path d="M8120 2768 c0 -26 5 -48 10 -48 6 0 10 18 10 40 0 27 6 42 18 49 14
9 13 10 -10 9 -26 -2 -28 -5 -28 -50z"/>
<path d="M8286 2804 c-9 -8 -16 -24 -16 -34 0 -19 25 -50 40 -50 17 0 40 13
40 22 0 6 -6 5 -15 -2 -18 -15 -45 -6 -45 15 0 10 10 15 35 15 29 0 33 3 28
18 -13 34 -42 41 -67 16z m52 -11 c2 -8 -6 -13 -22 -13 -25 0 -33 10 -19 24
10 10 36 3 41 -11z"/>
<path d="M8370 2769 c0 -27 5 -49 10 -49 6 0 10 18 10 40 0 26 6 42 17 48 13
8 11 10 -10 10 -26 0 -27 -3 -27 -49z"/>
<path d="M8433 2804 c-7 -18 20 -44 44 -44 7 0 13 -5 13 -10 0 -17 -29 -23
-45 -10 -10 8 -15 9 -15 2 0 -17 19 -24 46 -18 36 9 31 41 -8 55 -24 9 -29 14
-20 23 9 9 15 9 24 0 17 -17 33 -15 18 3 -17 20 -49 19 -57 -1z"/>
<path d="M8676 2804 c-9 -8 -16 -24 -16 -34 0 -19 25 -50 40 -50 17 0 40 13
40 22 0 6 -6 5 -15 -2 -18 -15 -45 -6 -45 15 0 10 10 15 35 15 29 0 33 3 28
18 -13 34 -42 41 -67 16z m52 -11 c2 -8 -6 -13 -22 -13 -25 0 -33 10 -19 24
10 10 36 3 41 -11z"/>
<path d="M8823 2813 c-7 -2 -13 -9 -13 -15 0 -6 6 -6 15 2 17 14 49 6 43 -12
-3 -7 -15 -15 -29 -18 -15 -4 -24 -13 -24 -25 0 -16 7 -20 38 -22 33 -1 37 2
37 22 0 59 -26 85 -67 68z m36 -74 c-17 -10 -31 -7 -36 8 -5 13 40 22 46 9 2
-4 -3 -12 -10 -17z"/>
<path d="M8913 2770 c0 -30 2 -43 4 -27 2 15 2 39 0 55 -2 15 -4 2 -4 -28z"/>
<path d="M8992 2808 c-14 -17 -4 -33 26 -42 12 -4 22 -11 22 -16 0 -15 -21
-23 -33 -11 -17 17 -31 13 -17 -4 16 -20 44 -19 61 1 11 14 10 18 -6 30 -10 8
-25 14 -32 14 -7 0 -13 7 -13 15 0 18 21 20 39 3 11 -11 13 -10 9 2 -6 20 -42
25 -56 8z"/>
<path d="M9170 2768 c0 -26 5 -48 10 -48 6 0 10 18 10 40 0 27 6 42 18 49 14
9 13 10 -10 9 -26 -2 -28 -5 -28 -50z"/>
<path d="M9236 2804 c-9 -8 -16 -24 -16 -34 0 -22 25 -50 45 -50 20 0 45 28
45 50 0 22 -25 50 -45 50 -7 0 -21 -7 -29 -16z m49 -34 c0 -28 -4 -35 -20 -35
-13 0 -21 8 -23 23 -5 34 5 54 25 50 13 -2 18 -13 18 -38z"/>
<path d="M9332 2766 c1 -47 2 -48 5 -11 7 67 43 71 43 4 0 -53 18 -50 22 4 4
60 31 58 39 -3 l7 -45 -2 50 -1 50 -57 1 -58 0 2 -50z"/>
<path d="M8030 2630 c0 -5 5 -10 10 -10 6 0 10 5 10 10 0 6 -4 10 -10 10 -5 0
-10 -4 -10 -10z"/>
<path d="M8200 2628 c0 -7 5 -20 10 -28 8 -12 10 -9 10 13 0 15 -4 27 -10 27
-5 0 -10 -6 -10 -12z"/>
<path d="M8230 2620 c0 -11 5 -20 10 -20 6 0 10 9 10 20 0 11 -4 20 -10 20 -5
0 -10 -9 -10 -20z"/>
<path d="M8480 2620 c0 -13 -5 -18 -15 -14 -22 9 -45 -14 -45 -46 0 -33 16
-48 53 -48 27 0 27 1 27 64 0 36 -4 64 -10 64 -5 0 -10 -9 -10 -20z m-2 -54
c4 -36 -12 -54 -33 -36 -18 15 -20 41 -3 58 18 18 33 9 36 -22z"/>
<path d="M8760 2613 c0 -22 2 -25 10 -13 13 20 13 40 0 40 -5 0 -10 -12 -10
-27z"/>
<path d="M8792 2615 c0 -16 2 -22 5 -12 2 9 2 23 0 30 -3 6 -5 -1 -5 -18z"/>
<path d="M7788 2619 c-8 -25 8 -103 22 -107 12 -4 13 -2 3 9 -15 15 -17 76 -4
81 5 2 3 8 -4 15 -9 8 -15 9 -17 2z"/>
<path d="M7846 2594 c-9 -8 -16 -24 -16 -34 0 -21 25 -50 43 -50 25 0 40 19
40 50 0 47 -36 65 -67 34z m38 0 c32 -12 15 -74 -19 -74 -14 0 -25 42 -15 60
12 22 12 22 34 14z"/>
<path d="M7930 2539 c0 -39 4 -69 10 -69 6 0 10 11 10 25 0 18 4 23 15 19 22
-9 45 14 45 46 0 33 -16 48 -52 48 -28 0 -28 -1 -28 -69z m64 38 c8 -12 8 -22
0 -34 -16 -25 -38 -22 -42 5 -7 50 18 67 42 29z"/>
<path d="M8030 2560 c0 -27 5 -50 10 -50 6 0 10 23 10 50 0 28 -4 50 -10 50
-5 0 -10 -22 -10 -50z"/>
<path d="M8083 2602 c-12 -8 -18 -31 -15 -64 4 -34 72 -30 72 4 0 5 -7 2 -16
-7 -23 -22 -38 -14 -42 22 -3 34 21 51 44 32 9 -7 14 -8 14 -1 0 18 -37 27
-57 14z"/>
<path d="M8276 2594 c-9 -8 -16 -24 -16 -34 0 -21 25 -50 43 -50 25 0 40 19
40 50 0 47 -36 65 -67 34z m38 0 c32 -12 15 -74 -19 -74 -14 0 -25 42 -15 60
12 22 12 22 34 14z"/>
<path d="M8360 2559 c0 -27 5 -49 10 -49 6 0 10 18 10 40 0 26 6 42 17 48 13
8 11 10 -10 10 -26 0 -27 -3 -27 -49z"/>
<path d="M8532 2598 c-7 -7 -12 -24 -12 -38 0 -46 43 -67 70 -35 15 18 -1 20
-18 3 -8 -8 -15 -8 -27 2 -24 20 -18 30 20 30 22 0 35 5 35 13 0 18 -21 37
-40 37 -9 0 -21 -5 -28 -12z m46 -16 c2 -7 -7 -12 -22 -12 -27 0 -35 15 -13
23 17 7 30 3 35 -11z"/>
<path d="M8622 2555 c1 -46 2 -47 5 -10 2 22 11 45 20 52 13 10 13 12 -6 10
-19 -1 -21 -7 -19 -52z"/>
<path d="M8682 2598 c-14 -17 -4 -33 26 -42 12 -4 22 -11 22 -16 0 -15 -21
-23 -33 -11 -17 17 -31 13 -17 -4 16 -20 44 -19 61 1 11 14 10 18 -6 30 -10 8
-25 14 -32 14 -7 0 -13 7 -13 15 0 18 21 20 39 3 11 -11 13 -10 9 2 -6 20 -42
25 -56 8z"/>
<path d="M8580 2410 c0 -13 -5 -18 -15 -14 -22 9 -45 -14 -45 -46 0 -33 16
-48 53 -48 27 0 27 1 27 64 0 36 -4 64 -10 64 -5 0 -10 -9 -10 -20z m-2 -54
c4 -36 -12 -54 -33 -36 -18 15 -20 41 -3 58 18 18 33 9 36 -22z"/>
<path d="M9103 2365 c0 -38 2 -53 4 -32 2 20 2 52 0 70 -2 17 -4 1 -4 -38z"/>
<path d="M9480 2410 c0 -17 -5 -19 -24 -14 -18 4 -27 1 -35 -14 -23 -43 -7
-75 38 -78 l31 -2 0 64 c0 35 -2 64 -5 64 -3 0 -5 -9 -5 -20z m-6 -43 c8 -12
8 -22 0 -34 -16 -25 -38 -22 -42 5 -7 50 18 67 42 29z"/>
<path d="M7150 2385 c-15 -18 1 -20 18 -3 9 9 15 9 24 0 14 -14 3 -28 -27 -34
-12 -2 -20 -11 -20 -23 0 -16 7 -20 38 -20 36 -1 37 0 37 35 0 55 -40 81 -70
45z m50 -50 c0 -20 -28 -31 -42 -17 -10 10 8 23 40 31 1 1 2 -6 2 -14z"/>
<path d="M7243 2384 c-7 -18 20 -44 44 -44 7 0 13 -5 13 -10 0 -17 -29 -23
-45 -10 -10 8 -15 9 -15 2 0 -17 19 -24 46 -18 36 9 31 41 -8 55 -24 9 -29 14
-20 23 9 9 15 9 24 0 17 -17 33 -15 18 3 -17 20 -49 19 -57 -1z"/>
<path d="M7382 2388 c-14 -17 -4 -33 26 -42 12 -4 22 -11 22 -16 0 -15 -21
-23 -33 -11 -17 17 -31 13 -17 -4 16 -20 44 -19 61 1 11 14 10 18 -6 30 -10 8
-25 14 -32 14 -7 0 -13 7 -13 15 0 18 21 20 39 3 11 -11 13 -10 9 2 -6 20 -42
25 -56 8z"/>
<path d="M7471 2386 c-31 -37 9 -103 47 -80 36 23 23 94 -18 94 -10 0 -23 -6
-29 -14z m47 -8 c28 -28 -3 -83 -33 -58 -8 7 -15 20 -15 29 0 17 18 41 30 41
3 0 11 -5 18 -12z"/>
<path d="M7571 2386 c-31 -37 9 -103 47 -80 36 23 23 94 -18 94 -10 0 -23 -6
-29 -14z m47 -8 c28 -28 -3 -83 -33 -58 -8 7 -15 20 -15 29 0 17 18 41 30 41
3 0 11 -5 18 -12z"/>
<path d="M7662 2346 c1 -42 2 -45 5 -14 4 39 28 67 43 52 5 -5 11 -27 13 -49
3 -33 4 -31 3 10 -1 49 -1 50 -33 51 l-33 1 2 -51z"/>
<path d="M7817 2394 c-13 -13 -7 -27 7 -15 14 12 46 5 46 -10 0 -5 -15 -12
-32 -17 -23 -6 -33 -14 -33 -28 0 -15 7 -19 38 -19 l38 -1 -3 46 c-3 40 -6 45
-28 48 -14 2 -29 0 -33 -4z m43 -69 c-7 -8 -19 -15 -26 -15 -8 0 -14 7 -14 15
0 10 10 15 26 15 22 0 25 -2 14 -15z"/>
<path d="M7903 2384 c-7 -18 20 -44 44 -44 7 0 13 -5 13 -10 0 -17 -29 -23
-45 -10 -10 8 -15 9 -15 2 0 -17 19 -24 46 -18 36 9 31 41 -8 55 -24 9 -29 14
-20 23 9 9 15 9 24 0 17 -17 33 -15 18 3 -17 20 -49 19 -57 -1z"/>
<path d="M8047 2394 c-14 -14 -7 -26 8 -14 16 13 45 7 45 -10 0 -6 -13 -13
-29 -16 -55 -11 -44 -54 12 -51 27 2 28 4 25 47 -3 40 -6 45 -28 48 -14 2 -29
0 -33 -4z m41 -70 c-16 -16 -38 -12 -38 6 0 8 41 19 49 13 3 -2 -2 -11 -11
-19z"/>
<path d="M8142 2346 c1 -50 2 -50 5 -8 2 23 8 43 14 44 30 4 34 0 40 -42 l7
-45 -2 50 c-1 49 -1 50 -33 51 l-33 1 2 -51z"/>
<path d="M8231 2393 c-1 -7 6 -31 15 -53 15 -38 15 -42 -1 -60 -10 -11 -13
-20 -8 -20 16 0 27 19 51 83 12 31 17 57 12 57 -6 0 -10 -4 -10 -9 0 -5 -5
-22 -11 -38 l-11 -28 -18 40 c-10 22 -19 34 -19 28z"/>
<path d="M8376 2384 c-9 -8 -16 -24 -16 -34 0 -22 25 -50 45 -50 20 0 45 28
45 50 0 22 -25 50 -45 50 -7 0 -21 -7 -29 -16z m49 -34 c0 -28 -4 -35 -20 -35
-13 0 -21 8 -23 23 -5 34 5 54 25 50 13 -2 18 -13 18 -38z"/>
<path d="M8472 2345 c1 -46 2 -47 5 -10 2 22 11 45 20 52 13 10 13 12 -6 10
-19 -1 -21 -7 -19 -52z"/>
<path d="M8632 2388 c-7 -7 -12 -24 -12 -38 0 -46 43 -67 70 -35 15 18 -1 20
-18 3 -8 -8 -15 -8 -27 2 -24 20 -18 30 20 30 22 0 35 5 35 13 0 18 -21 37
-40 37 -9 0 -21 -5 -28 -12z m46 -16 c2 -7 -7 -12 -22 -12 -27 0 -35 15 -13
23 17 7 30 3 35 -11z"/>
<path d="M8722 2345 c1 -46 2 -47 5 -10 2 22 11 45 20 52 13 10 13 12 -6 10
-19 -1 -21 -7 -19 -52z"/>
<path d="M8833 2350 c0 -30 2 -43 4 -27 2 15 2 39 0 55 -2 15 -4 2 -4 -28z"/>
<path d="M8872 2388 c-14 -17 -4 -33 26 -42 12 -4 22 -11 22 -16 0 -15 -21
-23 -33 -11 -17 17 -31 13 -17 -4 16 -20 44 -19 61 1 11 14 10 18 -6 30 -10 8
-25 14 -32 14 -7 0 -13 7 -13 15 0 18 21 20 39 3 11 -11 13 -10 9 2 -6 20 -42
25 -56 8z"/>
<path d="M9000 2328 c0 -39 4 -68 10 -68 6 0 10 11 10 25 0 18 4 23 15 19 22
-9 45 14 45 46 0 34 -17 49 -52 47 -28 -2 -28 -3 -28 -69z m64 39 c12 -18 0
-47 -22 -55 -19 -6 -34 35 -22 59 13 23 28 21 44 -4z"/>
<path d="M9147 2394 c-13 -13 -7 -27 7 -15 14 12 46 5 46 -10 0 -5 -15 -12
-32 -17 -23 -6 -33 -14 -33 -28 0 -15 7 -19 38 -19 l38 -1 -3 46 c-3 40 -6 45
-28 48 -14 2 -29 0 -33 -4z m43 -69 c-7 -8 -19 -15 -26 -15 -8 0 -14 7 -14 15
0 10 10 15 26 15 22 0 25 -2 14 -15z"/>
<path d="M9242 2388 c-15 -15 -16 -60 0 -76 18 -18 46 -14 58 8 13 24 2 27
-15 3 -11 -15 -15 -15 -29 -4 -20 17 -21 45 -1 61 12 10 18 10 32 -1 14 -12
16 -12 11 1 -6 19 -40 24 -56 8z"/>
<path d="M9332 2388 c-7 -7 -12 -24 -12 -38 0 -46 43 -67 70 -35 15 18 -1 20
-18 3 -8 -8 -15 -8 -27 2 -24 20 -18 30 20 30 22 0 35 5 35 13 0 18 -21 37
-40 37 -9 0 -21 -5 -28 -12z m46 -16 c2 -7 -7 -12 -22 -12 -27 0 -35 15 -13
23 17 7 30 3 35 -11z"/>
<path d="M7520 2200 c0 -17 -5 -19 -24 -14 -18 4 -27 1 -35 -14 -23 -43 -7
-75 38 -78 l31 -2 0 64 c0 35 -2 64 -5 64 -3 0 -5 -9 -5 -20z m-6 -43 c8 -12
8 -22 0 -34 -16 -25 -38 -22 -42 5 -7 50 18 67 42 29z"/>
<path d="M7670 2200 c0 -17 -5 -19 -25 -14 -20 5 -27 1 -36 -20 -19 -40 2 -77
41 -74 30 2 30 2 30 65 0 35 -2 63 -5 63 -3 0 -5 -9 -5 -20z m-6 -43 c12 -18
0 -47 -22 -55 -19 -6 -34 35 -22 59 13 23 28 21 44 -4z"/>
<path d="M8623 2155 c0 -38 2 -53 4 -32 2 20 2 52 0 70 -2 17 -4 1 -4 -38z"/>
<path d="M8751 2209 c-1 -9 -10 -19 -20 -22 -11 -3 -22 -17 -26 -36 -6 -28
-25 -44 -25 -22 0 18 -21 64 -26 58 -3 -2 2 -22 10 -42 18 -43 21 -75 6 -75
-5 0 -10 -5 -10 -11 0 -28 25 3 45 56 27 75 45 83 45 21 0 -37 3 -46 18 -45
10 0 12 3 5 6 -8 2 -13 22 -13 44 0 24 5 39 13 39 8 0 9 3 1 8 -6 4 -14 14
-17 22 -4 13 -6 12 -6 -1z"/>
<path d="M8790 2210 c0 -5 5 -10 10 -10 6 0 10 5 10 10 0 6 -4 10 -10 10 -5 0
-10 -4 -10 -10z"/>
<path d="M9310 2200 c0 -17 -5 -19 -24 -14 -18 4 -27 1 -35 -14 -23 -43 -7
-75 38 -78 l31 -2 0 64 c0 35 -2 64 -5 64 -3 0 -5 -9 -5 -20z m-6 -43 c8 -12
8 -22 0 -34 -16 -25 -38 -22 -42 5 -7 50 18 67 42 29z"/>
<path d="M7277 2184 c-13 -13 -7 -27 7 -15 14 12 46 5 46 -10 0 -5 -15 -12
-32 -17 -23 -6 -33 -14 -33 -28 0 -15 7 -19 38 -19 l38 -1 -3 46 c-3 40 -6 45
-28 48 -14 2 -29 0 -33 -4z m43 -69 c-7 -8 -19 -15 -26 -15 -8 0 -14 7 -14 15
0 10 10 15 26 15 22 0 25 -2 14 -15z"/>
<path d="M7360 2139 c0 -60 18 -65 22 -6 2 29 8 42 18 42 10 0 16 -13 18 -42
4 -54 22 -57 22 -4 0 44 -13 59 -52 59 -27 0 -28 -3 -28 -49z"/>
<path d="M7711 2176 c-31 -37 9 -103 47 -80 36 23 23 94 -18 94 -10 0 -23 -6
-29 -14z m47 -8 c28 -28 -3 -83 -33 -58 -8 7 -15 20 -15 29 0 17 18 41 30 41
3 0 11 -5 18 -12z"/>
<path d="M7857 2184 c-16 -16 -6 -42 18 -48 14 -4 25 -11 25 -16 0 -15 -21
-23 -33 -11 -17 17 -31 13 -17 -4 16 -20 44 -19 61 1 11 14 10 18 -6 30 -10 8
-25 14 -32 14 -7 0 -13 4 -13 9 0 18 21 23 37 9 14 -11 16 -11 11 2 -5 16 -39
25 -51 14z"/>
<path d="M7946 2174 c-9 -8 -16 -24 -16 -34 0 -21 25 -50 43 -50 25 0 40 19
40 50 0 47 -36 65 -67 34z m38 0 c32 -12 15 -74 -19 -74 -14 0 -25 42 -15 60
12 22 12 22 34 14z"/>
<path d="M8030 2139 c0 -60 18 -65 22 -6 4 60 31 58 39 -3 6 -43 6 -43 7 -9 3
72 46 71 55 -1 4 -34 4 -34 5 7 2 50 -7 58 -75 59 l-53 1 0 -48z"/>
<path d="M8193 2182 c-21 -13 -26 -58 -7 -76 19 -20 55 -18 62 4 4 12 3 13
-10 2 -18 -15 -48 -6 -48 14 0 9 12 14 35 14 38 0 44 10 19 34 -17 17 -32 20
-51 8z m45 -19 c2 -8 -6 -13 -22 -13 -25 0 -33 10 -19 24 10 10 36 3 41 -11z"/>
<path d="M8337 2184 c-13 -13 -7 -27 7 -15 14 12 46 5 46 -10 0 -5 -15 -12
-32 -17 -23 -6 -33 -14 -33 -28 0 -15 7 -19 38 -19 l38 -1 -3 46 c-3 40 -6 45
-28 48 -14 2 -29 0 -33 -4z m43 -69 c-7 -8 -19 -15 -26 -15 -8 0 -14 7 -14 15
0 10 10 15 26 15 22 0 25 -2 14 -15z"/>
<path d="M8420 2139 c0 -60 18 -65 22 -6 2 29 8 42 18 42 10 0 16 -13 18 -42
4 -54 22 -57 22 -4 0 44 -13 59 -52 59 -27 0 -28 -3 -28 -49z"/>
<path d="M8533 2183 c-7 -2 -13 -9 -13 -15 0 -6 6 -6 15 2 17 14 49 6 43 -12
-3 -7 -15 -15 -29 -18 -15 -4 -24 -13 -24 -25 0 -16 7 -20 38 -22 33 -1 37 2
37 22 0 59 -26 85 -67 68z m36 -74 c-17 -10 -31 -7 -36 8 -5 13 40 22 46 9 2
-4 -3 -12 -10 -17z"/>
<path d="M8790 2140 c0 -27 5 -50 10 -50 6 0 10 23 10 50 0 28 -4 50 -10 50
-5 0 -10 -22 -10 -50z"/>
<path d="M8842 2178 c-17 -17 -15 -63 3 -78 18 -15 55 -4 55 18 0 13 -2 13
-14 -3 -12 -16 -16 -17 -30 -6 -20 17 -21 45 -1 61 12 10 18 10 32 -1 14 -12
16 -12 11 1 -6 19 -40 24 -56 8z"/>
<path d="M8927 2184 c-16 -16 -6 -42 18 -48 14 -4 25 -11 25 -16 0 -15 -21
-23 -33 -11 -17 17 -31 13 -17 -4 16 -20 44 -19 61 1 11 14 10 18 -6 30 -10 8
-25 14 -32 14 -7 0 -13 4 -13 9 0 18 21 23 37 9 14 -11 16 -11 11 2 -5 16 -39
25 -51 14z"/>
<path d="M9060 2175 c-15 -18 1 -20 18 -3 9 9 15 9 24 0 14 -14 3 -28 -27 -34
-12 -2 -20 -11 -20 -23 0 -16 7 -20 38 -20 36 -1 37 0 37 35 0 55 -40 81 -70
45z m50 -50 c0 -20 -28 -31 -42 -17 -10 10 8 23 40 31 1 1 2 -6 2 -14z"/>
<path d="M9150 2138 c0 -59 18 -64 22 -5 2 29 8 42 18 42 10 0 16 -13 18 -42
4 -50 22 -58 22 -10 0 44 -14 62 -50 62 -29 1 -30 0 -30 -47z"/>
<path d="M7063 1945 c0 -43 2 -54 4 -27 2 23 8 43 14 44 30 4 34 0 40 -42 l7
-45 -2 50 c-1 46 -3 50 -26 50 -16 0 -27 7 -32 20 -3 11 -6 -11 -5 -50z"/>
<path d="M7880 1990 c0 -17 -5 -19 -25 -14 -20 5 -27 1 -36 -20 -19 -40 2 -77
41 -74 30 2 30 2 30 65 0 35 -2 63 -5 63 -3 0 -5 -9 -5 -20z m-6 -43 c12 -18
0 -47 -22 -55 -19 -6 -34 35 -22 59 13 23 28 21 44 -4z"/>
<path d="M8200 2000 c0 -5 5 -10 10 -10 6 0 10 5 10 10 0 6 -4 10 -10 10 -5 0
-10 -4 -10 -10z"/>
<path d="M8680 1945 c0 -37 4 -65 10 -65 6 0 10 12 10 28 l1 27 24 -30 c28
-34 33 -27 9 11 -16 23 -15 26 1 44 22 24 9 27 -17 3 -17 -15 -18 -14 -18 15
0 18 -4 32 -10 32 -6 0 -10 -28 -10 -65z"/>
<path d="M8919 1996 c-2 -10 -2 -41 -1 -67 3 -38 8 -49 20 -48 11 0 12 2 5 6
-8 2 -13 22 -13 44 0 24 5 39 13 39 8 0 9 3 1 8 -6 4 -13 14 -16 22 -4 12 -6
11 -9 -4z"/>
<path d="M9410 1945 l0 -65 34 0 c45 0 66 22 66 70 0 44 -18 60 -69 60 l-31 0
0 -65z m82 32 c4 -7 8 -21 8 -32 0 -29 -12 -43 -43 -50 l-27 -7 0 57 0 57 27
-7 c15 -3 31 -12 35 -18z"/>
<path d="M9540 1944 l0 -65 36 3 c44 4 65 28 47 57 -8 13 -9 21 -1 29 18 18
-10 42 -48 42 l-34 0 0 -66z m54 50 c28 -11 18 -34 -14 -34 -18 0 -30 5 -30
13 0 25 15 32 44 21z m12 -59 c19 -15 19 -15 0 -30 -11 -8 -26 -15 -33 -15
-17 0 -27 25 -19 45 3 8 11 15 19 15 7 0 22 -7 33 -15z"/>
<path d="M7008 1989 c-8 -25 8 -103 22 -107 12 -4 13 -2 3 9 -15 15 -17 61 -4
75 6 5 4 14 -4 21 -9 8 -15 9 -17 2z"/>
<path d="M8008 1989 c-8 -25 8 -103 22 -107 12 -4 13 -2 3 9 -15 15 -17 61 -4
75 6 5 4 14 -4 21 -9 8 -15 9 -17 2z"/>
<path d="M8388 1989 c-8 -25 8 -103 22 -107 12 -4 13 -2 3 9 -15 15 -17 61 -4
75 6 5 4 14 -4 21 -9 8 -15 9 -17 2z"/>
<path d="M7162 1968 c-7 -7 -12 -24 -12 -38 0 -47 43 -67 71 -33 13 15 12 15
-9 4 -18 -10 -27 -10 -38 0 -23 19 -16 29 21 29 22 0 35 5 35 13 0 18 -21 37
-40 37 -9 0 -21 -5 -28 -12z m48 -13 c11 -13 8 -15 -20 -15 -28 0 -31 2 -20
15 7 8 16 15 20 15 4 0 13 -7 20 -15z"/>
<path d="M7250 1928 c0 -59 18 -64 22 -5 2 29 8 42 18 42 10 0 16 -13 18 -42
4 -50 22 -58 22 -10 0 44 -14 62 -50 62 -29 1 -30 0 -30 -47z"/>
<path d="M7402 1968 c-14 -17 -4 -33 26 -42 12 -4 22 -11 22 -16 0 -15 -21
-23 -33 -11 -17 17 -31 13 -17 -4 16 -20 44 -19 61 1 11 14 10 18 -6 30 -10 8
-25 14 -32 14 -7 0 -13 7 -13 15 0 18 21 20 39 3 11 -11 13 -10 9 2 -6 20 -42
25 -56 8z"/>
<path d="M7490 1965 c-15 -18 1 -20 18 -3 9 9 15 9 24 0 14 -14 3 -28 -27 -34
-12 -2 -20 -11 -20 -23 0 -16 7 -20 38 -20 36 -1 37 0 37 35 0 55 -40 81 -70
45z m50 -50 c0 -20 -28 -31 -42 -17 -10 10 8 23 40 31 1 1 2 -6 2 -14z"/>
<path d="M7589 1934 c10 -25 22 -45 27 -44 10 0 32 56 32 80 1 8 -8 -3 -18
-25 l-18 -40 -11 28 c-6 16 -11 33 -11 38 0 5 -4 9 -9 9 -5 0 -1 -21 8 -46z"/>
<path d="M7683 1972 c-21 -13 -26 -58 -7 -76 19 -20 55 -18 62 4 4 12 3 13
-10 2 -18 -15 -48 -6 -48 14 0 9 12 14 35 14 38 0 44 10 19 34 -17 17 -32 20
-51 8z m45 -19 c2 -8 -6 -13 -22 -13 -25 0 -33 10 -19 24 10 10 36 3 41 -11z"/>
<path d="M7923 1973 c-7 -2 -13 -9 -13 -15 0 -6 6 -6 15 2 17 14 49 6 43 -12
-3 -7 -15 -15 -29 -18 -15 -4 -24 -13 -24 -25 0 -16 7 -20 38 -22 33 -1 37 2
37 22 0 59 -26 85 -67 68z m36 -74 c-17 -10 -31 -7 -36 8 -5 13 40 22 46 9 2
-4 -3 -12 -10 -17z"/>
<path d="M8067 1974 c-14 -14 -7 -26 8 -14 16 13 45 7 45 -10 0 -6 -13 -13
-29 -16 -55 -11 -44 -54 12 -51 27 2 28 4 25 47 -3 40 -6 45 -28 48 -14 2 -29
0 -33 -4z m41 -70 c-16 -16 -38 -12 -38 6 0 8 41 19 49 13 3 -2 -2 -11 -11
-19z"/>
<path d="M8200 1930 c0 -27 5 -50 10 -50 6 0 10 23 10 50 0 28 -4 50 -10 50
-5 0 -10 -22 -10 -50z"/>
<path d="M8240 1929 c0 -60 18 -65 22 -6 2 29 8 42 18 42 10 0 16 -13 18 -42
4 -54 22 -57 22 -4 0 44 -13 59 -52 59 -27 0 -28 -3 -28 -49z"/>
<path d="M8442 1925 c1 -46 2 -47 5 -10 2 22 11 45 20 52 13 10 13 12 -6 10
-19 -1 -21 -7 -19 -52z"/>
<path d="M8507 1974 c-13 -13 -7 -27 7 -15 14 12 46 5 46 -10 0 -5 -15 -12
-32 -17 -23 -6 -33 -14 -33 -28 0 -15 7 -19 38 -19 l38 -1 -3 46 c-3 40 -6 45
-28 48 -14 2 -29 0 -33 -4z m43 -69 c-7 -8 -19 -15 -26 -15 -8 0 -14 7 -14 15
0 10 10 15 26 15 22 0 25 -2 14 -15z"/>
<path d="M8602 1968 c-15 -15 -16 -60 0 -76 18 -18 46 -14 58 8 13 24 2 27
-15 3 -11 -15 -15 -15 -29 -4 -20 17 -21 45 -1 61 12 10 18 10 32 -1 14 -12
16 -12 11 1 -6 19 -40 24 -56 8z"/>
<path d="M8832 1968 c-14 -17 -4 -33 26 -42 12 -4 22 -11 22 -16 0 -15 -21
-23 -33 -11 -17 17 -31 13 -17 -4 16 -20 44 -19 61 1 11 14 10 18 -6 30 -10 8
-25 14 -32 14 -7 0 -13 7 -13 15 0 18 21 20 39 3 11 -11 13 -10 9 2 -6 20 -42
25 -56 8z"/>
<path d="M8960 1929 c0 -27 5 -49 10 -49 6 0 10 18 10 40 0 26 6 42 17 48 13
8 11 10 -10 10 -26 0 -27 -3 -27 -49z"/>
<path d="M9032 1968 c-7 -7 -12 -24 -12 -38 0 -46 43 -67 70 -35 15 18 -1 20
-18 3 -8 -8 -15 -8 -27 2 -24 20 -18 30 20 30 22 0 35 5 35 13 0 18 -21 37
-40 37 -9 0 -21 -5 -28 -12z m46 -16 c2 -7 -7 -12 -22 -12 -27 0 -35 15 -13
23 17 7 30 3 35 -11z"/>
<path d="M9127 1974 c-14 -14 -7 -26 8 -14 16 13 45 7 45 -10 0 -6 -13 -13
-29 -16 -55 -11 -44 -54 12 -51 27 2 28 4 25 47 -3 40 -6 45 -28 48 -14 2 -29
0 -33 -4z m41 -70 c-16 -16 -38 -12 -38 6 0 8 41 19 49 13 3 -2 -2 -11 -11
-19z"/>
<path d="M9222 1926 c1 -47 2 -48 5 -11 7 67 43 71 43 4 0 -53 18 -50 22 4 4
60 31 58 39 -3 l7 -45 -2 50 -1 50 -57 1 -58 0 2 -50z"/>
<path d="M8760 1920 c0 -5 11 -10 25 -10 14 0 25 5 25 10 0 6 -11 10 -25 10
-14 0 -25 -4 -25 -10z"/>
</g>
</svg>
