<?xml version="1.0" standalone="no"?>
<!DOCTYPE svg PUBLIC "-//W3C//DTD SVG 20010904//EN"
 "http://www.w3.org/TR/2001/REC-SVG-20010904/DTD/svg10.dtd">
<svg version="1.0" xmlns="http://www.w3.org/2000/svg"
 width="930.000000pt" height="655.000000pt" viewBox="0 0 930.000000 655.000000"
 preserveAspectRatio="xMidYMid meet">

<g transform="translate(0.000000,655.000000) scale(0.100000,-0.100000)"
fill="#000000" stroke="none">
<path d="M3900 6290 c0 -91 3 -110 15 -110 11 0 15 11 15 40 0 40 0 40 39 40
77 0 119 72 71 120 -16 16 -33 20 -80 20 l-60 0 0 -110z m110 55 c19 -22 -5
-45 -46 -45 -31 0 -34 3 -34 30 0 27 3 30 34 30 18 0 39 -7 46 -15z"/>
<path d="M4500 6361 c0 -39 0 -39 -29 -28 -23 9 -34 7 -55 -6 -22 -15 -26 -25
-26 -62 0 -68 41 -101 91 -75 13 7 19 7 19 0 0 -5 9 -10 20 -10 19 0 20 7 20
110 0 103 -1 110 -20 110 -17 0 -20 -7 -20 -39z m-8 -76 c8 -19 8 -31 0 -50
-26 -56 -84 -8 -62 50 6 15 17 25 30 25 12 0 25 -10 32 -25z"/>
<path d="M4948 6379 c-10 -6 -18 -17 -18 -24 0 -8 -4 -15 -10 -15 -5 0 -10 -7
-10 -15 0 -8 5 -15 10 -15 6 0 10 -24 10 -53 0 -29 5 -58 12 -65 17 -17 58
-15 58 3 0 8 -7 15 -15 15 -11 0 -15 12 -15 50 0 38 4 50 15 50 8 0 15 7 15
15 0 8 -6 15 -14 15 -8 0 -16 11 -18 24 -2 20 -6 23 -20 15z"/>
<path d="M4100 6260 c0 -64 3 -80 15 -80 10 0 15 10 15 29 0 58 12 92 36 102
13 4 24 13 24 19 0 14 -33 13 -48 -2 -9 -9 -12 -9 -12 0 0 7 -7 12 -15 12 -12
0 -15 -16 -15 -80z"/>
<path d="M4229 6321 c-18 -14 -24 -29 -24 -60 0 -49 18 -70 67 -78 30 -4 41
-1 62 20 72 72 -26 182 -105 118z m79 -23 c7 -7 12 -24 12 -38 0 -51 -52 -69
-72 -25 -22 49 25 98 60 63z"/>
<path d="M4580 6270 c0 -65 2 -71 25 -82 19 -8 31 -8 50 0 15 7 25 8 25 2 0
-6 9 -10 20 -10 18 0 20 7 20 80 0 73 -2 80 -20 80 -18 0 -20 -7 -20 -54 0
-56 -17 -83 -45 -72 -11 4 -15 21 -15 66 0 53 -2 60 -20 60 -18 0 -20 -7 -20
-70z"/>
<path d="M4779 6321 c-18 -14 -24 -29 -24 -61 0 -32 6 -47 24 -61 28 -23 70
-25 97 -4 16 13 17 16 4 25 -19 13 -30 13 -30 0 0 -14 -33 -13 -48 2 -17 17
-15 63 4 79 12 10 20 10 35 1 12 -8 26 -9 36 -4 13 8 12 11 -8 26 -31 21 -61
20 -90 -3z"/>
<path d="M3540 5930 c0 -102 1 -110 19 -110 17 0 20 10 26 68 4 37 7 71 9 76
1 4 10 -26 20 -68 14 -61 21 -76 36 -76 15 0 22 16 37 83 l19 82 8 -82 c6 -73
10 -83 27 -83 18 0 19 8 19 110 l0 110 -34 0 c-34 0 -34 -1 -52 -70 -10 -38
-21 -70 -24 -70 -4 0 -14 32 -24 70 -18 69 -19 70 -52 70 l-34 0 0 -110z"/>
<path d="M3800 6025 c0 -8 7 -15 15 -15 8 0 15 7 15 15 0 8 -7 15 -15 15 -8 0
-15 -7 -15 -15z"/>
<path d="M4960 6025 c0 -8 9 -15 20 -15 11 0 20 7 20 15 0 8 -9 15 -20 15 -11
0 -20 -7 -20 -15z"/>
<path d="M3800 5900 c0 -64 3 -80 15 -80 12 0 15 16 15 80 0 64 -3 80 -15 80
-12 0 -15 -16 -15 -80z"/>
<path d="M3895 5955 c-16 -15 -25 -36 -25 -55 0 -37 39 -80 72 -80 13 0 34 7
47 16 21 15 22 18 6 26 -11 7 -21 6 -28 -1 -16 -16 -44 -13 -51 5 -20 53 6
100 43 77 9 -5 25 -7 35 -3 18 6 18 7 -5 23 -33 24 -66 21 -94 -8z"/>
<path d="M4050 5900 c0 -64 3 -80 15 -80 10 0 15 10 15 29 0 58 12 92 36 102
13 4 24 13 24 19 0 14 -33 13 -48 -2 -9 -9 -12 -9 -12 0 0 7 -7 12 -15 12 -12
0 -15 -16 -15 -80z"/>
<path d="M4175 5955 c-50 -49 -15 -135 55 -135 41 0 80 39 80 80 0 41 -39 80
-80 80 -19 0 -40 -9 -55 -25z m84 -19 c31 -37 -9 -103 -46 -80 -37 23 -24 94
17 94 10 0 23 -6 29 -14z"/>
<path d="M4358 5969 c-21 -12 -24 -54 -5 -66 6 -4 27 -12 46 -18 18 -5 34 -14
35 -20 1 -14 -42 -19 -57 -7 -7 5 -21 6 -31 3 -18 -7 -18 -8 5 -24 48 -35 124
-13 117 33 -3 24 -12 31 -68 54 -30 12 -32 15 -16 21 11 5 27 3 38 -4 12 -7
25 -8 35 -3 13 8 12 11 -8 26 -26 18 -65 20 -91 5z"/>
<path d="M4525 5955 c-66 -65 14 -168 97 -124 16 9 18 13 7 20 -8 4 -24 6 -37
2 -22 -5 -52 11 -52 28 0 5 23 9 50 9 47 0 50 2 50 25 0 32 -33 65 -65 65 -14
0 -37 -11 -50 -25z m75 -20 c11 -13 7 -15 -24 -15 -34 0 -44 8 -29 23 11 12
40 8 53 -8z"/>
<path d="M4680 5900 c0 -73 2 -80 20 -80 16 0 19 8 22 63 3 56 5 62 26 65 12
2 22 10 22 18 0 17 -31 19 -48 2 -9 -9 -12 -9 -12 0 0 7 -7 12 -15 12 -12 0
-15 -16 -15 -80z"/>
<path d="M4785 5960 c3 -11 17 -46 30 -77 32 -81 52 -78 87 12 33 84 33 85 9
85 -13 0 -22 -12 -31 -45 -7 -25 -16 -48 -21 -50 -4 -3 -15 17 -24 45 -13 38
-22 50 -36 50 -16 0 -19 -5 -14 -20z"/>
<path d="M4960 5900 c0 -73 2 -80 20 -80 18 0 20 7 20 80 0 73 -2 80 -20 80
-18 0 -20 -7 -20 -80z"/>
<path d="M5060 5960 c-13 -13 -20 -33 -20 -60 0 -70 62 -103 119 -64 20 15 21
18 8 26 -10 5 -23 4 -35 -3 -32 -20 -52 -5 -52 41 0 45 20 61 50 42 10 -6 22
-7 31 -1 12 8 11 12 -5 24 -28 21 -72 19 -96 -5z"/>
<path d="M5225 5955 c-66 -65 14 -168 97 -124 16 9 18 13 7 20 -8 4 -24 6 -37
2 -22 -5 -52 11 -52 28 0 5 25 9 55 9 55 0 55 0 49 28 -14 61 -76 80 -119 37z
m75 -20 c11 -13 7 -15 -24 -15 -34 0 -44 8 -29 23 11 12 40 8 53 -8z"/>
<path d="M8073 5515 c-159 -28 -280 -81 -308 -135 -12 -24 -15 -80 -15 -315
l0 -285 -50 25 c-52 27 -57 26 -40 -6 11 -19 -7 -19 -1255 -19 l-1265 0 0 190
0 190 -820 0 -820 0 0 -190 0 -190 -50 25 -51 26 7 -26 6 -25 -948 2 -949 3
-3 188 -2 187 -755 0 -755 0 0 -380 0 -380 755 0 755 0 0 185 0 185 951 0
c946 0 950 0 944 -20 -3 -11 -4 -20 0 -20 3 0 23 9 45 20 22 11 42 20 45 20 3
0 5 -83 5 -185 l0 -185 438 -2 437 -3 0 -305 0 -305 -1312 -3 -1313 -2 0 -940
0 -940 593 -2 592 -3 3 -687 2 -688 1380 0 1380 0 2 688 3 687 343 3 342 2 0
940 0 940 -775 0 -775 0 0 188 c0 103 -3 218 -7 256 l-6 68 22 -12 c13 -6 25
-10 27 -7 7 6 -38 97 -48 97 -4 0 -19 -22 -33 -50 -27 -52 -26 -57 6 -40 18
10 19 5 21 -172 2 -101 3 -218 3 -261 l0 -77 778 0 777 0 0 -930 0 -930 -340
0 -340 0 0 685 0 685 -1380 0 -1380 0 0 -685 0 -685 -590 0 -590 0 0 930 0
930 1313 2 1312 3 3 313 2 312 375 0 375 0 0 185 0 185 1261 0 c1256 0 1260 0
1254 -20 -3 -11 -4 -20 0 -20 3 0 23 9 45 20 22 11 42 20 45 20 3 0 5 -99 5
-221 0 -244 2 -255 64 -297 84 -58 236 -91 446 -99 236 -8 395 16 528 79 109
51 102 10 102 611 0 496 -1 520 -19 546 -28 40 -107 79 -218 108 -86 22 -122
26 -298 29 -143 2 -223 -1 -282 -11z m437 -5 c169 -21 310 -73 352 -131 18
-24 18 -29 5 -62 -20 -46 -74 -80 -169 -107 -221 -63 -520 -66 -733 -7 -265
73 -261 203 7 277 140 38 367 51 538 30z m352 -1210 c-10 -14 -47 -40 -82 -58
-218 -109 -702 -108 -923 2 -102 51 -97 22 -97 574 0 259 3 472 8 472 4 -1 23
-14 42 -31 42 -35 155 -73 283 -94 106 -17 346 -20 433 -5 170 30 277 66 324
111 l25 24 3 -485 c2 -453 1 -487 -16 -510z m-7362 480 l0 -370 -745 0 -745 0
0 370 0 370 745 0 745 0 0 -370z m3630 0 l0 -370 -810 0 -810 0 0 370 0 370
810 0 810 0 0 -370z m560 -2190 l0 -680 -275 0 -275 0 0 155 0 155 -755 0
-755 0 0 -155 c0 -117 -3 -155 -12 -155 -7 0 -32 11 -55 25 -46 25 -49 25 -33
-6 10 -19 4 -19 -285 -19 l-295 0 0 680 0 680 1370 0 1370 0 0 -680z m-560
-685 l0 -305 -745 0 -745 0 0 305 0 305 745 0 745 0 0 -305z m-1590 -11 c0 -3
-5 -14 -10 -25 -14 -25 -9 -24 50 6 l50 25 0 -160 0 -160 755 0 755 0 0 160 0
160 275 0 275 0 0 -685 0 -685 -1370 0 -1370 0 0 685 0 685 295 0 c162 0 295
-3 295 -6z"/>
<path d="M7870 4686 c0 -31 5 -56 10 -56 6 0 10 9 10 19 0 14 8 21 28 23 23 3
27 8 27 33 0 27 -3 30 -37 33 l-38 3 0 -55z m60 19 c0 -8 -9 -15 -20 -15 -11
0 -20 7 -20 15 0 8 9 15 20 15 11 0 20 -7 20 -15z"/>
<path d="M8170 4722 c0 -13 -7 -18 -22 -18 -20 1 -23 -4 -23 -34 0 -32 2 -35
33 -37 l32 -1 0 54 c0 30 -4 54 -10 54 -5 0 -10 -8 -10 -18z m0 -52 c0 -11 -7
-20 -15 -20 -8 0 -15 9 -15 20 0 11 7 20 15 20 8 0 15 -9 15 -20z"/>
<path d="M8570 4685 c0 -54 1 -55 28 -55 36 0 52 17 52 55 0 38 -16 55 -52 55
-27 0 -28 -1 -28 -55z m65 16 c9 -28 -5 -51 -31 -51 -21 0 -24 5 -24 35 0 30
3 35 24 35 15 0 27 -7 31 -19z"/>
<path d="M8670 4684 l0 -55 43 3 c42 3 42 3 42 43 1 52 -10 65 -51 65 l-34 0
0 -56z m70 26 c0 -5 -11 -10 -25 -10 -14 0 -25 5 -25 10 0 6 11 10 25 10 14 0
25 -4 25 -10z m0 -45 c0 -9 -9 -15 -25 -15 -16 0 -25 6 -25 15 0 9 9 15 25 15
16 0 25 -6 25 -15z"/>
<path d="M8392 4717 c-15 -18 0 -81 21 -85 9 -2 17 1 17 7 0 6 -4 11 -10 11
-14 0 -12 38 2 42 9 3 8 9 -4 21 -12 13 -18 14 -26 4z"/>
<path d="M7970 4669 c0 -22 5 -39 10 -39 6 0 10 14 10 30 0 20 5 30 15 30 8 0
15 4 15 9 0 5 -11 9 -25 9 -22 0 -25 -5 -25 -39z"/>
<path d="M8042 4698 c-25 -25 -6 -68 30 -68 9 0 22 9 28 20 22 40 -26 80 -58
48z m43 -28 c0 -8 -8 -16 -17 -18 -13 -2 -18 3 -18 18 0 15 5 20 18 18 9 -2
17 -10 17 -18z"/>
<path d="M8223 4675 c2 -36 5 -40 30 -41 25 -1 27 1 26 40 -1 38 -2 39 -8 11
-3 -17 -13 -30 -21 -30 -8 0 -18 13 -22 30 -6 26 -6 25 -5 -10z"/>
<path d="M8310 4691 c-15 -29 4 -63 32 -59 30 4 36 29 6 26 -15 -2 -23 2 -23
12 0 10 8 14 23 12 30 -3 24 22 -6 26 -13 2 -25 -4 -32 -17z"/>
<path d="M8447 4703 c-15 -14 -5 -33 21 -40 l27 -7 -30 -6 c-24 -6 -27 -8 -12
-14 9 -5 24 -6 32 -2 22 8 18 35 -7 46 l-23 9 23 0 c13 1 20 5 17 11 -7 11
-38 13 -48 3z"/>
<path d="M563 4814 c-15 -24 -15 -29 -2 -53 16 -28 45 -37 69 -21 12 7 12 12
2 22 -9 9 -12 9 -12 -1 0 -7 -9 -11 -22 -9 -18 2 -23 10 -23 33 0 23 5 31 23
33 13 2 22 -2 22 -9 0 -10 3 -10 12 -1 10 10 10 15 -2 22 -26 17 -49 11 -67
-16z"/>
<path d="M660 4785 c0 -30 5 -55 10 -55 6 0 10 25 10 55 0 30 -4 55 -10 55 -5
0 -10 -25 -10 -55z"/>
<path d="M922 4817 c-15 -18 0 -81 21 -85 9 -2 17 1 17 7 0 6 -4 11 -10 11
-14 0 -12 38 2 42 9 3 8 9 -4 21 -12 13 -18 14 -26 4z"/>
<path d="M713 4770 c0 -25 2 -35 4 -22 2 12 2 32 0 45 -2 12 -4 2 -4 -23z"/>
<path d="M750 4795 c-25 -30 9 -76 46 -60 17 7 15 9 -11 15 l-30 8 28 1 c28 1
35 19 15 39 -16 16 -33 15 -48 -3z m37 -11 c-3 -3 -12 -4 -19 -1 -8 3 -5 6 6
6 11 1 17 -2 13 -5z"/>
<path d="M830 4769 c0 -21 5 -39 10 -39 6 0 10 14 10 30 0 20 5 30 15 30 10 0
15 -10 15 -30 0 -16 5 -30 11 -30 6 0 9 16 7 38 -3 34 -6 37 -35 39 -32 1 -33
0 -33 -38z"/>
<path d="M3560 4786 c0 -31 5 -56 10 -56 6 0 10 9 10 19 0 14 8 21 28 23 23 3
27 8 27 33 0 27 -3 30 -37 33 l-38 3 0 -55z m60 19 c0 -8 -9 -15 -20 -15 -11
0 -20 7 -20 15 0 8 9 15 20 15 11 0 20 -7 20 -15z"/>
<path d="M3860 4822 c0 -13 -7 -18 -22 -18 -20 1 -23 -4 -23 -34 0 -32 2 -35
33 -37 l32 -1 0 54 c0 30 -4 54 -10 54 -5 0 -10 -8 -10 -18z m0 -52 c0 -11 -7
-20 -15 -20 -8 0 -15 9 -15 20 0 11 7 20 15 20 8 0 15 -9 15 -20z"/>
<path d="M4170 4786 c0 -62 19 -78 21 -18 l2 37 10 -38 c13 -46 27 -43 43 9
l12 39 1 -42 c2 -64 21 -52 21 12 0 47 -3 55 -18 55 -13 0 -22 -12 -28 -37
l-10 -38 -10 35 c-6 19 -18 36 -27 38 -14 3 -17 -5 -17 -52z"/>
<path d="M4880 4830 c0 -5 5 -10 10 -10 6 0 10 5 10 10 0 6 -4 10 -10 10 -5 0
-10 -4 -10 -10z"/>
<path d="M4082 4817 c-15 -18 0 -81 21 -85 9 -2 17 1 17 7 0 6 -4 11 -10 11
-14 0 -12 38 2 42 9 3 8 9 -4 21 -12 13 -18 14 -26 4z"/>
<path d="M3660 4769 c0 -22 5 -39 10 -39 6 0 10 14 10 30 0 20 5 30 15 30 8 0
15 4 15 9 0 5 -11 9 -25 9 -22 0 -25 -5 -25 -39z"/>
<path d="M3732 4798 c-25 -25 -6 -68 30 -68 9 0 22 9 28 20 22 40 -26 80 -58
48z m43 -28 c0 -8 -8 -16 -17 -18 -13 -2 -18 3 -18 18 0 15 5 20 18 18 9 -2
17 -10 17 -18z"/>
<path d="M3913 4775 c2 -36 5 -40 30 -41 25 -1 27 1 26 40 -1 38 -2 39 -8 11
-3 -17 -13 -30 -21 -30 -8 0 -18 13 -22 30 -6 26 -6 25 -5 -10z"/>
<path d="M4000 4791 c-15 -29 4 -63 32 -59 30 4 36 29 6 26 -15 -2 -23 2 -23
12 0 10 8 14 23 12 30 -3 24 22 -6 26 -13 2 -25 -4 -32 -17z"/>
<path d="M4303 4770 c0 -25 2 -35 4 -22 2 12 2 32 0 45 -2 12 -4 2 -4 -23z"/>
<path d="M4340 4791 c-15 -29 4 -63 32 -59 30 4 36 29 6 26 -15 -2 -23 2 -23
12 0 10 8 14 23 12 30 -3 24 22 -6 26 -13 2 -25 -4 -32 -17z"/>
<path d="M4420 4769 c0 -22 5 -39 10 -39 6 0 10 14 10 30 0 20 5 30 15 30 8 0
15 4 15 9 0 5 -11 9 -25 9 -22 0 -25 -5 -25 -39z"/>
<path d="M4493 4803 c-21 -8 -16 -61 6 -68 30 -9 51 5 51 35 0 33 -24 47 -57
33z m45 -30 c5 -17 -26 -29 -40 -15 -6 6 -7 15 -3 22 9 14 37 9 43 -7z"/>
<path d="M4577 4803 c-15 -14 -5 -33 21 -40 l27 -7 -30 -6 c-26 -6 -27 -8 -11
-15 20 -9 47 3 48 20 0 6 -10 16 -23 22 l-24 13 23 0 c13 0 20 4 17 10 -7 11
-38 13 -48 3z"/>
<path d="M4660 4795 c-25 -30 9 -76 46 -60 17 7 15 9 -11 15 l-30 8 28 1 c28
1 35 19 15 39 -16 16 -33 15 -48 -3z m37 -11 c-3 -3 -12 -4 -19 -1 -8 3 -5 6
6 6 11 1 17 -2 13 -5z"/>
<path d="M4740 4768 c0 -21 5 -38 10 -38 6 0 10 14 10 30 0 23 5 30 19 30 12
0 23 -11 30 -30 12 -36 27 -39 35 -6 3 13 9 31 12 40 3 9 2 16 -3 16 -5 0 -14
-12 -20 -27 l-10 -28 -7 27 c-7 23 -13 27 -42 26 -33 -1 -34 -3 -34 -40z"/>
<path d="M4880 4770 c0 -22 5 -40 10 -40 6 0 10 18 10 40 0 22 -4 40 -10 40
-5 0 -10 -18 -10 -40z"/>
<path d="M4930 4795 c-15 -18 -10 -45 12 -59 14 -8 22 -7 35 7 17 18 17 18 -9
12 -24 -6 -28 -4 -28 15 0 19 4 21 27 15 23 -5 25 -4 14 9 -17 20 -35 20 -51
1z"/>
<path d="M5010 4795 c-25 -30 9 -76 46 -60 17 7 15 9 -11 15 l-30 8 28 1 c28
1 35 19 15 39 -16 16 -33 15 -48 -3z m37 -11 c-3 -3 -12 -4 -19 -1 -8 3 -5 6
6 6 11 1 17 -2 13 -5z"/>
<path d="M4110 2790 c0 -33 4 -60 10 -60 6 0 10 8 10 19 0 10 6 24 14 30 11 9
16 5 26 -19 7 -16 19 -30 27 -30 12 0 11 7 -6 36 -21 35 -21 38 -5 55 28 32 6
35 -26 4 l-30 -29 0 27 c0 15 -4 27 -10 27 -6 0 -10 -27 -10 -60z"/>
<path d="M4330 2836 c0 -8 -6 -17 -12 -20 -10 -5 -10 -7 0 -12 6 -3 13 -22 14
-42 l1 -37 4 35 c3 19 10 38 16 42 9 6 9 10 -1 17 -11 7 -11 9 2 14 13 5 16
-3 16 -48 0 -55 13 -74 23 -33 l6 21 20 -24 c23 -27 26 -22 10 15 -9 20 -9 29
1 41 17 20 1 19 -22 -2 -17 -15 -18 -14 -18 15 0 29 -3 32 -30 32 -19 0 -30
-5 -30 -14z"/>
<path d="M4237 2814 c-13 -14 -7 -22 13 -17 29 8 25 -6 -6 -17 -39 -15 -28
-45 17 -46 l35 -1 -6 41 c-4 31 -10 42 -25 44 -12 2 -24 0 -28 -4z m33 -54 c0
-5 -7 -10 -16 -10 -8 0 -12 5 -9 10 3 6 10 10 16 10 5 0 9 -4 9 -10z"/>
<path d="M4470 2805 c-12 -14 -10 -16 16 -11 l29 6 -28 -12 c-41 -18 -34 -52
11 -55 33 -1 33 -1 30 40 -2 34 -7 43 -24 45 -11 2 -27 -4 -34 -13z m35 -45
c-3 -5 -10 -10 -16 -10 -5 0 -9 5 -9 10 0 6 7 10 16 10 8 0 12 -4 9 -10z"/>
<path d="M4060 1906 c0 -31 5 -56 10 -56 6 0 10 9 10 19 0 14 8 21 28 23 23 3
27 8 27 33 0 27 -3 30 -37 33 l-38 3 0 -55z m60 19 c0 -8 -9 -15 -20 -15 -11
0 -20 7 -20 15 0 8 9 15 20 15 11 0 20 -7 20 -15z"/>
<path d="M4360 1942 c0 -13 -7 -18 -22 -18 -20 1 -23 -4 -23 -34 0 -32 2 -35
33 -37 l32 -1 0 54 c0 30 -4 54 -10 54 -5 0 -10 -8 -10 -18z m0 -52 c0 -11 -7
-20 -15 -20 -8 0 -15 9 -15 20 0 11 7 20 15 20 8 0 15 -9 15 -20z"/>
<path d="M4582 1937 c-15 -18 0 -81 21 -85 9 -2 17 1 17 7 0 6 -4 11 -10 11
-14 0 -12 38 2 42 9 3 8 9 -4 21 -12 13 -18 14 -26 4z"/>
<path d="M4160 1889 c0 -22 5 -39 10 -39 6 0 10 14 10 30 0 20 5 30 15 30 8 0
15 4 15 9 0 5 -11 9 -25 9 -22 0 -25 -5 -25 -39z"/>
<path d="M4232 1918 c-25 -25 -6 -68 30 -68 9 0 22 9 28 20 22 40 -26 80 -58
48z m43 -28 c0 -8 -8 -16 -17 -18 -13 -2 -18 3 -18 18 0 15 5 20 18 18 9 -2
17 -10 17 -18z"/>
<path d="M4413 1895 c2 -36 5 -40 30 -41 25 -1 27 1 26 40 -1 38 -2 39 -8 11
-3 -17 -13 -30 -21 -30 -8 0 -18 13 -22 30 -6 26 -6 25 -5 -10z"/>
<path d="M4500 1911 c-15 -29 4 -63 32 -59 30 4 36 29 6 26 -15 -2 -23 2 -23
12 0 10 8 14 23 12 30 -3 24 22 -6 26 -13 2 -25 -4 -32 -17z"/>
<path d="M4637 1923 c-15 -14 -5 -33 21 -40 l27 -7 -30 -6 c-24 -6 -27 -8 -12
-14 9 -5 24 -6 32 -2 22 8 18 35 -7 46 l-23 9 23 0 c13 1 20 5 17 11 -7 11
-38 13 -48 3z"/>
<path d="M3630 1090 l0 -320 755 0 755 0 0 320 0 320 -755 0 -755 0 0 -320z
m1500 0 l0 -310 -745 0 -745 0 0 310 0 310 745 0 745 0 0 -310z"/>
<path d="M4156 1134 c-32 -32 -10 -94 34 -94 26 0 50 27 50 55 0 28 -24 55
-50 55 -10 0 -26 -7 -34 -16z m59 -39 c0 -25 -4 -30 -25 -30 -16 0 -26 6 -28
18 -6 30 6 49 30 45 18 -2 23 -9 23 -33z"/>
<path d="M4370 1131 c0 -14 -5 -18 -19 -14 -26 7 -46 -29 -31 -56 7 -13 20
-19 40 -19 29 1 30 2 30 55 0 29 -4 53 -10 53 -5 0 -10 -9 -10 -19z m-4 -42
c10 -17 -13 -36 -27 -22 -12 12 -4 33 11 33 5 0 12 -5 16 -11z"/>
<path d="M4260 1079 c0 -22 5 -39 10 -39 6 0 10 14 10 30 0 20 5 30 15 30 8 0
15 4 15 9 0 5 -11 9 -25 9 -22 0 -25 -5 -25 -39z"/>
<path d="M4417 1114 c-4 -4 -7 -20 -7 -36 0 -31 20 -45 48 -33 15 7 14 9 -8
15 -25 8 -25 8 -2 9 18 1 23 6 20 24 -3 22 -36 36 -51 21z m40 -20 c-3 -3 -12
-4 -19 -1 -8 3 -5 6 6 6 11 1 17 -2 13 -5z"/>
<path d="M4490 1079 c0 -22 5 -39 10 -39 6 0 10 14 10 30 0 20 5 30 15 30 8 0
15 4 15 9 0 5 -11 9 -25 9 -22 0 -25 -5 -25 -39z"/>
<path d="M4557 1113 c-15 -14 -5 -33 21 -40 l27 -7 -30 -6 c-24 -6 -27 -8 -12
-14 9 -5 24 -6 32 -2 22 8 18 35 -7 46 l-23 9 23 0 c13 1 20 5 17 11 -7 11
-38 13 -48 3z"/>
<path d="M2161 5433 c1 -47 3 -59 8 -38 5 25 12 31 41 35 31 4 35 8 35 35 0
28 -3 30 -42 33 l-43 3 1 -68z m68 48 c23 -15 5 -41 -29 -41 -22 0 -30 5 -30
18 0 32 28 42 59 23z"/>
<path d="M2290 5480 c-11 -11 -20 -31 -20 -45 0 -29 32 -65 58 -65 32 0 62 29
62 61 0 33 -31 69 -60 69 -11 0 -29 -9 -40 -20z m70 -10 c11 -11 20 -24 20
-29 0 -39 -39 -68 -70 -51 -26 14 -28 74 -2 89 24 15 29 14 52 -9z"/>
<path d="M2426 5485 c-21 -22 -10 -43 28 -53 17 -5 32 -15 34 -24 4 -23 -27
-31 -54 -13 -25 16 -33 8 -12 -13 16 -16 50 -15 74 2 25 19 9 47 -35 60 -30 9
-43 35 -18 37 23 2 42 -3 49 -14 5 -8 8 -6 8 4 0 30 -49 39 -74 14z"/>
<path d="M2538 5493 c20 -4 22 -10 22 -64 0 -33 4 -59 10 -59 6 0 10 26 10 59
0 54 2 60 23 64 12 2 -3 4 -33 4 -30 0 -45 -2 -32 -4z"/>
<path d="M4044 5438 c-11 -25 -19 -65 -19 -98 0 -62 29 -140 53 -140 10 0 12
5 7 18 -29 66 -29 171 0 245 5 11 2 17 -7 17 -8 0 -24 -19 -34 -42z"/>
<path d="M4152 5473 c-24 -9 -34 -53 -18 -78 13 -20 13 -25 1 -35 -36 -30 0
-100 50 -100 29 0 75 40 75 65 0 8 -9 24 -19 34 -17 17 -18 21 -5 32 48 39
-21 107 -84 82z m53 -53 c0 -16 -6 -26 -18 -28 -19 -4 -32 20 -23 44 9 25 41
13 41 -16z m10 -79 c9 -29 -5 -52 -29 -49 -37 5 -34 68 3 68 11 0 22 -8 26
-19z"/>
<path d="M4311 5454 c-47 -59 -17 -194 43 -194 35 0 56 22 67 68 25 112 -52
200 -110 126z m69 -33 c25 -48 1 -131 -34 -118 -12 5 -16 20 -16 65 0 32 3 62
7 65 12 13 32 7 43 -12z"/>
<path d="M4477 5462 c-20 -22 -22 -57 -4 -73 11 -11 10 -16 -5 -31 -10 -10
-18 -25 -18 -33 0 -25 46 -65 75 -65 51 0 86 70 50 100 -11 9 -13 16 -5 24 16
16 12 61 -8 79 -24 22 -65 21 -85 -1z m68 -42 c0 -18 -6 -26 -21 -28 -23 -3
-37 18 -27 44 10 25 48 13 48 -16z m0 -95 c0 -23 -5 -31 -21 -33 -24 -3 -38
20 -28 50 4 13 13 18 27 16 17 -2 22 -10 22 -33z"/>
<path d="M4649 5461 c-21 -17 -24 -28 -24 -91 0 -63 3 -74 24 -91 30 -24 56
-24 80 0 55 55 27 201 -38 201 -10 0 -29 -9 -42 -19z m65 -37 c3 -9 6 -33 6
-54 0 -51 -8 -70 -30 -70 -10 0 -21 7 -24 16 -8 21 -8 109 1 117 12 13 41 7
47 -9z"/>
<path d="M4795 5463 c29 -74 29 -179 0 -245 -5 -13 -3 -18 7 -18 24 0 52 77
53 139 0 63 -29 141 -53 141 -9 0 -12 -6 -7 -17z"/>
<path d="M2046 5229 c-10 -33 -16 -63 -13 -65 2 -2 11 24 21 57 9 34 15 63 13
66 -2 2 -12 -24 -21 -58z"/>
<path d="M2400 5270 c0 -17 -5 -19 -25 -14 -20 5 -27 1 -36 -20 -19 -40 2 -77
41 -74 30 2 30 2 30 65 0 35 -2 63 -5 63 -3 0 -5 -9 -5 -20z m-6 -43 c12 -18
0 -47 -22 -55 -19 -6 -34 35 -22 59 13 23 28 21 44 -4z"/>
<path d="M2618 5269 c-8 -25 8 -103 22 -107 12 -4 13 -2 3 9 -15 15 -17 61 -4
75 6 5 4 14 -4 21 -9 8 -15 9 -17 2z"/>
<path d="M2080 5189 c0 -39 4 -69 10 -69 6 0 10 11 10 25 0 18 4 23 15 19 22
-9 45 14 45 46 0 33 -16 48 -52 48 -28 0 -28 -1 -28 -69z m64 38 c8 -12 8 -22
0 -34 -16 -25 -38 -22 -42 5 -7 50 18 67 42 29z"/>
<path d="M2180 5208 c0 -26 5 -48 10 -48 6 0 10 18 10 40 0 27 6 42 18 49 14
9 13 10 -10 9 -26 -2 -28 -5 -28 -50z"/>
<path d="M2251 5246 c-31 -37 9 -103 47 -80 36 23 23 94 -18 94 -10 0 -23 -6
-29 -14z m47 -8 c28 -28 -3 -83 -33 -58 -8 7 -15 20 -15 29 0 17 18 41 30 41
3 0 11 -5 18 -12z"/>
<path d="M2430 5221 c0 -45 14 -60 52 -58 26 2 28 5 28 50 0 58 -18 63 -22 5
-2 -30 -8 -43 -18 -43 -10 0 -16 13 -18 43 -4 53 -22 56 -22 3z"/>
<path d="M2542 5248 c-17 -17 -15 -63 3 -78 18 -15 55 -4 55 18 0 13 -2 13
-14 -3 -12 -16 -16 -17 -30 -6 -20 17 -21 45 -1 61 12 10 18 10 32 -1 14 -12
16 -12 11 1 -6 19 -40 24 -56 8z"/>
<path d="M2677 5254 c-16 -16 -6 -42 18 -48 14 -4 25 -11 25 -16 0 -15 -21
-23 -33 -11 -17 17 -31 13 -17 -4 16 -20 44 -19 61 1 11 14 10 18 -6 30 -10 8
-25 14 -32 14 -7 0 -13 4 -13 9 0 18 21 23 37 9 14 -11 16 -11 11 2 -5 16 -39
25 -51 14z"/>
<path d="M2020 5060 c0 -13 -5 -18 -15 -14 -22 9 -45 -14 -45 -46 0 -33 16
-48 53 -48 27 0 27 1 27 64 0 36 -4 64 -10 64 -5 0 -10 -9 -10 -20z m-2 -54
c4 -36 -12 -54 -33 -36 -18 15 -20 41 -3 58 18 18 33 9 36 -22z"/>
<path d="M2120 5060 c0 -13 -5 -18 -15 -14 -22 9 -45 -14 -45 -46 0 -33 17
-50 48 -47 20 1 22 6 22 64 0 35 -2 63 -5 63 -3 0 -5 -9 -5 -20z m-2 -54 c4
-36 -12 -54 -33 -36 -18 15 -20 41 -3 58 18 18 33 9 36 -22z"/>
<path d="M2520 5060 c0 -17 -5 -19 -24 -14 -18 4 -27 1 -35 -14 -23 -43 -7
-75 38 -78 l31 -2 0 64 c0 35 -2 64 -5 64 -3 0 -5 -9 -5 -20z m-6 -43 c8 -12
8 -22 0 -34 -16 -25 -38 -22 -42 5 -7 50 18 67 42 29z"/>
<path d="M2743 5055 c-8 -9 -9 -16 -3 -20 6 -3 10 -24 10 -46 0 -31 4 -39 18
-39 13 0 14 2 4 9 -8 5 -12 25 -11 54 3 53 -1 61 -18 42z"/>
<path d="M1877 5044 c-13 -13 -7 -27 7 -15 14 12 46 5 46 -10 0 -5 -15 -12
-32 -17 -23 -6 -33 -14 -33 -28 0 -15 7 -19 38 -19 l38 -1 -3 46 c-3 40 -6 45
-28 48 -14 2 -29 0 -33 -4z m43 -69 c-7 -8 -19 -15 -26 -15 -8 0 -14 7 -14 15
0 10 10 15 26 15 22 0 25 -2 14 -15z"/>
<path d="M2211 4976 c1 -39 4 -59 6 -45 3 20 9 26 23 22 24 -6 51 34 43 65 -6
24 -6 24 -45 27 l-28 2 1 -71z m59 24 c0 -29 -14 -41 -37 -32 -16 5 -17 44 -2
59 18 18 39 3 39 -27z"/>
<path d="M2300 4999 c0 -27 5 -49 10 -49 6 0 10 18 10 40 0 26 6 42 17 48 13
8 11 10 -10 10 -26 0 -27 -3 -27 -49z"/>
<path d="M2371 5036 c-31 -37 9 -103 47 -80 36 23 23 94 -18 94 -10 0 -23 -6
-29 -14z m47 -8 c28 -28 -3 -83 -33 -58 -8 7 -15 20 -15 29 0 17 18 41 30 41
3 0 11 -5 18 -12z"/>
<path d="M2564 5005 c1 -49 1 -50 34 -50 l32 -1 -2 51 c-1 42 -2 44 -5 13 -4
-39 -28 -67 -43 -52 -5 5 -11 27 -13 49 -3 33 -4 31 -3 -10z"/>
<path d="M2662 5038 c-15 -15 -16 -60 0 -76 18 -18 46 -14 58 8 13 24 2 27
-15 3 -11 -15 -15 -15 -29 -4 -20 17 -21 45 -1 61 12 10 18 10 32 -1 14 -12
16 -12 11 1 -6 19 -40 24 -56 8z"/>
<path d="M2797 5044 c-16 -16 -6 -42 18 -48 14 -4 25 -11 25 -16 0 -15 -21
-23 -33 -11 -17 17 -31 13 -17 -4 16 -20 44 -19 61 1 11 14 10 18 -6 30 -10 8
-25 14 -32 14 -7 0 -13 4 -13 9 0 18 21 23 37 9 14 -11 16 -11 11 2 -5 16 -39
25 -51 14z"/>
<path d="M6477 3112 c-21 -23 -22 -76 -1 -96 29 -29 84 -14 84 22 0 9 -6 6
-18 -8 -34 -43 -85 2 -67 59 9 29 42 37 66 15 20 -18 27 -6 7 14 -18 18 -53
15 -71 -6z"/>
<path d="M7660 3110 c0 -17 -5 -19 -25 -14 -20 5 -27 1 -36 -20 -19 -40 2 -77
41 -74 30 2 30 2 30 65 0 35 -2 63 -5 63 -3 0 -5 -9 -5 -20z m-6 -43 c12 -18
0 -47 -22 -55 -19 -6 -34 35 -22 59 13 23 28 21 44 -4z"/>
<path d="M8067 3110 c-9 -11 -12 -20 -7 -20 6 0 11 -21 12 -47 l1 -48 4 45 c3
24 10 48 16 52 9 6 8 8 -2 8 -11 0 -11 3 -1 15 7 8 8 15 3 15 -5 0 -16 -9 -26
-20z"/>
<path d="M7878 3109 c-8 -25 8 -103 22 -107 12 -4 13 -2 3 9 -15 15 -17 61 -4
75 6 5 4 14 -4 21 -9 8 -15 9 -17 2z"/>
<path d="M6591 3086 c-31 -37 9 -103 47 -80 36 23 23 94 -18 94 -10 0 -23 -6
-29 -14z m47 -8 c28 -28 -3 -83 -33 -58 -8 7 -15 20 -15 29 0 17 18 41 30 41
3 0 11 -5 18 -12z"/>
<path d="M6680 3048 c0 -59 18 -64 22 -5 2 29 8 42 18 42 10 0 16 -13 18 -42
4 -50 22 -58 22 -10 0 44 -14 62 -50 62 -29 1 -30 0 -30 -47z"/>
<path d="M6787 3094 c-16 -16 -6 -42 18 -48 14 -4 25 -11 25 -16 0 -15 -21
-23 -33 -11 -17 17 -31 13 -17 -4 16 -20 44 -19 61 1 11 14 10 18 -6 30 -10 8
-25 14 -32 14 -7 0 -13 4 -13 9 0 18 21 23 37 9 14 -11 16 -11 11 2 -5 16 -39
25 -51 14z"/>
<path d="M6874 3055 c1 -49 1 -50 34 -50 l32 -1 -2 51 c-1 42 -2 44 -5 13 -4
-39 -28 -67 -43 -52 -5 5 -11 27 -13 49 -3 33 -4 31 -3 -10z"/>
<path d="M6960 3049 c0 -60 18 -65 22 -6 4 60 31 58 39 -3 6 -43 6 -43 7 -9 3
72 46 71 55 -1 4 -34 4 -34 5 7 2 50 -7 58 -75 59 l-53 1 0 -48z"/>
<path d="M7123 3092 c-21 -13 -26 -58 -7 -76 19 -20 55 -18 62 4 4 12 3 13
-10 2 -18 -15 -48 -6 -48 14 0 9 12 14 35 14 38 0 44 10 19 34 -17 17 -32 20
-51 8z m45 -19 c2 -8 -6 -13 -22 -13 -25 0 -33 10 -19 24 10 10 36 3 41 -11z"/>
<path d="M7212 3088 c-14 -17 -4 -33 26 -42 12 -4 22 -11 22 -16 0 -15 -21
-23 -33 -11 -17 17 -31 13 -17 -4 16 -20 44 -19 61 1 11 14 10 18 -6 30 -10 8
-25 14 -32 14 -7 0 -13 7 -13 15 0 18 21 20 39 3 11 -11 13 -10 9 2 -6 20 -42
25 -56 8z"/>
<path d="M7340 3029 c0 -39 4 -69 10 -69 6 0 10 11 10 25 0 18 4 23 15 19 22
-9 45 14 45 46 0 33 -16 48 -52 48 -28 0 -28 -1 -28 -69z m64 38 c8 -12 8 -22
0 -34 -16 -25 -38 -22 -42 5 -7 50 18 67 42 29z"/>
<path d="M7440 3048 c0 -26 5 -48 10 -48 6 0 10 18 10 40 0 27 6 42 18 49 14
9 13 10 -10 9 -26 -2 -28 -5 -28 -50z"/>
<path d="M7506 3084 c-9 -8 -16 -24 -16 -34 0 -22 25 -50 45 -50 20 0 45 28
45 50 0 22 -25 50 -45 50 -7 0 -21 -7 -29 -16z m49 -34 c0 -28 -4 -35 -20 -35
-13 0 -21 8 -23 23 -5 34 5 54 25 50 13 -2 18 -13 18 -38z"/>
<path d="M7690 3061 c0 -45 14 -60 52 -58 26 2 28 5 28 50 0 58 -18 63 -22 5
-2 -30 -8 -43 -18 -43 -10 0 -16 13 -18 43 -4 53 -22 56 -22 3z"/>
<path d="M7802 3088 c-17 -17 -15 -63 3 -78 18 -15 55 -4 55 18 0 13 -2 13
-14 -3 -12 -16 -16 -17 -30 -6 -20 17 -21 45 -1 61 12 10 18 10 32 -1 14 -12
16 -12 11 1 -6 19 -40 24 -56 8z"/>
<path d="M7932 3088 c-14 -17 -4 -33 26 -42 12 -4 22 -11 22 -16 0 -15 -21
-23 -33 -11 -17 17 -31 13 -17 -4 16 -20 44 -19 61 1 11 14 10 18 -6 30 -10 8
-25 14 -32 14 -7 0 -13 7 -13 15 0 18 21 20 39 3 11 -11 13 -10 9 2 -6 20 -42
25 -56 8z"/>
<path d="M8110 3048 c0 -26 5 -48 10 -48 6 0 10 18 10 40 0 27 6 42 18 49 14
9 13 10 -10 9 -26 -2 -28 -5 -28 -50z"/>
<path d="M8176 3084 c-9 -8 -16 -24 -16 -34 0 -22 25 -50 45 -50 20 0 45 28
45 50 0 22 -25 50 -45 50 -7 0 -21 -7 -29 -16z m49 -34 c0 -28 -4 -35 -20 -35
-13 0 -21 8 -23 23 -5 34 5 54 25 50 13 -2 18 -13 18 -38z"/>
<path d="M8272 3046 c1 -47 2 -48 5 -11 7 67 43 71 43 4 0 -53 18 -50 22 4 4
60 31 58 39 -3 l7 -45 -2 50 -1 50 -57 1 -58 0 2 -50z"/>
<path d="M190 3015 c0 -37 4 -65 10 -65 6 0 10 14 10 30 0 26 3 30 29 30 38 0
56 22 41 49 -8 16 -21 21 -50 21 l-40 0 0 -65z m69 46 c21 -13 5 -41 -24 -41
-20 0 -25 5 -25 25 0 26 22 33 49 16z"/>
<path d="M400 3016 c0 -63 0 -64 28 -64 36 0 52 15 52 48 0 32 -23 55 -45 46
-10 -4 -15 1 -15 14 0 11 -4 20 -10 20 -6 0 -10 -28 -10 -64z m64 1 c8 -12 8
-22 0 -34 -16 -25 -38 -22 -42 5 -7 50 18 67 42 29z"/>
<path d="M503 3015 c0 -38 2 -53 4 -32 2 20 2 52 0 70 -2 17 -4 1 -4 -38z"/>
<path d="M673 3015 c0 -43 2 -54 4 -27 2 23 8 43 14 44 30 4 34 0 40 -42 l7
-45 -2 50 c-1 46 -3 50 -26 50 -16 0 -27 7 -32 20 -3 11 -6 -11 -5 -50z"/>
<path d="M1120 3060 c0 -13 -5 -18 -15 -14 -22 9 -45 -14 -45 -46 0 -33 16
-48 53 -48 27 0 27 1 27 64 0 36 -4 64 -10 64 -5 0 -10 -9 -10 -20z m-2 -54
c4 -36 -12 -54 -33 -36 -18 15 -20 41 -3 58 18 18 33 9 36 -22z"/>
<path d="M1348 3059 c-8 -25 8 -103 22 -107 12 -4 13 -2 3 9 -15 15 -17 76 -4
81 5 2 3 8 -4 15 -9 8 -15 9 -17 2z"/>
<path d="M1533 3055 c-8 -9 -9 -16 -3 -20 6 -3 10 -24 10 -46 0 -31 4 -39 18
-39 13 0 14 2 4 9 -8 5 -12 25 -11 54 3 53 -1 61 -18 42z"/>
<path d="M314 3005 c1 -49 1 -50 34 -50 l32 -1 -2 51 c-1 42 -2 44 -5 13 -4
-39 -28 -67 -43 -52 -5 5 -11 27 -13 49 -3 33 -4 31 -3 -10z"/>
<path d="M543 3000 c0 -30 2 -43 4 -27 2 15 2 39 0 55 -2 15 -4 2 -4 -28z"/>
<path d="M587 3044 c-16 -16 -6 -42 18 -48 14 -4 25 -11 25 -16 0 -15 -21 -23
-33 -11 -17 17 -31 13 -17 -4 16 -20 44 -19 61 1 11 14 10 18 -6 30 -10 8 -25
14 -32 14 -7 0 -13 4 -13 9 0 18 21 23 37 9 14 -11 16 -11 11 2 -5 16 -39 25
-51 14z"/>
<path d="M810 2978 c0 -39 4 -68 10 -68 6 0 10 11 10 25 0 18 4 23 15 19 22
-9 45 14 45 46 0 34 -17 49 -52 47 -28 -2 -28 -3 -28 -69z m64 39 c12 -18 0
-47 -22 -55 -19 -6 -34 35 -22 59 13 23 28 21 44 -4z"/>
<path d="M912 2995 c1 -46 2 -47 5 -10 2 22 11 45 20 52 13 10 13 12 -6 10
-19 -1 -21 -7 -19 -52z"/>
<path d="M976 3034 c-9 -8 -16 -24 -16 -34 0 -22 25 -50 45 -50 20 0 45 28 45
50 0 22 -25 50 -45 50 -7 0 -21 -7 -29 -16z m49 -34 c0 -28 -4 -35 -20 -35
-13 0 -21 8 -23 23 -5 34 5 54 25 50 13 -2 18 -13 18 -38z"/>
<path d="M1161 3014 c-1 -46 13 -64 47 -61 20 1 22 6 20 52 -1 47 -2 47 -5 10
-8 -73 -39 -72 -53 2 l-8 38 -1 -41z"/>
<path d="M1273 3042 c-12 -8 -18 -31 -15 -64 4 -34 72 -30 72 4 0 5 -7 2 -16
-7 -23 -22 -38 -14 -42 22 -3 34 21 51 44 32 9 -7 14 -8 14 -1 0 18 -37 27
-57 14z"/>
<path d="M1402 3038 c-14 -17 -4 -33 26 -42 12 -4 22 -11 22 -16 0 -15 -21
-23 -33 -11 -17 17 -31 13 -17 -4 16 -20 44 -19 61 1 11 14 10 18 -6 30 -10 8
-25 14 -32 14 -7 0 -13 7 -13 15 0 18 21 20 39 3 11 -11 13 -10 9 2 -6 20 -42
25 -56 8z"/>
<path d="M1591 3036 c-31 -37 9 -103 47 -80 36 23 23 94 -18 94 -10 0 -23 -6
-29 -14z m47 -8 c28 -28 -3 -83 -33 -58 -8 7 -15 20 -15 29 0 17 18 41 30 41
3 0 11 -5 18 -12z"/>
<path d="M6900 2910 c0 -5 5 -10 10 -10 6 0 10 5 10 10 0 6 -4 10 -10 10 -5 0
-10 -4 -10 -10z"/>
<path d="M7070 2908 c0 -7 5 -20 10 -28 8 -12 10 -9 10 13 0 15 -4 27 -10 27
-5 0 -10 -6 -10 -12z"/>
<path d="M7100 2900 c0 -11 5 -20 10 -20 6 0 10 9 10 20 0 11 -4 20 -10 20 -5
0 -10 -9 -10 -20z"/>
<path d="M7450 2900 c0 -13 -5 -18 -15 -14 -22 9 -45 -14 -45 -46 0 -33 17
-50 48 -47 20 1 22 6 22 64 0 35 -2 63 -5 63 -3 0 -5 -9 -5 -20z m-2 -54 c4
-36 -12 -54 -33 -36 -18 15 -20 41 -3 58 18 18 33 9 36 -22z"/>
<path d="M7679 2906 c-2 -10 -2 -41 -1 -67 3 -38 8 -49 20 -48 11 0 12 2 5 6
-8 2 -13 22 -13 44 0 24 5 39 13 39 8 0 9 3 1 8 -6 4 -13 14 -16 22 -4 12 -6
11 -9 -4z"/>
<path d="M7812 2895 c0 -16 2 -22 5 -12 2 9 2 23 0 30 -3 6 -5 -1 -5 -18z"/>
<path d="M7830 2908 c0 -7 5 -20 10 -28 8 -12 10 -9 10 13 0 15 -4 27 -10 27
-5 0 -10 -6 -10 -12z"/>
<path d="M8180 2900 c0 -17 -5 -19 -25 -14 -20 5 -27 1 -36 -20 -19 -40 2 -77
41 -74 30 2 30 2 30 65 0 35 -2 63 -5 63 -3 0 -5 -9 -5 -20z m-6 -43 c12 -18
0 -47 -22 -55 -19 -6 -34 35 -22 59 13 23 28 21 44 -4z"/>
<path d="M6658 2899 c-8 -25 8 -103 22 -107 12 -4 13 -2 3 9 -15 15 -17 61 -4
75 6 5 4 14 -4 21 -9 8 -15 9 -17 2z"/>
<path d="M6716 2874 c-9 -8 -16 -24 -16 -34 0 -21 25 -50 43 -50 25 0 40 19
40 50 0 47 -36 65 -67 34z m38 0 c32 -12 15 -74 -19 -74 -14 0 -25 42 -15 60
12 22 12 22 34 14z"/>
<path d="M6800 2819 c0 -39 4 -69 10 -69 6 0 10 11 10 25 0 18 4 23 15 19 22
-9 45 14 45 46 0 33 -16 48 -52 48 -28 0 -28 -1 -28 -69z m64 38 c8 -12 8 -22
0 -34 -16 -25 -38 -22 -42 5 -7 50 18 67 42 29z"/>
<path d="M6900 2840 c0 -27 5 -50 10 -50 6 0 10 23 10 50 0 28 -4 50 -10 50
-5 0 -10 -22 -10 -50z"/>
<path d="M6952 2878 c-17 -17 -15 -63 3 -78 18 -15 55 -4 55 18 0 13 -2 13
-14 -3 -12 -16 -16 -17 -30 -6 -20 17 -21 45 -1 61 12 10 18 10 32 -1 14 -12
16 -12 11 1 -6 19 -40 24 -56 8z"/>
<path d="M7141 2817 c1 -40 4 -60 6 -46 3 20 9 26 22 22 21 -5 51 21 51 45 0
29 -17 46 -49 48 l-31 2 1 -71z m57 29 c4 -36 -12 -54 -33 -36 -18 15 -20 41
-3 58 18 18 33 9 36 -22z"/>
<path d="M7242 2835 c1 -46 2 -47 5 -10 2 22 11 45 20 52 13 10 13 12 -6 10
-19 -1 -21 -7 -19 -52z"/>
<path d="M7301 2876 c-31 -37 9 -103 47 -80 36 23 23 94 -18 94 -10 0 -23 -6
-29 -14z m47 -8 c28 -28 -3 -83 -33 -58 -8 7 -15 20 -15 29 0 17 18 41 30 41
3 0 11 -5 18 -12z"/>
<path d="M7494 2845 c1 -49 1 -50 34 -50 l32 -1 -2 51 c-1 42 -2 44 -5 13 -4
-39 -28 -67 -43 -52 -5 5 -11 27 -13 49 -3 33 -4 31 -3 -10z"/>
<path d="M7596 2874 c-9 -8 -16 -24 -16 -34 0 -21 25 -50 44 -50 14 0 36 20
36 34 0 5 -9 1 -19 -8 -25 -23 -41 -13 -41 24 0 33 16 48 33 31 17 -17 31 -13
17 4 -16 19 -35 19 -54 -1z"/>
<path d="M7723 2874 c-7 -18 20 -44 44 -44 7 0 13 -5 13 -10 0 -17 -29 -23
-45 -10 -10 8 -15 9 -15 2 0 -17 19 -24 46 -18 36 9 31 41 -8 55 -24 9 -29 14
-20 23 9 9 15 9 24 0 17 -17 33 -15 18 3 -17 20 -49 19 -57 -1z"/>
<path d="M7933 2883 c-7 -2 -13 -9 -13 -15 0 -6 6 -6 15 2 17 14 49 6 43 -12
-3 -7 -15 -15 -29 -18 -15 -4 -24 -13 -24 -25 0 -16 7 -20 38 -22 33 -1 37 2
37 22 0 59 -26 85 -67 68z m36 -74 c-17 -10 -31 -7 -36 8 -5 13 40 22 46 9 2
-4 -3 -12 -10 -17z"/>
<path d="M8022 2836 c1 -42 2 -45 5 -14 4 39 28 67 43 52 5 -5 11 -27 13 -49
3 -33 4 -31 3 10 -1 49 -1 50 -33 51 l-33 1 2 -51z"/>
<path d="M740 2843 c0 -22 2 -25 10 -13 13 20 13 40 0 40 -5 0 -10 -12 -10
-27z"/>
<path d="M772 2845 c0 -16 2 -22 5 -12 2 9 2 23 0 30 -3 6 -5 -1 -5 -18z"/>
<path d="M1120 2850 c0 -13 -5 -18 -15 -14 -22 9 -45 -14 -45 -46 0 -33 17
-50 48 -47 20 1 22 6 22 64 0 35 -2 63 -5 63 -3 0 -5 -9 -5 -20z m-2 -54 c4
-36 -12 -54 -33 -36 -18 15 -20 41 -3 58 18 18 33 9 36 -22z"/>
<path d="M1482 2845 c0 -16 2 -22 5 -12 2 9 2 23 0 30 -3 6 -5 -1 -5 -18z"/>
<path d="M1500 2858 c0 -7 5 -20 10 -28 8 -12 10 -9 10 13 0 15 -4 27 -10 27
-5 0 -10 -6 -10 -12z"/>
<path d="M328 2849 c-8 -25 8 -103 22 -107 12 -4 13 -2 3 9 -15 15 -17 76 -4
81 5 2 3 8 -4 15 -9 8 -15 9 -17 2z"/>
<path d="M1343 2845 c-8 -9 -9 -16 -3 -20 6 -3 10 -24 10 -46 0 -31 4 -39 18
-39 13 0 14 2 4 9 -8 5 -12 25 -11 54 3 53 -1 61 -18 42z"/>
<path d="M386 2824 c-9 -8 -16 -24 -16 -34 0 -21 25 -50 43 -50 25 0 40 19 40
50 0 47 -36 65 -67 34z m38 0 c32 -12 15 -74 -19 -74 -14 0 -25 42 -15 60 12
22 12 22 34 14z"/>
<path d="M470 2768 c0 -39 4 -68 10 -68 6 0 10 11 10 25 0 18 4 23 15 19 22
-9 45 14 45 46 0 34 -17 49 -52 47 -28 -2 -28 -3 -28 -69z m64 39 c12 -18 0
-47 -22 -55 -19 -6 -34 35 -22 59 13 23 28 21 44 -4z"/>
<path d="M573 2790 c0 -30 2 -43 4 -27 2 15 2 39 0 55 -2 15 -4 2 -4 -28z"/>
<path d="M623 2832 c-12 -8 -18 -31 -15 -64 4 -34 72 -30 72 4 0 5 -7 2 -16
-7 -23 -22 -38 -14 -42 22 -3 34 21 51 44 32 9 -7 14 -8 14 -1 0 18 -37 27
-57 14z"/>
<path d="M811 2766 c1 -39 4 -59 6 -45 3 20 9 26 23 22 24 -6 51 34 43 65 -6
24 -6 24 -45 27 l-28 2 1 -71z m59 24 c0 -29 -14 -41 -37 -32 -16 5 -17 44 -2
59 18 18 39 3 39 -27z"/>
<path d="M900 2789 c0 -27 5 -49 10 -49 6 0 10 18 10 40 0 26 6 42 17 48 13 8
11 10 -10 10 -26 0 -27 -3 -27 -49z"/>
<path d="M971 2826 c-31 -37 9 -103 47 -80 36 23 23 94 -18 94 -10 0 -23 -6
-29 -14z m47 -8 c28 -28 -3 -83 -33 -58 -8 7 -15 20 -15 29 0 17 18 41 30 41
3 0 11 -5 18 -12z"/>
<path d="M1164 2795 c1 -49 1 -50 34 -50 l32 -1 -2 51 c-1 42 -2 44 -5 13 -4
-39 -28 -67 -43 -52 -5 5 -11 27 -13 49 -3 33 -4 31 -3 -10z"/>
<path d="M1262 2828 c-15 -15 -16 -60 0 -76 18 -18 46 -14 58 8 13 24 2 27
-15 3 -11 -15 -15 -15 -29 -4 -20 17 -21 45 -1 61 12 10 18 10 32 -1 14 -12
16 -12 11 1 -6 19 -40 24 -56 8z"/>
<path d="M1393 2824 c-7 -18 20 -44 44 -44 7 0 13 -5 13 -10 0 -17 -29 -23
-45 -10 -10 8 -15 9 -15 2 0 -17 19 -24 46 -18 36 9 31 41 -8 55 -24 9 -29 14
-20 23 9 9 15 9 24 0 17 -17 33 -15 18 3 -17 20 -49 19 -57 -1z"/>
<path d="M7281 2643 c1 -47 3 -59 8 -38 5 25 12 31 41 35 62 9 48 70 -16 70
l-34 0 1 -67z m69 42 c17 -20 4 -35 -31 -35 -21 0 -29 5 -29 18 0 10 3 22 7
25 11 12 40 8 53 -8z"/>
<path d="M7610 2690 c0 -17 -5 -19 -25 -14 -20 5 -27 1 -36 -20 -19 -40 2 -77
41 -74 30 2 30 2 30 65 0 35 -2 63 -5 63 -3 0 -5 -9 -5 -20z m-6 -43 c12 -18
0 -47 -22 -55 -19 -6 -34 35 -22 59 13 23 28 21 44 -4z"/>
<path d="M8020 2645 l0 -65 34 0 c25 0 39 7 50 22 36 51 8 108 -52 108 l-32 0
0 -65z m64 42 c24 -18 24 -67 0 -84 -31 -22 -49 -12 -52 31 -5 64 12 82 52 53z"/>
<path d="M8140 2645 l0 -65 39 0 c46 0 66 19 55 52 -4 13 -7 31 -5 42 3 24
-15 36 -56 36 l-33 0 0 -65z m69 46 c19 -12 4 -31 -25 -31 -17 0 -24 5 -24 20
0 21 24 27 49 11z m-5 -47 c35 -13 12 -54 -30 -54 -9 0 -14 11 -14 30 0 30 11
37 44 24z"/>
<path d="M7083 2685 c-8 -9 -9 -16 -3 -20 6 -3 10 -24 10 -46 0 -31 4 -39 18
-39 13 0 14 2 4 9 -8 5 -12 25 -11 54 3 53 -1 61 -18 42z"/>
<path d="M7828 2689 c-8 -25 8 -103 22 -107 12 -4 13 -2 3 9 -15 15 -17 61 -4
75 6 5 4 14 -4 21 -9 8 -15 9 -17 2z"/>
<path d="M6663 2664 c-7 -18 20 -44 44 -44 7 0 13 -5 13 -10 0 -17 -29 -23
-45 -10 -10 8 -15 9 -15 2 0 -17 19 -24 46 -18 36 9 31 41 -8 55 -24 9 -29 14
-20 23 9 9 15 9 24 0 17 -17 33 -15 18 3 -17 20 -49 19 -57 -1z"/>
<path d="M6757 2674 c-14 -14 -7 -26 8 -14 16 13 45 7 45 -10 0 -6 -13 -13
-29 -16 -55 -11 -44 -54 12 -51 27 2 28 4 25 47 -3 40 -6 45 -28 48 -14 2 -29
0 -33 -4z m41 -70 c-16 -16 -38 -12 -38 6 0 8 41 19 49 13 3 -2 -2 -11 -11
-19z"/>
<path d="M6840 2677 c0 -14 33 -97 39 -97 4 0 13 17 20 38 7 20 15 43 18 51 3
8 1 11 -5 7 -6 -3 -13 -20 -17 -36 -4 -17 -10 -30 -15 -30 -5 0 -11 13 -15 30
-4 16 -11 32 -16 35 -5 4 -9 4 -9 2z"/>
<path d="M6942 2668 c-7 -7 -12 -24 -12 -38 0 -47 43 -67 71 -33 13 15 12 15
-9 4 -18 -10 -27 -10 -38 0 -23 19 -16 29 21 29 22 0 35 5 35 13 0 18 -21 37
-40 37 -9 0 -21 -5 -28 -12z m48 -13 c11 -13 8 -15 -20 -15 -28 0 -31 2 -20
15 7 8 16 15 20 15 4 0 13 -7 20 -15z"/>
<path d="M7136 2664 c-9 -8 -16 -24 -16 -34 0 -22 25 -50 45 -50 20 0 45 28
45 50 0 22 -25 50 -45 50 -7 0 -21 -7 -29 -16z m49 -34 c0 -28 -4 -35 -20 -35
-13 0 -21 8 -23 23 -5 34 5 54 25 50 13 -2 18 -13 18 -38z"/>
<path d="M7390 2628 c0 -26 5 -48 10 -48 6 0 10 18 10 40 0 27 6 42 18 49 14
9 13 10 -10 9 -26 -2 -28 -5 -28 -50z"/>
<path d="M7456 2664 c-9 -8 -16 -24 -16 -34 0 -22 25 -50 45 -50 20 0 45 28
45 50 0 22 -25 50 -45 50 -7 0 -21 -7 -29 -16z m49 -34 c0 -28 -4 -35 -20 -35
-13 0 -21 8 -23 23 -5 34 5 54 25 50 13 -2 18 -13 18 -38z"/>
<path d="M7640 2641 c0 -45 14 -60 52 -58 26 2 28 5 28 50 0 58 -18 63 -22 5
-2 -30 -8 -43 -18 -43 -10 0 -16 13 -18 43 -4 53 -22 56 -22 3z"/>
<path d="M7752 2668 c-17 -17 -15 -63 3 -78 18 -15 55 -4 55 18 0 13 -2 13
-14 -3 -12 -16 -16 -17 -30 -6 -20 17 -21 45 -1 61 12 10 18 10 32 -1 14 -12
16 -12 11 1 -6 19 -40 24 -56 8z"/>
<path d="M7887 2674 c-16 -16 -6 -42 18 -48 14 -4 25 -11 25 -16 0 -15 -21
-23 -33 -11 -17 17 -31 13 -17 -4 16 -20 44 -19 61 1 11 14 10 18 -6 30 -10 8
-25 14 -32 14 -7 0 -13 4 -13 9 0 18 21 23 37 9 14 -11 16 -11 11 2 -5 16 -39
25 -51 14z"/>
</g>
</svg>
