<?xml version="1.0" standalone="no"?>
<!DOCTYPE svg PUBLIC "-//W3C//DTD SVG 20010904//EN"
 "http://www.w3.org/TR/2001/REC-SVG-20010904/DTD/svg10.dtd">
<svg version="1.0" xmlns="http://www.w3.org/2000/svg"
 width="976.000000pt" height="657.000000pt" viewBox="0 0 976.000000 657.000000"
 preserveAspectRatio="xMidYMid meet">

<g transform="translate(0.000000,657.000000) scale(0.100000,-0.100000)"
fill="#000000" stroke="none">
<path d="M3511 6377 c-71 -42 -66 -166 8 -197 42 -17 95 -5 121 27 29 37 28
113 -3 148 -27 32 -90 42 -126 22z m91 -44 c23 -20 24 -80 1 -105 -23 -25 -68
-23 -87 4 -48 69 26 156 86 101z"/>
<path d="M3920 6350 c0 -37 -2 -40 -19 -30 -48 25 -91 -7 -91 -70 0 -63 43
-95 91 -70 13 7 19 7 19 0 0 -5 9 -10 20 -10 19 0 20 7 20 110 0 103 -1 110
-20 110 -17 0 -20 -7 -20 -40z m-11 -64 c28 -34 -5 -97 -43 -83 -16 6 -24 76
-9 90 11 12 40 8 52 -7z"/>
<path d="M4370 6279 c0 -100 2 -110 18 -107 14 3 18 17 22 83 l5 80 19 -82
c15 -66 23 -83 37 -83 19 0 21 5 40 93 15 71 29 57 29 -30 0 -56 2 -63 20 -63
19 0 20 7 20 110 l0 110 -34 0 c-34 0 -34 0 -51 -70 -18 -72 -28 -80 -39 -33
-25 103 -25 103 -56 103 l-30 0 0 -111z"/>
<path d="M4620 6375 c0 -8 9 -15 20 -15 11 0 20 7 20 15 0 8 -9 15 -20 15 -11
0 -20 -7 -20 -15z"/>
<path d="M5780 6375 c0 -8 9 -15 20 -15 11 0 20 7 20 15 0 8 -9 15 -20 15 -11
0 -20 -7 -20 -15z"/>
<path d="M3700 6249 c0 -72 2 -79 20 -79 17 0 20 7 20 49 0 62 7 81 31 81 10
0 19 6 19 14 0 10 -13 14 -45 14 l-45 0 0 -79z"/>
<path d="M4015 6305 c-66 -65 14 -168 97 -124 16 9 18 13 7 20 -8 4 -24 6 -37
2 -22 -5 -52 11 -52 28 0 5 23 9 50 9 47 0 50 2 50 25 0 32 -33 65 -65 65 -14
0 -37 -11 -50 -25z m75 -20 c11 -13 7 -15 -24 -15 -34 0 -44 8 -29 23 11 12
40 8 53 -8z"/>
<path d="M4170 6250 c0 -73 2 -80 20 -80 16 0 19 8 22 63 3 56 5 62 26 65 12
2 22 10 22 18 0 17 -31 19 -48 2 -9 -9 -12 -9 -12 0 0 7 -7 12 -15 12 -12 0
-15 -16 -15 -80z"/>
<path d="M4620 6250 c0 -73 2 -80 20 -80 18 0 20 7 20 80 0 73 -2 80 -20 80
-18 0 -20 -7 -20 -80z"/>
<path d="M4719 6311 c-18 -14 -24 -29 -24 -61 0 -32 6 -47 24 -61 28 -23 70
-25 97 -4 16 13 17 16 4 25 -19 13 -30 13 -30 0 0 -14 -33 -13 -48 2 -17 17
-15 63 4 79 12 10 20 10 35 1 12 -8 26 -9 36 -4 13 8 12 11 -8 26 -31 21 -61
20 -90 -3z"/>
<path d="M4870 6250 c0 -73 2 -80 20 -80 16 0 19 8 22 63 3 56 5 62 26 65 12
2 22 10 22 18 0 17 -31 19 -48 2 -9 -9 -12 -9 -12 0 0 7 -7 12 -15 12 -12 0
-15 -16 -15 -80z"/>
<path d="M4999 6311 c-18 -14 -24 -29 -24 -60 0 -49 18 -70 67 -78 30 -4 41
-1 62 20 72 72 -26 182 -105 118z m79 -23 c7 -7 12 -24 12 -38 0 -51 -52 -69
-72 -25 -22 49 25 98 60 63z"/>
<path d="M5176 6317 c-32 -23 -17 -59 32 -77 24 -9 44 -21 45 -26 3 -13 -41
-18 -56 -6 -7 5 -21 6 -31 3 -18 -7 -18 -8 5 -24 39 -28 101 -21 119 13 16 30
1 48 -51 65 -27 9 -47 21 -43 26 8 13 52 11 56 -3 3 -8 9 -8 22 -1 17 9 17 11
1 26 -20 20 -74 22 -99 4z"/>
<path d="M5345 6305 c-66 -65 14 -168 97 -124 16 9 18 13 7 20 -8 4 -24 6 -37
2 -22 -5 -52 11 -52 28 0 5 25 9 55 9 55 0 55 0 49 28 -14 61 -76 80 -119 37z
m75 -20 c11 -13 7 -15 -24 -15 -34 0 -44 8 -29 23 11 12 40 8 53 -8z"/>
<path d="M5500 6249 c0 -72 2 -79 20 -79 17 0 20 7 20 49 0 62 7 81 31 81 10
0 19 6 19 14 0 10 -13 14 -45 14 l-45 0 0 -79z"/>
<path d="M5603 6318 c71 -181 79 -185 120 -75 32 86 32 87 11 87 -13 0 -23
-17 -49 -85 -6 -17 -10 -11 -27 33 -15 38 -26 52 -40 52 -12 0 -18 -5 -15 -12z"/>
<path d="M5780 6250 c0 -73 2 -80 20 -80 18 0 20 7 20 80 0 73 -2 80 -20 80
-18 0 -20 -7 -20 -80z"/>
<path d="M5885 6305 c-16 -15 -25 -36 -25 -55 0 -37 39 -80 72 -80 13 0 34 7
47 16 21 15 22 18 6 26 -11 7 -21 6 -28 -1 -16 -16 -44 -13 -51 5 -20 53 6
100 43 77 9 -5 25 -7 35 -3 18 6 18 7 -5 23 -33 24 -66 21 -94 -8z"/>
<path d="M6045 6305 c-66 -65 14 -168 97 -124 16 9 18 13 7 20 -8 4 -24 6 -37
2 -22 -5 -52 11 -52 28 0 5 25 9 55 9 55 0 55 0 49 28 -14 61 -76 80 -119 37z
m75 -20 c11 -13 7 -15 -24 -15 -34 0 -44 8 -29 23 11 12 40 8 53 -8z"/>
<path d="M4436 5823 c-37 -37 -47 -173 -18 -232 18 -37 51 -59 38 -25 -28 72
-28 142 0 242 6 21 -5 30 -20 15z"/>
<path d="M4517 5812 c-20 -22 -22 -57 -4 -73 11 -11 10 -16 -5 -31 -10 -10
-18 -25 -18 -33 0 -25 46 -65 75 -65 51 0 86 70 50 100 -11 9 -13 16 -5 24 16
16 12 61 -8 79 -24 22 -65 21 -85 -1z m68 -42 c0 -18 -6 -26 -21 -28 -23 -3
-37 18 -27 44 10 25 48 13 48 -16z m0 -95 c0 -23 -5 -31 -21 -33 -24 -3 -38
20 -28 50 4 13 13 18 27 16 17 -2 22 -10 22 -33z"/>
<path d="M4689 5811 c-21 -17 -24 -28 -24 -91 0 -63 3 -74 24 -91 30 -24 56
-24 80 0 55 55 27 201 -38 201 -10 0 -29 -9 -42 -19z m65 -37 c3 -9 6 -33 6
-54 0 -51 -8 -70 -30 -70 -10 0 -21 7 -24 16 -8 21 -8 109 1 117 12 13 41 7
47 -9z"/>
<path d="M4852 5814 c-26 -18 -29 -56 -6 -75 14 -11 14 -13 0 -21 -25 -14 -21
-74 6 -92 46 -32 108 -7 108 43 0 16 -6 34 -14 40 -12 10 -12 16 -1 38 31 60
-35 108 -93 67z m63 -44 c0 -18 -6 -26 -22 -28 -20 -3 -23 1 -23 28 0 27 3 31
23 28 16 -2 22 -10 22 -28z m0 -95 c0 -23 -5 -30 -19 -30 -28 0 -43 29 -26 50
21 25 45 14 45 -20z"/>
<path d="M5014 5805 c-25 -25 -25 -45 1 -45 7 0 16 7 19 16 8 21 50 14 54 -9
2 -11 -16 -39 -47 -72 -71 -75 -68 -85 19 -85 63 0 70 2 70 20 0 17 -7 20 -40
20 -22 0 -40 2 -40 4 0 2 18 22 40 44 45 45 52 80 20 112 -27 27 -66 25 -96
-5z"/>
<path d="M5176 5783 c8 -25 14 -67 14 -93 0 -26 -6 -68 -14 -93 -18 -59 2 -66
29 -11 29 61 31 132 5 192 -29 68 -54 72 -34 5z"/>
<path d="M8441 5504 c-99 -17 -209 -54 -257 -86 -62 -42 -64 -55 -64 -367 l0
-281 -50 25 c-52 27 -57 26 -40 -6 11 -19 -7 -19 -1255 -19 l-1265 0 0 190 0
190 -820 0 -820 0 0 -190 0 -190 -50 25 c-52 27 -57 26 -40 -6 11 -19 -4 -19
-1127 -17 l-1138 3 -3 188 -2 187 -755 0 -755 0 0 -380 0 -380 755 0 755 0 0
185 0 185 1140 0 c1125 0 1141 0 1130 -19 -17 -32 -12 -33 40 -6 l50 25 0
-185 0 -185 440 0 440 0 0 -310 0 -310 -1315 0 -1315 0 2 -1252 3 -1253 593
-3 592 -2 0 -375 0 -375 1380 0 1380 0 0 1380 0 1380 -1380 0 -1380 0 0 -1000
0 -1000 -585 0 -585 0 0 1245 0 1245 1310 0 1310 0 0 315 0 315 375 0 375 0 0
185 0 185 1265 0 c1263 0 1266 0 1255 -20 -6 -11 -8 -20 -5 -20 3 0 23 9 45
20 22 11 42 20 45 20 3 0 5 -97 5 -216 0 -241 4 -261 64 -302 162 -110 634
-137 896 -51 95 31 138 56 160 92 19 31 20 53 20 547 0 494 -1 516 -20 547
-33 55 -145 100 -315 128 -113 19 -370 18 -484 -1z m468 -9 c141 -21 255 -59
299 -100 l37 -33 3 -519 c2 -405 0 -523 -10 -543 -88 -167 -779 -204 -1034
-55 -76 44 -74 31 -74 565 0 258 3 470 8 470 4 -1 23 -14 42 -31 43 -36 158
-74 293 -95 191 -31 475 -10 636 47 59 20 131 66 131 82 0 6 -10 2 -22 -9 -40
-35 -72 -52 -148 -74 -255 -76 -626 -64 -832 28 -124 54 -132 139 -19 196 149
76 452 107 690 71z m-7409 -725 l0 -370 -745 0 -745 0 0 370 0 370 745 0 745
0 0 -370z m4000 0 l0 -370 -805 0 -805 0 0 370 0 370 805 0 805 0 0 -370z
m560 -2880 l0 -1370 -1370 0 -1370 0 0 370 0 370 295 0 c162 0 295 -3 295 -6
0 -3 -5 -14 -11 -25 -9 -18 -6 -18 40 6 28 14 53 25 56 25 3 0 5 -112 5 -250
l0 -250 755 0 755 0 0 320 0 320 -755 0 -755 0 0 -65 0 -65 -50 25 c-59 30
-64 31 -50 6 5 -11 10 -22 10 -25 0 -4 -132 -5 -292 -4 l-293 3 -3 993 -2 992
1370 0 1370 0 0 -1370z m-560 -810 l0 -310 -745 0 -745 0 0 310 0 310 745 0
745 0 0 -310z"/>
<path d="M8373 4704 c-15 -24 -15 -29 -2 -53 29 -51 89 -35 89 23 0 59 -55 78
-87 30z m66 -13 c13 -24 -8 -55 -35 -49 -20 3 -30 29 -20 54 8 20 43 17 55 -5z"/>
<path d="M8590 4712 c0 -13 -7 -18 -22 -18 -20 1 -23 -4 -23 -34 0 -32 2 -35
33 -37 l32 -1 0 54 c0 30 -4 54 -10 54 -5 0 -10 -8 -10 -18z m0 -52 c0 -11 -6
-20 -14 -20 -18 0 -29 16 -21 30 11 18 35 11 35 -10z"/>
<path d="M8820 4675 c0 -54 1 -55 28 -55 36 0 52 17 52 55 0 38 -16 55 -52 55
-27 0 -28 -1 -28 -55z m65 16 c9 -28 -5 -51 -31 -51 -21 0 -24 5 -24 35 0 30
3 35 24 35 15 0 27 -7 31 -19z"/>
<path d="M8920 4674 l0 -55 43 3 c42 3 42 3 42 43 1 52 -10 65 -51 65 l-34 0
0 -56z m70 26 c0 -5 -11 -10 -25 -10 -14 0 -25 5 -25 10 0 6 11 10 25 10 14 0
25 -4 25 -10z m0 -45 c0 -9 -9 -15 -25 -15 -16 0 -25 6 -25 15 0 9 9 15 25 15
16 0 25 -6 25 -15z"/>
<path d="M8480 4659 c0 -22 5 -39 10 -39 6 0 10 14 10 30 0 20 5 30 15 30 8 0
15 4 15 9 0 5 -11 9 -25 9 -22 0 -25 -5 -25 -39z"/>
<path d="M8637 4694 c-4 -4 -7 -20 -7 -36 0 -31 20 -45 48 -33 15 7 14 9 -8
15 -25 8 -25 8 -2 9 18 1 23 6 20 24 -3 22 -36 36 -51 21z m40 -20 c-3 -3 -12
-4 -19 -1 -8 3 -5 6 6 6 11 1 17 -2 13 -5z"/>
<path d="M8721 4655 c2 -31 3 -34 6 -12 3 16 11 31 19 34 21 8 17 22 -6 20
-17 -1 -20 -8 -19 -42z"/>
<path d="M563 4804 c-15 -24 -15 -29 -2 -53 16 -28 45 -37 69 -21 12 7 12 12
2 22 -9 9 -12 9 -12 -1 0 -7 -9 -11 -22 -9 -18 2 -23 10 -23 33 0 23 5 31 23
33 13 2 22 -2 22 -9 0 -10 3 -10 12 -1 10 10 10 15 -2 22 -26 17 -49 11 -67
-16z"/>
<path d="M660 4775 c0 -30 5 -55 10 -55 6 0 10 25 10 55 0 30 -4 55 -10 55 -5
0 -10 -25 -10 -55z"/>
<path d="M922 4807 c-15 -18 0 -81 21 -85 9 -2 17 1 17 7 0 6 -4 11 -10 11
-14 0 -12 38 2 42 9 3 8 9 -4 21 -12 13 -18 14 -26 4z"/>
<path d="M713 4760 c0 -25 2 -35 4 -22 2 12 2 32 0 45 -2 12 -4 2 -4 -23z"/>
<path d="M750 4785 c-25 -30 9 -76 46 -60 17 7 15 9 -11 15 l-30 8 28 1 c28 1
35 19 15 39 -16 16 -33 15 -48 -3z m37 -11 c-3 -3 -12 -4 -19 -1 -8 3 -5 6 6
6 11 1 17 -2 13 -5z"/>
<path d="M830 4759 c0 -21 5 -39 10 -39 6 0 10 14 10 30 0 20 5 30 15 30 10 0
15 -10 15 -30 0 -16 5 -30 11 -30 6 0 9 16 7 38 -3 34 -6 37 -35 39 -32 1 -33
0 -33 -38z"/>
<path d="M4023 4804 c-15 -24 -15 -29 -2 -53 29 -51 89 -35 89 23 0 59 -55 78
-87 30z m66 -13 c13 -24 -8 -55 -35 -49 -20 3 -30 29 -20 54 8 20 43 17 55 -5z"/>
<path d="M4240 4812 c0 -13 -7 -18 -22 -18 -20 1 -23 -4 -23 -34 0 -32 2 -35
33 -37 l32 -1 0 54 c0 30 -4 54 -10 54 -5 0 -10 -8 -10 -18z m0 -52 c0 -11 -6
-20 -14 -20 -18 0 -29 16 -21 30 11 18 35 11 35 -10z"/>
<path d="M4472 4773 c1 -56 2 -57 6 -13 l5 45 12 -39 c15 -53 31 -56 43 -9
l10 38 1 -37 c2 -60 21 -44 21 17 0 66 -22 76 -41 18 l-13 -38 -9 38 c-15 61
-37 48 -35 -20z"/>
<path d="M4590 4820 c0 -5 5 -10 10 -10 6 0 10 5 10 10 0 6 -4 10 -10 10 -5 0
-10 -4 -10 -10z"/>
<path d="M5170 4820 c0 -5 5 -10 10 -10 6 0 10 5 10 10 0 6 -4 10 -10 10 -5 0
-10 -4 -10 -10z"/>
<path d="M4130 4759 c0 -22 5 -39 10 -39 6 0 10 14 10 30 0 20 5 30 15 30 8 0
15 4 15 9 0 5 -11 9 -25 9 -22 0 -25 -5 -25 -39z"/>
<path d="M4287 4793 c-4 -3 -7 -19 -7 -35 0 -31 20 -45 48 -33 15 7 14 9 -8
15 l-25 8 28 1 c30 1 32 4 17 32 -10 19 -40 26 -53 12z m40 -19 c-3 -3 -12 -4
-19 -1 -8 3 -5 6 6 6 11 1 17 -2 13 -5z"/>
<path d="M4371 4755 c2 -31 3 -34 6 -12 3 16 11 31 19 34 21 8 17 22 -6 20
-17 -1 -20 -8 -19 -42z"/>
<path d="M4590 4760 c0 -22 5 -40 10 -40 6 0 10 18 10 40 0 22 -4 40 -10 40
-5 0 -10 -18 -10 -40z"/>
<path d="M4640 4785 c-15 -18 -10 -45 12 -59 14 -8 22 -7 35 7 17 18 17 18 -9
12 -24 -6 -28 -4 -28 15 0 19 4 21 27 15 23 -5 25 -4 14 9 -17 20 -35 20 -51
1z"/>
<path d="M4721 4755 c2 -31 3 -34 6 -12 3 16 11 31 19 34 21 8 17 22 -6 20
-17 -1 -20 -8 -19 -42z"/>
<path d="M4782 4788 c-25 -25 -6 -68 30 -68 9 0 22 9 28 20 22 40 -26 80 -58
48z m43 -28 c0 -8 -8 -16 -17 -18 -13 -2 -18 3 -18 18 0 15 5 20 18 18 9 -2
17 -10 17 -18z"/>
<path d="M4867 4793 c-13 -12 -7 -22 21 -37 l27 -15 -29 -1 c-22 0 -27 -3 -19
-11 15 -15 57 -7 61 12 2 11 -7 21 -25 27 -25 9 -26 11 -5 11 12 1 22 6 22 11
0 11 -43 14 -53 3z"/>
<path d="M4950 4785 c-25 -30 9 -76 46 -60 17 7 15 9 -11 15 l-30 8 28 1 c28
1 35 19 15 39 -16 16 -33 15 -48 -3z m37 -11 c-3 -3 -12 -4 -19 -1 -8 3 -5 6
6 6 11 1 17 -2 13 -5z"/>
<path d="M5030 4758 c0 -21 5 -38 10 -38 6 0 10 13 10 29 0 20 6 30 20 34 15
4 22 -2 30 -29 7 -19 15 -34 19 -34 4 0 15 18 24 40 8 22 11 40 6 40 -5 0 -14
-12 -20 -27 l-11 -28 -10 27 c-8 23 -15 27 -44 26 -33 -1 -34 -3 -34 -40z"/>
<path d="M5170 4760 c0 -22 5 -40 10 -40 6 0 10 18 10 40 0 22 -4 40 -10 40
-5 0 -10 -18 -10 -40z"/>
<path d="M5222 4788 c-16 -16 -15 -43 3 -58 17 -14 47 -10 53 8 3 9 -3 11 -22
6 -22 -5 -26 -3 -26 16 0 19 4 21 26 16 19 -5 25 -3 22 6 -6 18 -40 22 -56 6z"/>
<path d="M5307 4794 c-4 -4 -7 -20 -7 -36 0 -31 20 -45 48 -33 15 7 14 9 -8
15 -25 8 -25 8 -2 9 18 1 23 6 20 24 -3 22 -36 36 -51 21z m40 -20 c-3 -3 -12
-4 -19 -1 -8 3 -5 6 6 6 11 1 17 -2 13 -5z"/>
<path d="M4490 2780 c0 -33 4 -60 10 -60 6 0 10 11 10 24 0 37 17 40 35 6 8
-16 20 -30 25 -30 15 0 12 12 -10 45 -19 29 -19 29 2 52 18 19 19 23 5 23 -8
0 -25 -12 -36 -26 l-21 -27 0 27 c0 14 -4 26 -10 26 -6 0 -10 -27 -10 -60z"/>
<path d="M4700 2826 c0 -8 -6 -17 -12 -20 -10 -5 -10 -7 0 -12 6 -3 12 -21 12
-40 0 -19 5 -34 10 -34 8 0 14 41 13 88 -1 6 3 12 8 12 5 0 9 5 9 10 0 6 -9
10 -20 10 -11 0 -20 -6 -20 -14z"/>
<path d="M4750 2780 c0 -33 4 -60 10 -60 6 0 10 10 11 23 l0 22 16 -22 c22
-33 36 -28 19 6 -11 21 -12 31 -4 39 17 17 1 27 -17 12 -13 -11 -15 -9 -15 14
0 14 -4 26 -10 26 -6 0 -10 -27 -10 -60z"/>
<path d="M4607 2803 c-15 -14 -5 -23 21 -18 l27 5 -28 -12 c-40 -17 -34 -52
11 -55 29 -1 32 1 32 27 0 16 -3 35 -6 44 -6 16 -45 22 -57 9z m38 -53 c-3 -5
-10 -10 -16 -10 -5 0 -9 5 -9 10 0 6 7 10 16 10 8 0 12 -4 9 -10z"/>
<path d="M4847 2804 c-14 -14 -7 -22 16 -17 19 3 18 2 -6 -12 -39 -22 -32 -50
11 -50 32 -1 33 0 30 40 -2 31 -7 41 -23 43 -12 2 -24 0 -28 -4z m33 -54 c0
-5 -7 -10 -16 -10 -8 0 -12 5 -9 10 3 6 10 10 16 10 5 0 9 -4 9 -10z"/>
<path d="M4000 1890 l0 -320 755 0 755 0 0 320 0 320 -755 0 -755 0 0 -320z
m1500 5 l0 -305 -745 0 -745 0 0 305 0 305 745 0 745 0 0 -305z"/>
<path d="M4441 1893 c1 -32 4 -48 6 -35 3 15 11 22 28 22 13 0 28 8 34 17 15
27 -5 53 -39 53 -30 0 -30 0 -29 -57z m54 22 c0 -5 -10 -11 -22 -13 -16 -2
-23 2 -23 13 0 11 7 15 23 13 12 -2 22 -7 22 -13z"/>
<path d="M4740 1932 c0 -13 -7 -18 -21 -18 -12 1 -26 -7 -33 -16 -15 -25 4
-53 38 -54 25 -1 26 1 26 52 0 30 -2 54 -5 54 -3 0 -5 -8 -5 -18z m-5 -52 c0
-8 -8 -16 -17 -18 -13 -2 -18 3 -18 18 0 15 5 20 18 18 9 -2 17 -10 17 -18z"/>
<path d="M4946 1922 c-9 -15 17 -82 31 -82 7 0 13 5 13 10 0 6 -4 10 -10 10
-14 0 -12 37 3 43 9 4 8 8 -3 16 -18 13 -27 14 -34 3z"/>
<path d="M4541 1875 c2 -31 3 -34 6 -12 3 16 11 31 19 34 21 8 17 22 -6 20
-17 -1 -20 -8 -19 -42z"/>
<path d="M4600 1905 c-26 -32 13 -81 48 -59 34 22 22 74 -18 74 -10 0 -23 -7
-30 -15z m50 -25 c0 -11 -6 -20 -14 -20 -18 0 -29 16 -21 30 11 18 35 11 35
-10z"/>
<path d="M4783 1885 c2 -38 4 -40 35 -42 31 -1 32 0 32 38 0 44 -17 54 -22 12
-4 -39 -26 -40 -37 -1 l-10 33 2 -40z"/>
<path d="M4874 1906 c-3 -8 -4 -25 -2 -38 4 -27 39 -36 57 -14 11 13 8 15 -16
13 -19 -1 -28 3 -28 13 0 9 9 15 23 14 28 -1 23 20 -6 24 -13 2 -25 -3 -28
-12z"/>
<path d="M5007 1913 c-15 -14 -5 -33 21 -40 l27 -7 -30 -6 c-26 -6 -27 -8 -11
-15 20 -9 47 3 48 20 0 6 -10 16 -23 22 l-24 13 23 0 c13 0 20 4 17 10 -7 11
-38 13 -48 3z"/>
<path d="M4523 1114 c-15 -24 -15 -29 -2 -53 29 -51 89 -35 89 23 0 59 -55 78
-87 30z m66 -13 c13 -24 -8 -55 -35 -49 -20 3 -30 29 -20 54 8 20 43 17 55 -5z"/>
<path d="M4740 1122 c0 -13 -7 -18 -22 -18 -20 1 -23 -4 -23 -34 0 -32 2 -35
33 -37 l32 -1 0 54 c0 30 -4 54 -10 54 -5 0 -10 -8 -10 -18z m0 -52 c0 -21
-24 -28 -35 -10 -8 14 3 30 21 30 8 0 14 -9 14 -20z"/>
<path d="M4630 1069 c0 -22 5 -39 10 -39 6 0 10 14 10 30 0 20 5 30 15 30 8 0
15 4 15 9 0 5 -11 9 -25 9 -22 0 -25 -5 -25 -39z"/>
<path d="M4787 1103 c-4 -3 -7 -19 -7 -35 0 -31 20 -45 48 -33 15 7 14 9 -8
15 l-25 8 28 1 c30 1 32 4 17 32 -10 19 -40 26 -53 12z m40 -19 c-3 -3 -12 -4
-19 -1 -8 3 -5 6 6 6 11 1 17 -2 13 -5z"/>
<path d="M4871 1065 c2 -31 3 -34 6 -12 3 16 11 31 19 34 21 8 17 22 -6 20
-17 -1 -20 -8 -19 -42z"/>
<path d="M4927 1103 c-15 -14 -5 -33 21 -40 l27 -7 -30 -6 c-26 -6 -27 -8 -11
-15 20 -9 47 3 48 20 0 6 -10 16 -23 22 l-24 13 23 0 c13 0 20 4 17 10 -7 11
-38 13 -48 3z"/>
<path d="M2470 5425 c0 -37 4 -65 10 -65 6 0 10 14 10 30 0 26 3 30 29 30 38
0 56 22 41 49 -8 16 -21 21 -50 21 l-40 0 0 -65z m69 46 c21 -13 5 -41 -24
-41 -20 0 -25 5 -25 25 0 26 22 33 49 16z"/>
<path d="M2613 5482 c-6 -4 -17 -20 -22 -35 -24 -63 49 -117 92 -69 47 52 -13
141 -70 104z m61 -18 c30 -30 10 -94 -29 -94 -40 0 -62 79 -27 99 24 15 38 13
56 -5z"/>
<path d="M2736 5475 c-21 -22 -10 -43 28 -53 17 -5 32 -15 34 -24 4 -23 -27
-31 -54 -13 -25 16 -33 8 -12 -13 16 -16 50 -15 74 2 25 19 9 47 -35 60 -30 9
-43 35 -18 37 23 2 42 -3 49 -14 5 -8 8 -6 8 4 0 30 -49 39 -74 14z"/>
<path d="M2848 5483 c20 -4 22 -10 22 -64 0 -33 4 -59 10 -59 6 0 10 26 10 59
0 54 2 60 23 64 12 2 -3 4 -33 4 -30 0 -45 -2 -32 -4z"/>
<path d="M1657 5273 c-3 -5 -10 -27 -17 -51 -6 -24 -14 -51 -17 -60 -3 -9 -3
-14 1 -11 8 7 46 129 41 129 -2 0 -6 -3 -8 -7z"/>
<path d="M1900 5260 c0 -17 -5 -19 -25 -14 -20 5 -27 1 -36 -20 -19 -40 2 -77
41 -74 30 2 30 2 30 65 0 35 -2 63 -5 63 -3 0 -5 -9 -5 -20z m-6 -43 c12 -18
0 -47 -22 -55 -19 -6 -34 35 -22 59 13 23 28 21 44 -4z"/>
<path d="M2186 5219 c-10 -33 -16 -63 -13 -65 2 -2 11 24 21 57 9 34 15 63 13
66 -2 2 -12 -24 -21 -58z"/>
<path d="M2320 5215 c0 -37 4 -65 10 -65 6 0 10 28 10 65 0 37 -4 65 -10 65
-6 0 -10 -28 -10 -65z"/>
<path d="M2920 5260 c0 -17 -5 -19 -25 -14 -20 5 -27 1 -36 -20 -19 -40 2 -77
41 -74 30 2 30 2 30 65 0 35 -2 63 -5 63 -3 0 -5 -9 -5 -20z m-6 -43 c12 -18
0 -47 -22 -55 -19 -6 -34 35 -22 59 13 23 28 21 44 -4z"/>
<path d="M3137 5273 c-3 -5 -10 -27 -17 -51 -6 -24 -14 -51 -17 -60 -3 -9 -3
-14 1 -11 8 7 46 129 41 129 -2 0 -6 -3 -8 -7z"/>
<path d="M3740 5260 c0 -13 -5 -18 -15 -14 -22 9 -45 -14 -45 -46 0 -33 16
-48 53 -48 27 0 27 1 27 64 0 36 -4 64 -10 64 -5 0 -10 -9 -10 -20z m-2 -54
c4 -36 -12 -54 -33 -36 -18 15 -20 41 -3 58 18 18 33 9 36 -22z"/>
<path d="M1691 5236 c-31 -37 9 -103 47 -80 36 23 23 94 -18 94 -10 0 -23 -6
-29 -14z m47 -8 c28 -28 -3 -83 -33 -58 -8 7 -15 20 -15 29 0 17 18 41 30 41
3 0 11 -5 18 -12z"/>
<path d="M1782 5195 c1 -46 2 -47 5 -10 2 22 11 45 20 52 13 10 13 12 -6 10
-19 -1 -21 -7 -19 -52z"/>
<path d="M1942 5238 c-7 -7 -12 -24 -12 -38 0 -47 43 -67 71 -33 13 15 12 15
-9 4 -18 -10 -27 -10 -38 0 -23 19 -16 29 21 29 22 0 35 5 35 13 0 18 -21 37
-40 37 -9 0 -21 -5 -28 -12z m48 -13 c11 -13 8 -15 -20 -15 -28 0 -31 2 -20
15 7 8 16 15 20 15 4 0 13 -7 20 -15z"/>
<path d="M2030 5198 c0 -26 5 -48 10 -48 6 0 10 18 10 40 0 27 6 42 18 49 14
9 13 10 -10 9 -26 -2 -28 -5 -28 -50z"/>
<path d="M2097 5244 c-16 -16 -6 -42 18 -48 14 -4 25 -11 25 -16 0 -15 -21
-23 -33 -11 -17 17 -31 13 -17 -4 16 -20 44 -19 61 1 11 14 10 18 -6 30 -10 8
-25 14 -32 14 -7 0 -13 4 -13 9 0 18 21 23 37 9 14 -11 16 -11 11 2 -5 16 -39
25 -51 14z"/>
<path d="M2231 5176 c1 -39 4 -59 6 -45 3 20 9 26 23 22 24 -6 51 34 43 65 -6
24 -6 24 -45 27 l-28 2 1 -71z m59 24 c0 -29 -14 -41 -37 -32 -16 5 -17 44 -2
59 18 18 39 3 39 -27z"/>
<path d="M2373 5243 c-7 -2 -13 -9 -13 -15 0 -6 6 -6 15 2 17 14 49 6 43 -12
-3 -7 -15 -15 -29 -18 -15 -4 -24 -13 -24 -25 0 -16 7 -20 38 -22 33 -1 37 2
37 22 0 59 -26 85 -67 68z m36 -74 c-17 -10 -31 -7 -36 8 -5 13 40 22 46 9 2
-4 -3 -12 -10 -17z"/>
<path d="M2473 5242 c-12 -8 -18 -31 -15 -64 4 -34 72 -30 72 4 0 5 -7 2 -16
-7 -23 -22 -38 -14 -42 22 -3 34 21 51 44 32 9 -7 14 -8 14 -1 0 18 -37 27
-57 14z"/>
<path d="M2556 5234 c-9 -8 -16 -24 -16 -34 0 -19 25 -50 40 -50 17 0 40 13
40 22 0 6 -6 5 -15 -2 -18 -15 -45 -6 -45 15 0 10 10 15 35 15 29 0 33 3 28
18 -13 34 -42 41 -67 16z m52 -11 c2 -8 -6 -13 -22 -13 -25 0 -33 10 -19 24
10 10 36 3 41 -11z"/>
<path d="M2711 5236 c-31 -37 9 -103 47 -80 36 23 23 94 -18 94 -10 0 -23 -6
-29 -14z m47 -8 c28 -28 -3 -83 -33 -58 -8 7 -15 20 -15 29 0 17 18 41 30 41
3 0 11 -5 18 -12z"/>
<path d="M2802 5195 c1 -46 2 -47 5 -10 2 22 11 45 20 52 13 10 13 12 -6 10
-19 -1 -21 -7 -19 -52z"/>
<path d="M2962 5238 c-7 -7 -12 -24 -12 -38 0 -47 43 -67 71 -33 13 15 12 15
-9 4 -18 -10 -27 -10 -38 0 -23 19 -16 29 21 29 22 0 35 5 35 13 0 18 -21 37
-40 37 -9 0 -21 -5 -28 -12z m48 -13 c11 -13 8 -15 -20 -15 -28 0 -31 2 -20
15 7 8 16 15 20 15 4 0 13 -7 20 -15z"/>
<path d="M3050 5198 c0 -26 5 -48 10 -48 6 0 10 18 10 40 0 27 6 42 18 49 14
9 13 10 -10 9 -26 -2 -28 -5 -28 -50z"/>
<path d="M3214 5205 c1 -49 1 -50 34 -50 l32 -1 -2 51 c-1 42 -2 44 -5 13 -4
-39 -28 -67 -43 -52 -5 5 -11 27 -13 49 -3 33 -4 31 -3 -10z"/>
<path d="M3303 5234 c-7 -18 20 -44 44 -44 7 0 13 -5 13 -10 0 -17 -29 -23
-45 -10 -10 8 -15 9 -15 2 0 -17 19 -24 46 -18 36 9 31 41 -8 55 -24 9 -29 14
-20 23 9 9 15 9 24 0 17 -17 33 -15 18 3 -17 20 -49 19 -57 -1z"/>
<path d="M3402 5238 c-7 -7 -12 -24 -12 -38 0 -46 43 -67 70 -35 15 18 -1 20
-18 3 -8 -8 -15 -8 -27 2 -24 20 -18 30 20 30 22 0 35 5 35 13 0 18 -21 37
-40 37 -9 0 -21 -5 -28 -12z m46 -16 c2 -7 -7 -12 -22 -12 -27 0 -35 15 -13
23 17 7 30 3 35 -11z"/>
<path d="M3492 5195 c1 -46 2 -47 5 -10 2 22 11 45 20 52 13 10 13 12 -6 10
-19 -1 -21 -7 -19 -52z"/>
<path d="M3653 5200 c0 -30 2 -43 4 -27 2 15 2 39 0 55 -2 15 -4 2 -4 -28z"/>
<path d="M3160 5230 c0 -5 5 -10 10 -10 6 0 10 5 10 10 0 6 -4 10 -10 10 -5 0
-10 -4 -10 -10z"/>
<path d="M2640 5190 c0 -5 9 -10 20 -10 11 0 20 5 20 10 0 6 -9 10 -20 10 -11
0 -20 -4 -20 -10z"/>
<path d="M3160 5160 c0 -5 5 -10 10 -10 6 0 10 5 10 10 0 6 -4 10 -10 10 -5 0
-10 -4 -10 -10z"/>
<path d="M3558 5123 c18 -2 45 -2 60 0 15 2 0 4 -33 4 -33 0 -45 -2 -27 -4z"/>
<path d="M2260 5005 c0 -37 4 -65 10 -65 6 0 10 14 10 30 0 26 3 30 29 30 38
0 56 22 41 49 -8 16 -21 21 -50 21 l-40 0 0 -65z m69 46 c21 -13 5 -41 -24
-41 -20 0 -25 5 -25 25 0 26 22 33 49 16z"/>
<path d="M2383 5005 c0 -38 2 -53 4 -32 2 20 2 52 0 70 -2 17 -4 1 -4 -38z"/>
<path d="M2960 5050 c0 -13 -5 -18 -15 -14 -22 9 -45 -14 -45 -46 0 -33 17
-50 48 -47 20 1 22 6 22 64 0 35 -2 63 -5 63 -3 0 -5 -9 -5 -20z m-2 -54 c4
-36 -12 -54 -33 -36 -18 15 -20 41 -3 58 18 18 33 9 36 -22z"/>
<path d="M2420 5025 c-15 -18 1 -20 18 -3 9 9 15 9 24 0 14 -14 3 -28 -27 -34
-12 -2 -20 -11 -20 -23 0 -16 7 -20 38 -20 36 -1 37 0 37 35 0 55 -40 81 -70
45z m50 -50 c0 -20 -28 -31 -42 -17 -10 10 8 23 40 31 1 1 2 -6 2 -14z"/>
<path d="M2522 5028 c-17 -17 -15 -63 3 -78 18 -15 55 -4 55 18 0 13 -2 13
-14 -3 -12 -16 -16 -17 -30 -6 -20 17 -21 45 -1 61 12 10 18 10 32 -1 14 -12
16 -12 11 1 -6 19 -40 24 -56 8z"/>
<path d="M2613 5032 c-21 -13 -26 -58 -7 -76 19 -20 55 -18 62 4 4 12 3 13
-10 2 -18 -15 -48 -6 -48 14 0 9 12 14 35 14 38 0 44 10 19 34 -17 17 -32 20
-51 8z m45 -19 c2 -8 -6 -13 -22 -13 -25 0 -33 10 -19 24 10 10 36 3 41 -11z"/>
<path d="M2756 5024 c-9 -8 -16 -24 -16 -34 0 -21 25 -50 43 -50 25 0 40 19
40 50 0 47 -36 65 -67 34z m38 0 c32 -12 15 -74 -19 -74 -14 0 -25 42 -15 60
12 22 12 22 34 14z"/>
<path d="M2840 4989 c0 -27 5 -49 10 -49 6 0 10 18 10 40 0 26 6 42 17 48 13
8 11 10 -10 10 -26 0 -27 -3 -27 -49z"/>
<path d="M3013 5032 c-21 -13 -26 -58 -7 -76 19 -20 55 -18 62 4 4 12 3 13
-10 2 -18 -15 -48 -6 -48 14 0 9 12 14 35 14 38 0 44 10 19 34 -17 17 -32 20
-51 8z m45 -19 c2 -8 -6 -13 -22 -13 -25 0 -33 10 -19 24 10 10 36 3 41 -11z"/>
<path d="M3102 4985 c1 -46 2 -47 5 -10 2 22 11 45 20 52 13 10 13 12 -6 10
-19 -1 -21 -7 -19 -52z"/>
<path d="M650 3005 c0 -37 4 -65 10 -65 6 0 10 13 10 29 0 27 3 30 37 33 69 6
52 68 -18 68 l-39 0 0 -65z m70 45 c27 -15 14 -40 -21 -40 -24 0 -29 4 -29 25
0 27 18 32 50 15z"/>
<path d="M871 3010 c-1 -62 0 -66 23 -68 29 -2 49 19 49 54 0 29 -19 46 -45
40 -11 -2 -18 3 -21 18 -2 11 -5 -8 -6 -44z m59 -20 c0 -16 -6 -30 -12 -33
-24 -8 -38 5 -38 33 0 16 6 30 13 33 23 8 37 -5 37 -33z"/>
<path d="M960 3005 c0 -37 4 -65 10 -65 6 0 10 28 10 65 0 37 -4 65 -10 65 -6
0 -10 -28 -10 -65z"/>
<path d="M1000 3060 c0 -5 5 -10 10 -10 6 0 10 5 10 10 0 6 -4 10 -10 10 -5 0
-10 -4 -10 -10z"/>
<path d="M1133 3005 c0 -38 2 -53 4 -33 4 39 28 67 43 52 5 -5 11 -27 13 -49
3 -33 4 -31 3 10 -1 48 -2 50 -28 48 -20 -1 -28 4 -31 20 -2 12 -4 -9 -4 -48z"/>
<path d="M1490 3050 c0 -17 -5 -19 -24 -14 -18 4 -27 1 -35 -14 -23 -43 -7
-75 38 -78 l31 -2 0 64 c0 35 -2 64 -5 64 -3 0 -5 -9 -5 -20z m-6 -43 c8 -12
8 -22 0 -34 -16 -25 -38 -22 -42 5 -7 50 18 67 42 29z"/>
<path d="M1818 3049 c-8 -25 8 -103 22 -107 12 -4 13 -2 3 9 -15 15 -17 61 -4
75 6 5 4 14 -4 21 -9 8 -15 9 -17 2z"/>
<path d="M774 2995 c1 -49 1 -50 34 -50 l32 -1 -2 51 c-1 42 -2 44 -5 13 -4
-39 -28 -67 -43 -52 -5 5 -11 27 -13 49 -3 33 -4 31 -3 -10z"/>
<path d="M1000 2990 c0 -27 5 -50 10 -50 6 0 10 23 10 50 0 28 -4 50 -10 50
-5 0 -10 -22 -10 -50z"/>
<path d="M1043 3024 c-7 -18 20 -44 44 -44 7 0 13 -5 13 -10 0 -17 -29 -23
-45 -10 -10 8 -15 9 -15 2 0 -17 19 -24 46 -18 36 9 31 41 -8 55 -24 9 -29 14
-20 23 9 9 15 9 24 0 17 -17 33 -15 18 3 -17 20 -49 19 -57 -1z"/>
<path d="M1281 3026 c-31 -37 9 -103 47 -80 36 23 23 94 -18 94 -10 0 -23 -6
-29 -14z m47 -8 c28 -28 -3 -83 -33 -58 -8 7 -15 20 -15 29 0 17 18 41 30 41
3 0 11 -5 18 -12z"/>
<path d="M1370 2988 c0 -26 5 -48 10 -48 6 0 10 18 10 40 0 27 6 42 18 49 14
9 13 10 -10 9 -26 -2 -28 -5 -28 -50z"/>
<path d="M1536 3024 c-9 -8 -16 -24 -16 -34 0 -19 25 -50 40 -50 17 0 40 13
40 22 0 6 -6 5 -15 -2 -18 -15 -45 -6 -45 15 0 10 10 15 35 15 29 0 33 3 28
18 -13 34 -42 41 -67 16z m52 -11 c2 -8 -6 -13 -22 -13 -25 0 -33 10 -19 24
10 10 36 3 41 -11z"/>
<path d="M1620 2989 c0 -27 5 -49 10 -49 6 0 10 18 10 40 0 26 6 42 17 48 13
8 11 10 -10 10 -26 0 -27 -3 -27 -49z"/>
<path d="M1683 3024 c-7 -18 20 -44 44 -44 7 0 13 -5 13 -10 0 -17 -29 -23
-45 -10 -10 8 -15 9 -15 2 0 -17 19 -24 46 -18 36 9 31 41 -8 55 -24 9 -29 14
-20 23 9 9 15 9 24 0 17 -17 33 -15 18 3 -17 20 -49 19 -57 -1z"/>
<path d="M1876 3024 c-20 -20 -20 -48 0 -68 31 -31 67 -13 67 34 0 47 -36 65
-67 34z m38 0 c32 -12 15 -74 -19 -74 -14 0 -25 42 -15 60 12 22 12 22 34 14z"/>
<path d="M1030 2850 c0 -5 5 -10 10 -10 6 0 10 5 10 10 0 6 -4 10 -10 10 -5 0
-10 -4 -10 -10z"/>
<path d="M1200 2848 c0 -7 5 -20 10 -28 8 -12 10 -9 10 13 0 15 -4 27 -10 27
-5 0 -10 -6 -10 -12z"/>
<path d="M1230 2840 c0 -11 5 -20 10 -20 6 0 10 9 10 20 0 11 -4 20 -10 20 -5
0 -10 -9 -10 -20z"/>
<path d="M1480 2840 c0 -13 -5 -18 -15 -14 -22 9 -45 -14 -45 -46 0 -33 16
-48 53 -48 27 0 27 1 27 64 0 36 -4 64 -10 64 -5 0 -10 -9 -10 -20z m-2 -54
c4 -36 -12 -54 -33 -36 -18 15 -20 41 -3 58 18 18 33 9 36 -22z"/>
<path d="M1760 2833 c0 -22 2 -25 10 -13 13 20 13 40 0 40 -5 0 -10 -12 -10
-27z"/>
<path d="M1792 2835 c0 -16 2 -22 5 -12 2 9 2 23 0 30 -3 6 -5 -1 -5 -18z"/>
<path d="M788 2839 c-8 -25 8 -103 22 -107 12 -4 13 -2 3 9 -15 15 -17 61 -4
75 6 5 4 14 -4 21 -9 8 -15 9 -17 2z"/>
<path d="M846 2814 c-9 -8 -16 -24 -16 -34 0 -21 25 -50 43 -50 25 0 40 19 40
50 0 47 -36 65 -67 34z m38 0 c32 -12 15 -74 -19 -74 -14 0 -25 42 -15 60 12
22 12 22 34 14z"/>
<path d="M930 2759 c0 -39 4 -69 10 -69 6 0 10 11 10 25 0 18 4 23 15 19 22
-9 45 14 45 46 0 33 -16 48 -52 48 -28 0 -28 -1 -28 -69z m64 38 c8 -12 8 -22
0 -34 -16 -25 -38 -22 -42 5 -7 50 18 67 42 29z"/>
<path d="M1030 2780 c0 -27 5 -50 10 -50 6 0 10 23 10 50 0 28 -4 50 -10 50
-5 0 -10 -22 -10 -50z"/>
<path d="M1082 2818 c-17 -17 -15 -63 3 -78 18 -15 55 -4 55 18 0 13 -2 13
-14 -3 -12 -16 -16 -17 -30 -6 -20 17 -21 45 -1 61 12 10 18 10 32 -1 14 -12
16 -12 11 1 -6 19 -40 24 -56 8z"/>
<path d="M1276 2814 c-9 -8 -16 -24 -16 -34 0 -22 25 -50 45 -50 20 0 45 28
45 50 0 22 -25 50 -45 50 -7 0 -21 -7 -29 -16z m49 -34 c0 -28 -4 -35 -20 -35
-13 0 -21 8 -23 23 -5 34 5 54 25 50 13 -2 18 -13 18 -38z"/>
<path d="M1372 2775 c1 -46 2 -47 5 -10 2 22 11 45 20 52 13 10 13 12 -6 10
-19 -1 -21 -7 -19 -52z"/>
<path d="M1532 2818 c-7 -7 -12 -24 -12 -38 0 -46 43 -67 70 -35 15 18 -1 20
-18 3 -8 -8 -15 -8 -27 2 -24 20 -18 30 20 30 22 0 35 5 35 13 0 18 -21 37
-40 37 -9 0 -21 -5 -28 -12z m46 -16 c2 -7 -7 -12 -22 -12 -27 0 -35 15 -13
23 17 7 30 3 35 -11z"/>
<path d="M1622 2775 c1 -46 2 -47 5 -10 2 22 11 45 20 52 13 10 13 12 -6 10
-19 -1 -21 -7 -19 -52z"/>
<path d="M1682 2818 c-14 -17 -4 -33 26 -42 12 -4 22 -11 22 -16 0 -15 -21
-23 -33 -11 -17 17 -31 13 -17 -4 16 -20 44 -19 61 1 11 14 10 18 -6 30 -10 8
-25 14 -32 14 -7 0 -13 7 -13 15 0 18 21 20 39 3 11 -11 13 -10 9 2 -6 20 -42
25 -56 8z"/>
</g>
</svg>
