<?xml version="1.0" standalone="no"?>
<!DOCTYPE svg PUBLIC "-//W3C//DTD SVG 20010904//EN"
 "http://www.w3.org/TR/2001/REC-SVG-20010904/DTD/svg10.dtd">
<svg version="1.0" xmlns="http://www.w3.org/2000/svg"
 width="971.000000pt" height="636.000000pt" viewBox="0 0 971.000000 636.000000"
 preserveAspectRatio="xMidYMid meet">

<g transform="translate(0.000000,636.000000) scale(0.100000,-0.100000)"
fill="#000000" stroke="none">
<path d="M4210 6090 c0 -103 1 -110 20 -110 17 0 20 7 20 39 0 38 0 38 47 44
52 6 73 25 73 69 0 47 -31 68 -100 68 l-60 0 0 -110z m110 55 c18 -21 -4 -45
-41 -45 -26 0 -29 4 -29 30 0 26 3 30 29 30 16 0 34 -7 41 -15z"/>
<path d="M5373 6160 c-3 -11 -9 -20 -14 -20 -5 0 -9 -7 -9 -15 0 -8 5 -15 10
-15 6 0 10 -27 10 -60 0 -55 2 -60 24 -66 25 -6 46 1 46 15 0 5 -9 11 -20 14
-16 4 -20 14 -20 51 0 34 4 46 15 46 8 0 15 7 15 15 0 8 -7 15 -15 15 -8 0
-15 9 -15 20 0 11 -5 20 -11 20 -6 0 -13 -9 -16 -20z"/>
<path d="M4421 6124 c-21 -15 -22 -18 -6 -26 11 -7 21 -6 28 1 18 18 49 14 45
-6 -2 -10 -17 -20 -36 -24 -42 -9 -55 -21 -50 -49 5 -34 31 -47 68 -33 16 6
30 7 30 2 0 -5 8 -9 18 -9 15 0 17 9 14 67 -4 74 -16 93 -62 93 -14 0 -36 -7
-49 -16z m67 -91 c-4 -23 -48 -31 -48 -10 0 9 6 18 13 20 25 11 38 7 35 -10z"/>
<path d="M4560 6132 c0 -5 11 -37 25 -72 30 -77 31 -100 5 -107 -29 -8 -25
-33 5 -33 14 0 30 9 39 23 12 18 76 182 76 194 0 2 -8 3 -18 3 -13 0 -24 -16
-39 -57 l-20 -58 -18 58 c-14 42 -23 57 -37 57 -10 0 -18 -4 -18 -8z"/>
<path d="M4740 6060 c0 -73 2 -80 20 -80 16 0 19 8 22 63 3 56 5 62 26 65 21
3 22 0 22 -62 0 -59 2 -66 20 -66 18 0 20 7 20 54 0 56 17 83 45 72 11 -4 15
-21 15 -66 0 -53 2 -60 20 -60 18 0 20 7 20 59 0 43 -5 65 -19 82 -17 22 -22
23 -51 12 -25 -9 -36 -9 -51 0 -14 9 -26 9 -49 0 -16 -6 -30 -7 -30 -2 0 5 -7
9 -15 9 -12 0 -15 -16 -15 -80z"/>
<path d="M5025 6115 c-66 -65 14 -168 97 -124 16 9 18 13 7 20 -8 4 -24 6 -37
2 -22 -5 -52 11 -52 28 0 5 23 9 50 9 47 0 50 2 50 25 0 32 -33 65 -65 65 -14
0 -37 -11 -50 -25z m75 -20 c11 -13 7 -15 -24 -15 -34 0 -44 8 -29 23 11 12
40 8 53 -8z"/>
<path d="M5180 6060 c0 -64 3 -80 15 -80 11 0 15 11 15 39 0 55 15 91 39 91
24 0 31 -19 31 -81 0 -42 3 -49 20 -49 17 0 20 7 20 49 0 91 -26 124 -81 104
-16 -7 -29 -7 -29 -2 0 5 -7 9 -15 9 -12 0 -15 -16 -15 -80z"/>
<path d="M3920 5729 c0 -100 2 -110 18 -107 14 3 18 17 22 83 l5 80 19 -82
c15 -66 23 -83 37 -83 19 0 21 5 40 93 15 71 29 57 29 -30 0 -56 2 -63 20 -63
19 0 20 7 20 110 l0 110 -34 0 c-34 0 -34 0 -51 -70 -18 -72 -28 -80 -39 -33
-25 103 -25 103 -56 103 l-30 0 0 -111z"/>
<path d="M4170 5825 c0 -8 9 -15 20 -15 11 0 20 7 20 15 0 8 -9 15 -20 15 -11
0 -20 -7 -20 -15z"/>
<path d="M5340 5825 c0 -8 7 -15 15 -15 8 0 15 7 15 15 0 8 -7 15 -15 15 -8 0
-15 -7 -15 -15z"/>
<path d="M4170 5700 c0 -73 2 -80 20 -80 18 0 20 7 20 80 0 73 -2 80 -20 80
-18 0 -20 -7 -20 -80z"/>
<path d="M4269 5761 c-18 -14 -24 -29 -24 -61 0 -32 6 -47 24 -61 28 -23 70
-25 97 -4 16 13 17 16 4 25 -19 13 -30 13 -30 0 0 -14 -33 -13 -48 2 -17 17
-15 63 4 79 12 10 20 10 35 1 12 -8 26 -9 36 -4 13 8 12 11 -8 26 -31 21 -61
20 -90 -3z"/>
<path d="M4420 5700 c0 -73 2 -80 20 -80 16 0 19 8 22 63 3 56 5 62 26 65 12
2 22 10 22 18 0 17 -31 19 -48 2 -9 -9 -12 -9 -12 0 0 7 -7 12 -15 12 -12 0
-15 -16 -15 -80z"/>
<path d="M4549 5761 c-18 -14 -24 -29 -24 -60 0 -49 18 -70 67 -78 30 -4 41
-1 62 20 72 72 -26 182 -105 118z m79 -23 c7 -7 12 -24 12 -38 0 -51 -52 -69
-72 -25 -22 49 25 98 60 63z"/>
<path d="M4726 5767 c-32 -23 -17 -59 32 -77 24 -9 44 -21 45 -26 3 -13 -41
-18 -56 -6 -7 5 -21 6 -31 3 -18 -7 -18 -8 5 -24 39 -28 101 -21 119 13 16 30
1 48 -51 65 -27 9 -47 21 -43 26 8 13 52 11 56 -3 3 -8 9 -8 22 -1 17 9 17 11
1 26 -20 20 -74 22 -99 4z"/>
<path d="M4895 5755 c-66 -65 14 -168 97 -124 16 9 18 13 7 20 -8 4 -24 6 -37
2 -22 -5 -52 11 -52 28 0 5 25 9 55 9 55 0 55 0 49 28 -14 61 -76 80 -119 37z
m75 -20 c11 -13 7 -15 -24 -15 -34 0 -44 8 -29 23 11 12 40 8 53 -8z"/>
<path d="M5050 5699 c0 -72 2 -79 20 -79 17 0 20 7 20 49 0 62 7 81 31 81 10
0 19 6 19 14 0 10 -13 14 -45 14 l-45 0 0 -79z"/>
<path d="M5153 5768 c71 -181 79 -185 120 -75 32 86 32 87 11 87 -13 0 -23
-17 -49 -85 -6 -17 -10 -11 -27 33 -15 38 -26 52 -40 52 -12 0 -18 -5 -15 -12z"/>
<path d="M5340 5700 c0 -64 3 -80 15 -80 12 0 15 16 15 80 0 64 -3 80 -15 80
-12 0 -15 -16 -15 -80z"/>
<path d="M5435 5755 c-16 -15 -25 -36 -25 -55 0 -37 39 -80 72 -80 13 0 34 7
47 16 21 15 22 18 6 26 -11 7 -21 6 -28 -1 -16 -16 -44 -13 -51 5 -20 53 6
100 43 77 9 -5 25 -7 35 -3 18 6 18 7 -5 23 -33 24 -66 21 -94 -8z"/>
<path d="M5600 5760 c-29 -29 -28 -103 2 -124 26 -19 61 -20 90 -5 27 15 5 30
-33 22 -21 -4 -30 0 -38 16 -11 20 -10 21 44 21 49 0 55 2 55 20 0 29 -44 70
-75 70 -14 0 -34 -9 -45 -20z m78 -27 c2 -9 -8 -13 -33 -13 -33 0 -36 2 -25
15 15 18 51 16 58 -2z"/>
<path d="M8441 5314 c-99 -17 -209 -54 -257 -86 -62 -42 -64 -55 -64 -367 l0
-281 -50 25 c-52 27 -57 26 -40 -6 11 -19 -7 -19 -1255 -19 l-1265 0 0 190 0
190 -820 0 -820 0 0 -190 0 -190 -50 25 c-52 27 -57 26 -40 -6 11 -19 -4 -19
-1127 -17 l-1138 3 -3 188 -2 187 -755 0 -755 0 0 -380 0 -380 755 0 755 0 0
185 0 185 1140 0 c1125 0 1141 0 1130 -19 -17 -32 -12 -33 40 -6 l50 25 0
-185 0 -185 820 0 820 0 0 185 0 185 1265 0 c1263 0 1266 0 1255 -20 -6 -11
-8 -20 -5 -20 3 0 23 9 45 20 22 11 42 20 45 20 3 0 5 -97 5 -216 0 -241 4
-261 64 -302 162 -110 634 -137 896 -51 95 31 138 56 160 92 19 31 20 53 20
547 0 494 -1 516 -20 547 -33 55 -145 100 -315 128 -113 19 -370 18 -484 -1z
m468 -9 c141 -21 255 -59 299 -100 l37 -33 3 -519 c2 -405 0 -523 -10 -543
-88 -167 -779 -204 -1034 -55 -76 44 -74 31 -74 565 0 258 3 470 8 470 4 -1
23 -14 42 -31 43 -36 158 -74 293 -95 191 -31 475 -10 636 47 59 20 131 66
131 82 0 6 -10 2 -22 -9 -40 -35 -72 -52 -148 -74 -255 -76 -626 -64 -832 28
-124 54 -132 139 -19 196 149 76 452 107 690 71z m-7409 -725 l0 -370 -745 0
-745 0 0 370 0 370 745 0 745 0 0 -370z m4000 0 l0 -370 -805 0 -805 0 0 370
0 370 805 0 805 0 0 -370z"/>
<path d="M8391 4573 c1 -32 4 -48 6 -35 3 15 11 22 28 22 13 0 28 8 34 17 15
27 -5 53 -39 53 -30 0 -30 0 -29 -57z m54 22 c0 -5 -10 -11 -22 -13 -16 -2
-23 2 -23 13 0 11 7 15 23 13 12 -2 22 -7 22 -13z"/>
<path d="M8962 4607 c-15 -18 0 -81 21 -85 9 -2 17 1 17 7 0 6 -4 11 -10 11
-14 0 -12 38 2 42 9 3 8 9 -4 21 -12 13 -18 14 -26 4z"/>
<path d="M8490 4590 c0 -5 10 -10 23 -10 18 0 19 -2 7 -10 -10 -6 -11 -10 -2
-10 6 0 12 -4 12 -10 0 -5 -7 -10 -15 -10 -8 0 -15 5 -15 12 0 9 -3 9 -11 1
-17 -17 -2 -32 31 -31 24 1 30 5 30 24 0 38 -11 54 -36 54 -13 0 -24 -4 -24
-10z"/>
<path d="M8560 4595 c0 -3 7 -22 15 -42 11 -27 12 -39 4 -49 -9 -11 -8 -14 0
-14 11 0 30 35 45 88 4 12 3 22 -2 22 -6 0 -13 -12 -17 -27 l-8 -28 -10 28
c-9 23 -27 38 -27 22z"/>
<path d="M8650 4559 c0 -21 5 -39 10 -39 6 0 10 14 10 30 0 43 30 41 31 -2 l1
-33 9 33 c12 40 29 42 29 2 0 -16 5 -30 11 -30 6 0 9 16 7 37 l-3 38 -52 1
-53 2 0 -39z"/>
<path d="M8790 4585 c-25 -30 9 -76 46 -60 17 7 15 9 -11 15 l-30 8 28 1 c28
1 35 19 15 39 -16 16 -33 15 -48 -3z m37 -11 c-3 -3 -12 -4 -19 -1 -8 3 -5 6
6 6 11 1 17 -2 13 -5z"/>
<path d="M8871 4555 l1 -40 9 33 c12 41 39 43 39 2 0 -16 5 -30 10 -30 12 0
13 49 2 67 -4 6 -19 10 -35 10 -25 -2 -27 -5 -26 -42z"/>
<path d="M8610 4395 c0 -54 0 -55 29 -55 51 0 76 44 51 91 -8 13 -21 19 -45
19 l-35 0 0 -55z m65 0 c0 -23 -5 -31 -22 -33 -20 -3 -23 1 -23 33 0 32 3 36
23 33 17 -2 22 -10 22 -33z"/>
<path d="M8720 4396 l0 -56 35 0 c33 0 64 28 48 44 -3 3 -6 18 -7 33 -1 25 -5
28 -38 31 l-38 3 0 -55z m60 24 c0 -5 -11 -10 -25 -10 -14 0 -25 5 -25 10 0 6
11 10 25 10 14 0 25 -4 25 -10z m1 -45 c0 -5 -12 -11 -26 -13 -18 -2 -25 1
-25 13 0 12 7 15 25 13 14 -2 26 -7 26 -13z"/>
<path d="M563 4614 c-15 -24 -15 -29 -2 -53 16 -28 45 -37 69 -21 12 7 12 12
2 22 -9 9 -12 9 -12 -1 0 -7 -9 -11 -22 -9 -18 2 -23 10 -23 33 0 23 5 31 23
33 13 2 22 -2 22 -9 0 -10 3 -10 12 -1 10 10 10 15 -2 22 -26 17 -49 11 -67
-16z"/>
<path d="M660 4585 c0 -30 5 -55 10 -55 6 0 10 25 10 55 0 30 -4 55 -10 55 -5
0 -10 -25 -10 -55z"/>
<path d="M922 4617 c-15 -18 0 -81 21 -85 9 -2 17 1 17 7 0 6 -4 11 -10 11
-14 0 -12 38 2 42 9 3 8 9 -4 21 -12 13 -18 14 -26 4z"/>
<path d="M713 4570 c0 -25 2 -35 4 -22 2 12 2 32 0 45 -2 12 -4 2 -4 -23z"/>
<path d="M750 4595 c-25 -30 9 -76 46 -60 17 7 15 9 -11 15 l-30 8 28 1 c28 1
35 19 15 39 -16 16 -33 15 -48 -3z m37 -11 c-3 -3 -12 -4 -19 -1 -8 3 -5 6 6
6 11 1 17 -2 13 -5z"/>
<path d="M830 4569 c0 -21 5 -39 10 -39 6 0 10 14 10 30 0 20 5 30 15 30 10 0
15 -10 15 -30 0 -16 5 -30 11 -30 6 0 9 16 7 38 -3 34 -6 37 -35 39 -32 1 -33
0 -33 -38z"/>
<path d="M4371 4673 c1 -32 4 -48 6 -35 3 15 11 22 28 22 13 0 28 8 34 17 15
27 -5 53 -39 53 -30 0 -30 0 -29 -57z m54 22 c0 -5 -10 -11 -22 -13 -16 -2
-23 2 -23 13 0 11 7 15 23 13 12 -2 22 -7 22 -13z"/>
<path d="M4942 4707 c-15 -18 0 -81 21 -85 9 -2 17 1 17 7 0 6 -4 11 -10 11
-14 0 -12 38 2 42 9 3 8 9 -4 21 -12 13 -18 14 -26 4z"/>
<path d="M4470 4690 c0 -5 10 -10 23 -10 18 0 19 -2 7 -10 -10 -6 -11 -10 -2
-10 6 0 12 -4 12 -10 0 -5 -7 -10 -15 -10 -8 0 -15 5 -15 12 0 9 -3 9 -11 1
-17 -17 -2 -32 31 -31 24 1 30 5 30 24 0 38 -11 54 -36 54 -13 0 -24 -4 -24
-10z"/>
<path d="M4540 4695 c0 -3 7 -22 15 -42 11 -27 12 -39 4 -49 -9 -11 -8 -14 0
-14 11 0 30 35 45 88 4 12 3 22 -2 22 -6 0 -13 -12 -17 -27 l-8 -28 -10 28
c-9 23 -27 38 -27 22z"/>
<path d="M4630 4659 c0 -21 5 -39 10 -39 6 0 10 14 10 30 0 43 30 41 31 -2 l1
-33 9 33 c12 40 29 42 29 2 0 -16 5 -30 11 -30 6 0 9 16 7 37 l-3 38 -52 1
-53 2 0 -39z"/>
<path d="M4770 4685 c-25 -30 9 -76 46 -60 17 7 15 9 -11 15 l-30 8 28 1 c28
1 35 19 15 39 -16 16 -33 15 -48 -3z m37 -11 c-3 -3 -12 -4 -19 -1 -8 3 -5 6
6 6 11 1 17 -2 13 -5z"/>
<path d="M4850 4659 c0 -21 5 -39 10 -39 6 0 10 14 10 30 0 20 5 30 15 30 10
0 15 -10 15 -30 0 -16 5 -30 11 -30 6 0 9 16 7 38 -3 34 -6 37 -35 39 -32 1
-33 0 -33 -38z"/>
<path d="M4240 4496 c0 -62 19 -79 21 -18 l1 37 10 -38 c12 -45 28 -44 42 4
l10 34 7 -40 c6 -38 6 -37 8 18 1 68 -21 80 -36 20 l-10 -38 -10 35 c-5 20
-17 36 -26 38 -14 3 -17 -5 -17 -52z"/>
<path d="M4373 4480 c0 -25 2 -35 4 -22 2 12 2 32 0 45 -2 12 -4 2 -4 -23z"/>
<path d="M4410 4501 c-15 -29 4 -63 32 -59 30 4 36 29 6 26 -15 -2 -23 2 -23
12 0 10 8 14 23 12 30 -3 24 22 -6 26 -13 2 -25 -4 -32 -17z"/>
<path d="M4490 4479 c0 -22 5 -39 10 -39 6 0 10 14 10 30 0 20 5 30 15 30 8 0
15 4 15 9 0 5 -11 9 -25 9 -22 0 -25 -5 -25 -39z"/>
<path d="M4550 4501 c-25 -47 36 -83 64 -38 8 12 8 22 0 35 -16 25 -51 27 -64
3z m50 -21 c0 -21 -24 -28 -35 -10 -8 14 3 30 21 30 8 0 14 -9 14 -20z"/>
<path d="M4647 4513 c-15 -14 -5 -33 21 -40 l27 -7 -30 -6 c-24 -6 -27 -8 -12
-14 9 -5 24 -6 32 -2 22 8 18 35 -7 46 l-23 9 23 0 c13 1 20 5 17 11 -7 11
-38 13 -48 3z"/>
<path d="M4727 4513 c-4 -3 -7 -19 -7 -35 0 -31 20 -45 48 -33 15 7 14 9 -8
15 l-25 8 28 1 c30 1 32 4 17 32 -10 19 -40 26 -53 12z m40 -19 c-3 -3 -12 -4
-19 -1 -8 3 -5 6 6 6 11 1 17 -2 13 -5z"/>
<path d="M4811 4475 l1 -40 9 31 c13 47 36 50 53 9 8 -19 18 -35 21 -35 6 0
35 63 35 75 0 16 -18 1 -27 -22 l-10 -28 -8 28 c-6 24 -12 27 -41 25 -33 -2
-34 -3 -33 -43z"/>
<path d="M4953 4480 c0 -25 2 -35 4 -22 2 12 2 32 0 45 -2 12 -4 2 -4 -23z"/>
<path d="M4994 4506 c-3 -8 -4 -25 -2 -38 4 -27 39 -36 57 -14 11 13 8 15 -16
13 -19 -1 -28 3 -28 13 0 9 9 15 23 14 28 -1 23 20 -6 24 -13 2 -25 -3 -28
-12z"/>
<path d="M5077 4513 c-4 -3 -7 -19 -7 -35 0 -31 20 -45 48 -33 15 7 14 9 -8
15 l-25 8 28 1 c30 1 32 4 17 32 -10 19 -40 26 -53 12z m40 -19 c-3 -3 -12 -4
-19 -1 -8 3 -5 6 6 6 11 1 17 -2 13 -5z"/>
<path d="M2470 5235 c0 -37 4 -65 10 -65 6 0 10 14 10 30 0 26 3 30 29 30 38
0 56 22 41 49 -8 16 -21 21 -50 21 l-40 0 0 -65z m69 46 c21 -13 5 -41 -24
-41 -20 0 -25 5 -25 25 0 26 22 33 49 16z"/>
<path d="M2613 5292 c-6 -4 -17 -20 -22 -35 -24 -63 49 -117 92 -69 47 52 -13
141 -70 104z m61 -18 c30 -30 10 -94 -29 -94 -40 0 -62 79 -27 99 24 15 38 13
56 -5z"/>
<path d="M2736 5285 c-21 -22 -10 -43 28 -53 17 -5 32 -15 34 -24 4 -23 -27
-31 -54 -13 -25 16 -33 8 -12 -13 16 -16 50 -15 74 2 25 19 9 47 -35 60 -30 9
-43 35 -18 37 23 2 42 -3 49 -14 5 -8 8 -6 8 4 0 30 -49 39 -74 14z"/>
<path d="M2848 5293 c20 -4 22 -10 22 -64 0 -33 4 -59 10 -59 6 0 10 26 10 59
0 54 2 60 23 64 12 2 -3 4 -33 4 -30 0 -45 -2 -32 -4z"/>
<path d="M4436 5273 c-37 -37 -47 -173 -18 -232 18 -37 51 -59 38 -25 -28 72
-28 142 0 242 6 21 -5 30 -20 15z"/>
<path d="M4517 5262 c-20 -22 -22 -57 -4 -73 11 -11 10 -16 -5 -31 -10 -10
-18 -25 -18 -33 0 -25 46 -65 75 -65 51 0 86 70 50 100 -11 9 -13 16 -5 24 16
16 12 61 -8 79 -24 22 -65 21 -85 -1z m68 -42 c0 -29 -38 -41 -48 -16 -10 26
4 47 27 44 15 -2 21 -10 21 -28z m0 -95 c0 -23 -5 -31 -21 -33 -24 -3 -38 20
-28 50 4 13 13 18 27 16 17 -2 22 -10 22 -33z"/>
<path d="M4689 5261 c-21 -17 -24 -28 -24 -91 0 -63 3 -74 24 -91 30 -24 56
-24 80 0 55 55 27 201 -38 201 -10 0 -29 -9 -42 -19z m65 -37 c3 -9 6 -33 6
-54 0 -51 -8 -70 -30 -70 -10 0 -21 7 -24 16 -8 21 -8 109 1 117 12 13 41 7
47 -9z"/>
<path d="M4852 5264 c-26 -18 -29 -56 -6 -75 14 -11 14 -13 0 -21 -25 -14 -21
-74 6 -92 46 -32 108 -7 108 43 0 16 -6 34 -14 40 -12 10 -12 16 -1 38 31 60
-35 108 -93 67z m63 -44 c0 -18 -6 -26 -22 -28 -20 -3 -23 1 -23 28 0 27 3 31
23 28 16 -2 22 -10 22 -28z m0 -95 c0 -23 -5 -30 -19 -30 -28 0 -43 29 -26 50
21 25 45 14 45 -20z"/>
<path d="M5020 5260 c-11 -11 -20 -24 -20 -29 0 -19 23 -24 35 -8 7 10 20 17
29 17 20 0 22 -38 1 -46 -22 -9 -18 -31 6 -37 15 -4 20 -12 17 -29 -4 -27 -37
-37 -50 -14 -10 18 -34 21 -43 6 -9 -15 41 -60 68 -60 55 0 88 74 47 103 -18
13 -19 16 -5 27 22 18 18 56 -7 74 -30 21 -54 20 -78 -4z"/>
<path d="M5176 5233 c8 -25 14 -67 14 -93 0 -26 -6 -68 -14 -93 -18 -59 2 -66
29 -11 29 61 31 132 5 192 -29 68 -54 72 -34 5z"/>
<path d="M1986 5029 c-10 -33 -16 -63 -13 -65 2 -2 11 24 21 57 9 34 15 63 13
66 -2 2 -12 -24 -21 -58z"/>
<path d="M2706 5030 c-11 -37 -22 -60 -29 -57 -15 5 -21 55 -9 70 7 8 6 16 -3
24 -18 17 -22 2 -15 -56 4 -37 9 -47 26 -49 17 -2 23 6 38 59 9 34 15 63 13
66 -2 2 -12 -24 -21 -57z"/>
<path d="M3010 5070 c0 -17 -5 -19 -24 -14 -18 4 -27 1 -35 -14 -23 -43 -7
-75 38 -78 l31 -2 0 64 c0 35 -2 64 -5 64 -3 0 -5 -9 -5 -20z m-6 -43 c8 -12
8 -22 0 -34 -16 -25 -38 -22 -42 5 -7 50 18 67 42 29z"/>
<path d="M3300 5080 c0 -5 5 -10 10 -10 6 0 10 5 10 10 0 6 -4 10 -10 10 -5 0
-10 -4 -10 -10z"/>
<path d="M3400 5070 c0 -17 -5 -19 -24 -14 -18 4 -27 1 -35 -14 -23 -43 -7
-75 38 -78 l31 -2 0 64 c0 35 -2 64 -5 64 -3 0 -5 -9 -5 -20z m-6 -43 c8 -12
8 -22 0 -34 -16 -25 -38 -22 -42 5 -7 50 18 67 42 29z"/>
<path d="M2031 4986 c1 -39 4 -59 6 -45 3 20 9 26 23 22 24 -6 51 34 43 65 -6
24 -6 24 -45 27 l-28 2 1 -71z m59 24 c0 -29 -14 -41 -37 -32 -16 5 -17 44 -2
59 18 18 39 3 39 -27z"/>
<path d="M2130 5045 c-15 -18 1 -20 18 -3 9 9 15 9 24 0 14 -14 3 -28 -27 -34
-12 -2 -20 -11 -20 -23 0 -16 7 -20 38 -20 36 -1 37 0 37 35 0 55 -40 81 -70
45z m50 -50 c0 -20 -28 -31 -42 -17 -10 10 8 23 40 31 1 1 2 -6 2 -14z"/>
<path d="M2220 5053 c0 -6 7 -30 15 -53 14 -39 14 -45 -1 -62 -10 -10 -12 -18
-7 -18 6 0 15 6 20 13 14 17 46 117 40 124 -3 3 -11 -14 -18 -37 l-13 -42 -13
38 c-14 39 -23 54 -23 37z"/>
<path d="M2312 5006 c1 -41 2 -44 5 -16 9 69 43 77 43 9 0 -53 18 -50 22 4 4
60 31 58 39 -3 l7 -45 -2 50 -1 50 -57 1 -58 0 2 -50z"/>
<path d="M2462 5048 c-7 -7 -12 -24 -12 -38 0 -47 43 -67 71 -33 13 15 12 15
-9 4 -18 -10 -27 -10 -38 0 -23 19 -16 29 21 29 22 0 35 5 35 13 0 18 -21 37
-40 37 -9 0 -21 -5 -28 -12z m48 -13 c11 -13 8 -15 -20 -15 -28 0 -31 2 -20
15 7 8 16 15 20 15 4 0 13 -7 20 -15z"/>
<path d="M2550 5008 c0 -59 18 -64 22 -5 2 29 8 42 18 42 10 0 16 -13 18 -42
4 -50 22 -58 22 -10 0 44 -14 62 -50 62 -29 1 -30 0 -30 -47z"/>
<path d="M2801 5046 c-31 -37 9 -103 47 -80 36 23 23 94 -18 94 -10 0 -23 -6
-29 -14z m47 -8 c28 -28 -3 -83 -33 -58 -8 7 -15 20 -15 29 0 17 18 41 30 41
3 0 11 -5 18 -12z"/>
<path d="M2890 5008 c0 -26 5 -48 10 -48 6 0 10 18 10 40 0 27 6 42 18 49 14
9 13 10 -10 9 -26 -2 -28 -5 -28 -50z"/>
<path d="M3056 5044 c-9 -8 -16 -24 -16 -34 0 -19 25 -50 40 -50 17 0 40 13
40 22 0 6 -6 5 -15 -2 -18 -15 -45 -6 -45 15 0 10 10 15 35 15 29 0 33 3 28
18 -13 34 -42 41 -67 16z m52 -11 c2 -8 -6 -13 -22 -13 -25 0 -33 10 -19 24
10 10 36 3 41 -11z"/>
<path d="M3140 5009 c0 -27 5 -49 10 -49 6 0 10 18 10 40 0 26 6 42 17 48 13
8 11 10 -10 10 -26 0 -27 -3 -27 -49z"/>
<path d="M3300 5010 c0 -27 5 -50 10 -50 6 0 10 23 10 50 0 28 -4 50 -10 50
-5 0 -10 -22 -10 -50z"/>
<path d="M2750 5040 c0 -5 5 -10 10 -10 6 0 10 5 10 10 0 6 -4 10 -10 10 -5 0
-10 -4 -10 -10z"/>
<path d="M2750 4970 c0 -5 5 -10 10 -10 6 0 10 5 10 10 0 6 -4 10 -10 10 -5 0
-10 -4 -10 -10z"/>
<path d="M3213 4933 c15 -2 39 -2 55 0 15 2 2 4 -28 4 -30 0 -43 -2 -27 -4z"/>
<path d="M2082 4813 l1 -68 7 55 c6 53 6 54 18 27 6 -15 15 -39 18 -52 9 -38
21 -30 41 28 l18 52 6 -55 6 -55 1 68 c1 37 -2 67 -7 67 -5 0 -17 -22 -27 -50
-10 -27 -21 -50 -24 -50 -4 0 -13 21 -21 47 -23 73 -39 67 -37 -14z"/>
<path d="M2320 4815 c0 -37 4 -65 10 -65 6 0 10 12 10 28 l1 27 24 -30 c28
-33 34 -23 9 13 -15 21 -15 25 2 43 9 10 12 19 6 19 -6 0 -18 -10 -26 -22 -16
-22 -16 -22 -16 15 0 20 -4 37 -10 37 -6 0 -10 -28 -10 -65z"/>
<path d="M2561 4813 c1 -47 3 -59 8 -38 5 25 12 31 41 35 31 4 35 8 35 35 0
28 -3 30 -42 33 l-43 3 1 -68z m68 48 c23 -15 5 -41 -29 -41 -22 0 -30 5 -30
18 0 32 28 42 59 23z"/>
<path d="M3198 4859 c-8 -25 8 -103 22 -107 12 -4 13 -2 3 9 -15 15 -17 61 -4
75 6 5 4 14 -4 21 -9 8 -15 9 -17 2z"/>
<path d="M2237 4844 c-13 -13 -7 -27 7 -15 14 12 46 5 46 -10 0 -5 -15 -12
-32 -17 -23 -6 -33 -14 -33 -28 0 -15 7 -19 38 -19 l38 -1 -3 46 c-3 40 -6 45
-28 48 -14 2 -29 0 -33 -4z m43 -69 c-7 -8 -19 -15 -26 -15 -8 0 -14 7 -14 15
0 10 10 15 26 15 22 0 25 -2 14 -15z"/>
<path d="M2422 4838 c-7 -7 -12 -24 -12 -38 0 -46 43 -67 70 -35 15 18 -1 20
-18 3 -8 -8 -15 -8 -27 2 -24 20 -18 30 20 30 22 0 35 5 35 13 0 18 -21 37
-40 37 -9 0 -21 -5 -28 -12z m46 -16 c2 -7 -7 -12 -22 -12 -27 0 -35 15 -13
23 17 7 30 3 35 -11z"/>
<path d="M2680 4835 c-15 -18 1 -20 18 -3 9 9 15 9 24 0 14 -14 3 -28 -27 -34
-12 -2 -20 -11 -20 -23 0 -16 7 -20 38 -20 36 -1 37 0 37 35 0 55 -40 81 -70
45z m50 -50 c0 -20 -28 -31 -42 -17 -10 10 8 23 40 31 1 1 2 -6 2 -14z"/>
<path d="M2770 4843 c0 -6 7 -30 15 -53 14 -39 14 -45 -1 -62 -10 -10 -12 -18
-7 -18 6 0 15 6 20 13 14 17 46 117 40 124 -3 3 -11 -14 -18 -37 l-13 -42 -13
38 c-14 39 -23 54 -23 37z"/>
<path d="M2862 4796 c1 -41 2 -44 5 -16 9 69 43 77 43 9 0 -53 18 -50 22 4 4
60 31 58 39 -3 l7 -45 -2 50 -1 50 -57 1 -58 0 2 -50z"/>
<path d="M3012 4838 c-7 -7 -12 -24 -12 -38 0 -47 43 -67 71 -33 13 15 12 15
-9 4 -18 -10 -27 -10 -38 0 -23 19 -16 29 21 29 22 0 35 5 35 13 0 18 -21 37
-40 37 -9 0 -21 -5 -28 -12z m48 -13 c11 -13 8 -15 -20 -15 -28 0 -31 2 -20
15 7 8 16 15 20 15 4 0 13 -7 20 -15z"/>
<path d="M3100 4798 c0 -59 18 -64 22 -5 2 29 8 42 18 42 10 0 16 -13 18 -42
4 -50 22 -58 22 -10 0 44 -14 62 -50 62 -29 1 -30 0 -30 -47z"/>
<path d="M3252 4838 c-14 -17 -4 -33 26 -42 12 -4 22 -11 22 -16 0 -15 -21
-23 -33 -11 -17 17 -31 13 -17 -4 16 -20 44 -19 61 1 11 14 10 18 -6 30 -10 8
-25 14 -32 14 -7 0 -13 7 -13 15 0 18 21 20 39 3 11 -11 13 -10 9 2 -6 20 -42
25 -56 8z"/>
<path d="M5172 4125 c-27 -55 -27 -58 -3 -46 18 10 19 4 26 -112 4 -67 5 -184
3 -260 l-3 -137 777 0 778 0 3 -1312 2 -1313 0 1315 0 1315 -772 3 -773 2 0
255 c0 253 0 256 20 245 11 -6 20 -8 20 -6 0 11 -44 96 -50 96 -3 0 -16 -20
-28 -45z"/>
<path d="M3310 1700 l0 -1380 1380 0 1380 0 2 313 3 312 335 5 335 5 -337 3
-338 2 0 1060 0 1060 -1380 0 -1380 0 0 -1380z m2750 315 l0 -1055 -272 -2
-273 -3 273 -2 272 -3 0 -310 0 -310 -1370 0 -1370 0 0 1370 0 1370 1370 0
1370 0 0 -1055z"/>
<path d="M4490 2590 c0 -33 4 -60 10 -60 6 0 10 11 10 24 0 37 17 40 35 6 8
-16 20 -30 25 -30 15 0 12 12 -10 45 -19 29 -19 29 2 52 18 19 19 23 5 23 -8
0 -25 -12 -36 -26 l-21 -27 0 27 c0 14 -4 26 -10 26 -6 0 -10 -27 -10 -60z"/>
<path d="M4700 2636 c0 -8 -6 -17 -12 -20 -10 -5 -10 -7 0 -12 6 -3 12 -21 12
-40 0 -19 5 -34 10 -34 8 0 14 41 13 88 -1 6 3 12 8 12 5 0 9 5 9 10 0 6 -9
10 -20 10 -11 0 -20 -6 -20 -14z"/>
<path d="M4750 2590 c0 -33 4 -60 10 -60 6 0 10 10 11 23 l0 22 16 -22 c22
-33 36 -28 19 6 -11 21 -12 31 -4 39 17 17 1 27 -17 12 -13 -11 -15 -9 -15 14
0 14 -4 26 -10 26 -6 0 -10 -27 -10 -60z"/>
<path d="M4607 2613 c-15 -14 -5 -23 21 -18 l27 5 -28 -12 c-40 -17 -34 -52
11 -55 29 -1 32 1 32 27 0 16 -3 35 -6 44 -6 16 -45 22 -57 9z m38 -53 c-3 -5
-10 -10 -16 -10 -5 0 -9 5 -9 10 0 6 7 10 16 10 8 0 12 -4 9 -10z"/>
<path d="M4847 2614 c-14 -14 -7 -22 16 -17 19 3 18 2 -6 -12 -39 -22 -32 -50
11 -50 32 -1 33 0 30 40 -2 31 -7 41 -23 43 -12 2 -24 0 -28 -4z m33 -54 c0
-5 -7 -10 -16 -10 -8 0 -12 5 -9 10 3 6 10 10 16 10 5 0 9 -4 9 -10z"/>
<path d="M4000 1700 l0 -320 755 0 755 0 0 320 0 320 -755 0 -755 0 0 -320z
m1500 5 l0 -305 -745 0 -745 0 0 305 0 305 745 0 745 0 0 -305z"/>
<path d="M4441 1703 c1 -32 4 -48 6 -35 3 15 11 22 28 22 13 0 28 8 34 17 15
27 -5 53 -39 53 -30 0 -30 0 -29 -57z m54 22 c0 -5 -10 -11 -22 -13 -16 -2
-23 2 -23 13 0 11 7 15 23 13 12 -2 22 -7 22 -13z"/>
<path d="M4740 1742 c0 -13 -7 -18 -21 -18 -12 1 -26 -7 -33 -16 -15 -25 4
-53 38 -54 25 -1 26 1 26 52 0 30 -2 54 -5 54 -3 0 -5 -8 -5 -18z m-5 -52 c0
-8 -8 -16 -17 -18 -13 -2 -18 3 -18 18 0 15 5 20 18 18 9 -2 17 -10 17 -18z"/>
<path d="M4946 1732 c-9 -15 17 -82 31 -82 7 0 13 5 13 10 0 6 -4 10 -10 10
-14 0 -12 37 3 43 9 4 8 8 -3 16 -18 13 -27 14 -34 3z"/>
<path d="M4541 1685 c2 -31 3 -34 6 -12 3 16 11 31 19 34 21 8 17 22 -6 20
-17 -1 -20 -8 -19 -42z"/>
<path d="M4600 1715 c-26 -32 13 -81 48 -59 34 22 22 74 -18 74 -10 0 -23 -7
-30 -15z m50 -25 c0 -11 -6 -20 -14 -20 -18 0 -29 16 -21 30 11 18 35 11 35
-10z"/>
<path d="M4783 1695 c2 -38 4 -40 35 -42 31 -1 32 0 32 38 0 44 -17 54 -22 12
-4 -39 -26 -40 -37 -1 l-10 33 2 -40z"/>
<path d="M4874 1716 c-3 -8 -4 -25 -2 -38 4 -27 39 -36 57 -14 11 13 8 15 -16
13 -19 -1 -28 3 -28 13 0 9 9 15 23 14 28 -1 23 20 -6 24 -13 2 -25 -3 -28
-12z"/>
<path d="M5007 1723 c-15 -14 -5 -33 21 -40 l27 -7 -30 -6 c-26 -6 -27 -8 -11
-15 20 -9 47 3 48 20 0 6 -10 16 -23 22 l-24 13 23 0 c13 0 20 4 17 10 -7 11
-38 13 -48 3z"/>
<path d="M4000 890 l0 -320 755 0 755 0 0 320 0 320 -755 0 -755 0 0 -320z
m1500 0 l0 -310 -745 0 -745 0 0 310 0 310 745 0 745 0 0 -310z"/>
<path d="M4523 924 c-15 -24 -15 -29 -2 -53 29 -51 89 -35 89 23 0 59 -55 78
-87 30z m66 -13 c13 -24 -8 -55 -35 -49 -20 3 -30 29 -20 54 8 20 43 17 55 -5z"/>
<path d="M4740 932 c0 -13 -7 -18 -22 -18 -20 1 -23 -4 -23 -34 0 -32 2 -35
33 -37 l32 -1 0 54 c0 30 -4 54 -10 54 -5 0 -10 -8 -10 -18z m0 -52 c0 -21
-24 -28 -35 -10 -8 14 3 30 21 30 8 0 14 -9 14 -20z"/>
<path d="M4630 879 c0 -22 5 -39 10 -39 6 0 10 14 10 30 0 20 5 30 15 30 8 0
15 4 15 9 0 5 -11 9 -25 9 -22 0 -25 -5 -25 -39z"/>
<path d="M4787 913 c-4 -3 -7 -19 -7 -35 0 -31 20 -45 48 -33 15 7 14 9 -8 15
l-25 8 28 1 c30 1 32 4 17 32 -10 19 -40 26 -53 12z m40 -19 c-3 -3 -12 -4
-19 -1 -8 3 -5 6 6 6 11 1 17 -2 13 -5z"/>
<path d="M4871 875 c2 -31 3 -34 6 -12 3 16 11 31 19 34 21 8 17 22 -6 20 -17
-1 -20 -8 -19 -42z"/>
<path d="M4927 913 c-15 -14 -5 -33 21 -40 l27 -7 -30 -6 c-26 -6 -27 -8 -11
-15 20 -9 47 3 48 20 0 6 -10 16 -23 22 l-24 13 23 0 c13 0 20 4 17 10 -7 11
-38 13 -48 3z"/>
<path d="M6853 2752 c-36 -23 -34 -97 3 -114 29 -13 74 3 74 27 0 12 -4 11
-20 -5 -24 -24 -34 -25 -54 -4 -29 28 -10 94 26 94 6 0 20 -7 30 -17 20 -18
25 -4 6 15 -13 13 -47 16 -65 4z"/>
<path d="M7930 2740 c0 -17 -5 -19 -25 -14 -20 5 -27 1 -36 -20 -19 -40 2 -77
41 -74 30 2 30 2 30 65 0 35 -2 63 -5 63 -3 0 -5 -9 -5 -20z m-6 -43 c12 -18
0 -47 -22 -55 -19 -6 -34 35 -22 59 13 23 28 21 44 -4z"/>
<path d="M8320 2740 c0 -17 -5 -19 -25 -14 -20 5 -27 1 -36 -20 -19 -40 2 -77
41 -74 30 2 30 2 30 65 0 35 -2 63 -5 63 -3 0 -5 -9 -5 -20z m-6 -43 c12 -18
0 -47 -22 -55 -19 -6 -34 35 -22 59 13 23 28 21 44 -4z"/>
<path d="M8643 2695 c0 -38 2 -53 4 -32 2 20 2 52 0 70 -2 17 -4 1 -4 -38z"/>
<path d="M8820 2745 c0 -8 -5 -15 -11 -15 -8 0 -8 -4 -1 -13 6 -7 12 -30 15
-52 4 -40 4 -40 5 8 1 30 7 47 15 47 8 0 7 4 -3 10 -13 9 -13 11 0 20 13 8 12
10 -2 10 -10 0 -18 -7 -18 -15z"/>
<path d="M8453 2735 c-8 -9 -9 -16 -3 -20 6 -3 10 -24 10 -46 0 -31 4 -39 18
-39 13 0 14 2 4 9 -8 5 -12 25 -11 54 3 53 -1 61 -18 42z"/>
<path d="M6961 2716 c-31 -37 9 -103 47 -80 36 23 23 94 -18 94 -10 0 -23 -6
-29 -14z m47 -8 c28 -28 -3 -83 -33 -58 -8 7 -15 20 -15 29 0 17 18 41 30 41
3 0 11 -5 18 -12z"/>
<path d="M7050 2678 c0 -59 18 -64 22 -5 2 29 8 42 18 42 10 0 16 -13 18 -42
4 -50 22 -58 22 -10 0 44 -14 62 -50 62 -29 1 -30 0 -30 -47z"/>
<path d="M7157 2724 c-16 -16 -6 -42 18 -48 14 -4 25 -11 25 -16 0 -15 -21
-23 -33 -11 -17 17 -31 13 -17 -4 16 -20 44 -19 61 1 11 14 10 18 -6 30 -10 8
-25 14 -32 14 -7 0 -13 4 -13 9 0 18 21 23 37 9 14 -11 16 -11 11 2 -5 16 -39
25 -51 14z"/>
<path d="M7244 2685 c1 -49 1 -50 34 -50 l32 -1 -2 51 c-1 42 -2 44 -5 13 -4
-39 -28 -67 -43 -52 -5 5 -11 27 -13 49 -3 33 -4 31 -3 -10z"/>
<path d="M7330 2678 c0 -59 18 -64 22 -5 4 60 31 58 39 -3 l5 -45 5 45 c6 61
33 63 37 3 4 -54 22 -57 22 -4 0 49 -10 56 -77 56 l-53 1 0 -48z"/>
<path d="M7493 2722 c-21 -13 -26 -58 -7 -76 19 -20 55 -18 62 4 4 12 3 13
-10 2 -18 -15 -48 -6 -48 14 0 9 12 14 35 14 38 0 44 10 19 34 -17 17 -32 20
-51 8z m45 -19 c2 -8 -6 -13 -22 -13 -25 0 -33 10 -19 24 10 10 36 3 41 -11z"/>
<path d="M7582 2718 c-14 -17 -4 -33 26 -42 12 -4 22 -11 22 -16 0 -15 -21
-23 -33 -11 -17 17 -31 13 -17 -4 16 -20 44 -19 61 1 11 14 10 18 -6 30 -10 8
-25 14 -32 14 -7 0 -13 7 -13 15 0 18 21 20 39 3 11 -11 13 -10 9 2 -6 20 -42
25 -56 8z"/>
<path d="M7721 2716 c-31 -37 9 -103 47 -80 36 23 23 94 -18 94 -10 0 -23 -6
-29 -14z m47 -8 c28 -28 -3 -83 -33 -58 -8 7 -15 20 -15 29 0 17 18 41 30 41
3 0 11 -5 18 -12z"/>
<path d="M7812 2675 c1 -46 2 -47 5 -10 2 22 11 45 20 52 13 10 13 12 -6 10
-19 -1 -21 -7 -19 -52z"/>
<path d="M7972 2718 c-7 -7 -12 -24 -12 -38 0 -47 43 -67 71 -33 13 15 12 15
-9 4 -18 -10 -27 -10 -38 0 -23 19 -16 29 21 29 22 0 35 5 35 13 0 18 -21 37
-40 37 -9 0 -21 -5 -28 -12z m48 -13 c11 -13 8 -15 -20 -15 -28 0 -31 2 -20
15 7 8 16 15 20 15 4 0 13 -7 20 -15z"/>
<path d="M8060 2678 c0 -26 5 -48 10 -48 6 0 10 18 10 40 0 27 6 42 18 49 14
9 13 10 -10 9 -26 -2 -28 -5 -28 -50z"/>
<path d="M8123 2714 c-7 -18 20 -44 44 -44 7 0 13 -5 13 -10 0 -17 -29 -23
-45 -10 -10 8 -15 9 -15 2 0 -17 19 -24 46 -18 36 9 31 41 -8 55 -24 9 -29 14
-20 23 9 9 15 9 24 0 17 -17 33 -15 18 3 -17 20 -49 19 -57 -1z"/>
<path d="M8362 2718 c-7 -7 -12 -24 -12 -38 0 -47 43 -67 71 -33 13 15 12 15
-9 4 -18 -10 -27 -10 -38 0 -23 19 -16 29 21 29 22 0 35 5 35 13 0 18 -21 37
-40 37 -9 0 -21 -5 -28 -12z m48 -13 c11 -13 8 -15 -20 -15 -28 0 -31 2 -20
15 7 8 16 15 20 15 4 0 13 -7 20 -15z"/>
<path d="M8507 2724 c-14 -14 -7 -26 8 -14 16 13 45 7 45 -10 0 -6 -13 -13
-29 -16 -55 -11 -44 -54 12 -51 27 2 28 4 25 47 -3 40 -6 45 -28 48 -14 2 -29
0 -33 -4z m41 -70 c-16 -16 -38 -12 -38 6 0 8 41 19 49 13 3 -2 -2 -11 -11
-19z"/>
<path d="M8603 2680 c0 -30 2 -43 4 -27 2 15 2 39 0 55 -2 15 -4 2 -4 -28z"/>
<path d="M8673 2714 c-7 -18 20 -44 44 -44 7 0 13 -5 13 -10 0 -17 -29 -23
-45 -10 -10 8 -15 9 -15 2 0 -17 19 -24 46 -18 36 9 31 41 -8 55 -24 9 -29 14
-20 23 9 9 15 9 24 0 17 -17 33 -15 18 3 -17 20 -49 19 -57 -1z"/>
<path d="M8862 2675 c1 -46 2 -47 5 -10 2 22 11 45 20 52 13 10 13 12 -6 10
-19 -1 -21 -7 -19 -52z"/>
<path d="M8926 2714 c-9 -8 -16 -24 -16 -34 0 -21 25 -50 43 -50 25 0 40 19
40 50 0 47 -36 65 -67 34z m38 0 c32 -12 15 -74 -19 -74 -14 0 -25 42 -15 60
12 22 12 22 34 14z"/>
<path d="M9010 2679 c0 -60 18 -65 22 -6 4 60 31 58 39 -3 6 -43 6 -43 7 -9 3
72 46 71 55 -1 4 -34 4 -34 5 7 2 50 -7 58 -75 59 l-53 1 0 -48z"/>
<path d="M7479 2536 c-2 -10 -2 -41 -1 -67 3 -38 8 -49 20 -48 11 0 12 2 5 6
-8 2 -13 22 -13 44 0 24 5 39 13 39 8 0 9 3 1 8 -6 4 -13 14 -16 22 -4 12 -6
11 -9 -4z"/>
<path d="M7890 2523 c0 -22 2 -25 10 -13 13 20 13 40 0 40 -5 0 -10 -12 -10
-27z"/>
<path d="M7922 2525 c0 -16 2 -22 5 -12 2 9 2 23 0 30 -3 6 -5 -1 -5 -18z"/>
<path d="M8170 2530 c0 -13 -5 -18 -15 -14 -22 9 -45 -14 -45 -46 0 -33 17
-50 48 -47 20 1 22 6 22 64 0 35 -2 63 -5 63 -3 0 -5 -9 -5 -20z m-2 -54 c4
-36 -12 -54 -33 -36 -18 15 -20 41 -3 58 18 18 33 9 36 -22z"/>
<path d="M8452 2525 c0 -16 2 -22 5 -12 2 9 2 23 0 30 -3 6 -5 -1 -5 -18z"/>
<path d="M8482 2525 c0 -16 2 -22 5 -12 2 9 2 23 0 30 -3 6 -5 -1 -5 -18z"/>
<path d="M7531 2506 c-31 -37 9 -103 47 -80 36 23 23 94 -18 94 -10 0 -23 -6
-29 -14z m47 -8 c28 -28 -3 -83 -33 -58 -8 7 -15 20 -15 29 0 17 18 41 30 41
3 0 11 -5 18 -12z"/>
<path d="M7620 2448 c0 -39 4 -68 10 -68 6 0 10 11 10 25 0 18 4 23 15 19 22
-9 45 14 45 46 0 34 -17 49 -52 47 -28 -2 -28 -3 -28 -69z m64 39 c12 -18 0
-47 -22 -55 -19 -6 -34 35 -22 59 13 23 28 21 44 -4z"/>
<path d="M7723 2470 c0 -30 2 -43 4 -27 2 15 2 39 0 55 -2 15 -4 2 -4 -28z"/>
<path d="M7766 2504 c-9 -8 -16 -24 -16 -34 0 -21 25 -50 44 -50 14 0 36 20
36 34 0 5 -9 1 -19 -8 -25 -23 -41 -13 -41 24 0 33 16 48 33 31 17 -17 31 -13
17 4 -16 19 -35 19 -54 -1z"/>
<path d="M7961 2506 c-31 -37 9 -103 47 -80 36 23 23 94 -18 94 -10 0 -23 -6
-29 -14z m47 -8 c28 -28 -3 -83 -33 -58 -8 7 -15 20 -15 29 0 17 18 41 30 41
3 0 11 -5 18 -12z"/>
<path d="M8050 2468 c0 -26 5 -48 10 -48 6 0 10 18 10 40 0 27 6 42 18 49 14
9 13 10 -10 9 -26 -2 -28 -5 -28 -50z"/>
<path d="M8223 2512 c-21 -13 -26 -58 -7 -76 19 -20 55 -18 62 4 4 12 3 13
-10 2 -18 -15 -48 -6 -48 14 0 9 12 14 35 14 38 0 44 10 19 34 -17 17 -32 20
-51 8z m45 -19 c2 -8 -6 -13 -22 -13 -25 0 -33 10 -19 24 10 10 36 3 41 -11z"/>
<path d="M8300 2469 c0 -27 5 -49 10 -49 6 0 10 18 10 40 0 26 6 42 17 48 13
8 11 10 -10 10 -26 0 -27 -3 -27 -49z"/>
<path d="M8363 2504 c-7 -18 20 -44 44 -44 7 0 13 -5 13 -10 0 -17 -29 -23
-45 -10 -10 8 -15 9 -15 2 0 -17 19 -24 46 -18 36 9 31 41 -8 55 -24 9 -29 14
-20 23 9 9 15 9 24 0 17 -17 33 -15 18 3 -17 20 -49 19 -57 -1z"/>
</g>
</svg>
